<svg width="1318" height="79" fill="none" xmlns="http://www.w3.org/2000/svg"><g opacity=".7" fill="#394149"><path d="M345.749 37.502a5.6 5.6 0 0 0-1.317 2.066 5.556 5.556 0 0 0-.304 2.425l-.028-.027a6.579 6.579 0 0 1-.386 2.848 6.643 6.643 0 0 1-1.562 2.422 6.745 6.745 0 0 1-2.449 1.545 6.8 6.8 0 0 1-2.879.382l.028.028a5.755 5.755 0 0 0-3.359.72 5.667 5.667 0 0 0-2.33 2.499 5.583 5.583 0 0 0-.454 3.37 5.615 5.615 0 0 0 1.586 3.016 5.72 5.72 0 0 0 3.05 1.566c1.155.2 2.345.04 3.406-.453a5.677 5.677 0 0 0 2.524-2.307 5.583 5.583 0 0 0 .725-3.324l.029.028a6.594 6.594 0 0 1 .386-2.848c.336-.91.87-1.737 1.563-2.422a6.735 6.735 0 0 1 2.448-1.546 6.802 6.802 0 0 1 2.879-.382l-.029-.027a5.745 5.745 0 0 0 2.791-.45 5.684 5.684 0 0 0 2.228-1.724 5.593 5.593 0 0 0 .838-5.356 5.636 5.636 0 0 0-1.597-2.31 5.719 5.719 0 0 0-2.524-1.263 5.752 5.752 0 0 0-2.827.095 5.704 5.704 0 0 0-2.431 1.43h-.005ZM334.315 45.575l-.029-.028a5.688 5.688 0 0 0 2.453-.295 5.643 5.643 0 0 0 2.089-1.306 5.566 5.566 0 0 0 1.322-2.065c.28-.777.383-1.606.3-2.427l.029.027a6.609 6.609 0 0 1 1.949-5.27 6.733 6.733 0 0 1 2.448-1.545 6.8 6.8 0 0 1 2.879-.382l-.029-.028a5.747 5.747 0 0 0 3.359-.717 5.663 5.663 0 0 0 2.333-2.498 5.584 5.584 0 0 0 .456-3.37 5.616 5.616 0 0 0-1.584-3.017 5.726 5.726 0 0 0-3.05-1.568 5.757 5.757 0 0 0-3.407.452 5.677 5.677 0 0 0-2.525 2.307 5.585 5.585 0 0 0-.725 3.324l-.028-.03a6.61 6.61 0 0 1-1.948 5.271 6.737 6.737 0 0 1-2.449 1.546 6.8 6.8 0 0 1-2.879.381l.028.03a5.684 5.684 0 0 0-2.453.294 5.632 5.632 0 0 0-2.089 1.306 5.553 5.553 0 0 0-1.322 2.066 5.504 5.504 0 0 0-.3 2.427l-.028-.028a6.607 6.607 0 0 1-1.949 5.27 6.747 6.747 0 0 1-2.448 1.546 6.805 6.805 0 0 1-2.879.382l.028.027a5.752 5.752 0 0 0-3.36.718 5.66 5.66 0 0 0-2.332 2.498 5.585 5.585 0 0 0-.457 3.37 5.617 5.617 0 0 0 1.585 3.017 5.718 5.718 0 0 0 3.05 1.568 5.76 5.76 0 0 0 3.407-.452 5.682 5.682 0 0 0 2.525-2.307 5.593 5.593 0 0 0 .725-3.324l.029.027a6.609 6.609 0 0 1 1.949-5.27 6.735 6.735 0 0 1 2.448-1.545 6.8 6.8 0 0 1 2.879-.382ZM323.927 42.498a5.585 5.585 0 0 0 1.317-2.067 5.54 5.54 0 0 0 .303-2.424l.029.027a6.597 6.597 0 0 1 .386-2.849c.337-.91.87-1.737 1.564-2.422a6.744 6.744 0 0 1 2.449-1.546 6.803 6.803 0 0 1 2.88-.38l-.029-.028a5.75 5.75 0 0 0 3.358-.718 5.664 5.664 0 0 0 2.331-2.497 5.589 5.589 0 0 0-1.128-6.385 5.72 5.72 0 0 0-3.049-1.567 5.754 5.754 0 0 0-3.405.451 5.676 5.676 0 0 0-2.525 2.306 5.588 5.588 0 0 0-.725 3.323l-.028-.028a6.593 6.593 0 0 1-.386 2.848 6.654 6.654 0 0 1-1.562 2.422 6.745 6.745 0 0 1-2.449 1.546 6.8 6.8 0 0 1-2.879.381l.028.028a5.744 5.744 0 0 0-2.791.45 5.668 5.668 0 0 0-2.227 1.725 5.57 5.57 0 0 0-.837 5.356c.327.89.877 1.685 1.597 2.309a5.71 5.71 0 0 0 2.523 1.263 5.754 5.754 0 0 0 2.827-.095 5.702 5.702 0 0 0 2.431-1.43h-.003ZM371.941 27.204h4.604v22.161h-4.604v-22.16ZM379.152 41.777a7.985 7.985 0 0 1 1.355-4.479 8.117 8.117 0 0 1 3.643-2.977 8.216 8.216 0 0 1 4.702-.471 8.163 8.163 0 0 1 4.172 2.194 8.013 8.013 0 0 1 2.235 4.12 7.965 7.965 0 0 1-.457 4.652 8.068 8.068 0 0 1-2.995 3.616 8.198 8.198 0 0 1-4.522 1.358 8.116 8.116 0 0 1-3.119-.585 8.048 8.048 0 0 1-2.647-1.733 7.934 7.934 0 0 1-1.763-2.612 7.867 7.867 0 0 1-.604-3.083Zm11.662 0a3.463 3.463 0 0 0-.642-1.914 3.52 3.52 0 0 0-1.604-1.244 3.565 3.565 0 0 0-2.032-.16 3.542 3.542 0 0 0-1.782.979 3.478 3.478 0 0 0-.939 1.79 3.454 3.454 0 0 0 .217 2.005c.27.632.723 1.172 1.301 1.551.579.38 1.258.582 1.952.582a3.456 3.456 0 0 0 2.56-1.03 3.395 3.395 0 0 0 .969-2.56ZM413.765 34.187V48.6c0 5.1-4.021 7.256-8.102 7.256a7.915 7.915 0 0 1-4.158-.83 7.81 7.81 0 0 1-3.114-2.85l3.927-2.246a3.488 3.488 0 0 0 1.447 1.497 3.539 3.539 0 0 0 2.052.415 3.088 3.088 0 0 0 2.522-.8 3.015 3.015 0 0 0 .945-2.448v-1.388a5.443 5.443 0 0 1-2.003 1.514c-.779.343-1.627.5-2.478.46a7.838 7.838 0 0 1-5.355-2.343 7.672 7.672 0 0 1-2.197-5.368c0-2.003.788-3.928 2.197-5.368a7.838 7.838 0 0 1 5.355-2.342 5.506 5.506 0 0 1 2.478.46 5.444 5.444 0 0 1 2.003 1.514v-1.55l4.481.004Zm-4.479 7.285a3.648 3.648 0 0 0-.551-2.086 3.707 3.707 0 0 0-1.637-1.422 3.755 3.755 0 0 0-4.106.7 3.646 3.646 0 0 0-.873 4.03 3.687 3.687 0 0 0 1.37 1.676 3.75 3.75 0 0 0 2.084.628 3.506 3.506 0 0 0 2.647-.948 3.413 3.413 0 0 0 1.066-2.578ZM416.372 41.777a7.985 7.985 0 0 1 1.355-4.479 8.112 8.112 0 0 1 3.643-2.977 8.213 8.213 0 0 1 4.701-.471 8.162 8.162 0 0 1 4.173 2.194 8.013 8.013 0 0 1 2.235 4.12 7.965 7.965 0 0 1-.457 4.652 8.068 8.068 0 0 1-2.995 3.616 8.198 8.198 0 0 1-4.522 1.358 8.116 8.116 0 0 1-3.119-.585 8.048 8.048 0 0 1-2.647-1.733 7.934 7.934 0 0 1-1.763-2.612 7.867 7.867 0 0 1-.604-3.083Zm11.662 0a3.463 3.463 0 0 0-.642-1.914 3.52 3.52 0 0 0-1.604-1.244 3.566 3.566 0 0 0-2.032-.16 3.542 3.542 0 0 0-1.782.979 3.478 3.478 0 0 0-.939 1.79 3.454 3.454 0 0 0 .217 2.005c.27.632.723 1.172 1.301 1.551.579.38 1.258.582 1.952.582a3.456 3.456 0 0 0 2.56-1.03 3.395 3.395 0 0 0 .969-2.56ZM434.785 30.12c0-.541.162-1.07.465-1.519.304-.45.735-.8 1.24-1.006a2.79 2.79 0 0 1 3.01.592 2.71 2.71 0 0 1 .599 2.978c-.209.499-.563.926-1.018 1.226-.454.3-.988.46-1.534.46a2.805 2.805 0 0 1-1.945-.808 2.742 2.742 0 0 1-.817-1.924Zm.465 4.067h4.605v15.18h-4.612l.007-15.18ZM459.732 41.777a7.556 7.556 0 0 1-.435 2.954 7.612 7.612 0 0 1-1.548 2.561 7.712 7.712 0 0 1-2.424 1.778 7.77 7.77 0 0 1-2.928.72 5.813 5.813 0 0 1-2.496-.416 5.765 5.765 0 0 1-2.075-1.436v7.5h-4.603v-21.25h4.603v1.425a5.762 5.762 0 0 1 2.075-1.434 5.816 5.816 0 0 1 2.496-.417 7.771 7.771 0 0 1 2.929.72 7.708 7.708 0 0 1 2.424 1.778 7.559 7.559 0 0 1 1.982 5.517Zm-4.604 0a3.588 3.588 0 0 0-.659-1.982 3.645 3.645 0 0 0-1.658-1.29 3.686 3.686 0 0 0-3.948.84 3.582 3.582 0 0 0-.75 3.926 3.619 3.619 0 0 0 1.346 1.607 3.679 3.679 0 0 0 2.019.602 3.54 3.54 0 0 0 1.445-.24 3.47 3.47 0 0 0 1.999-2.029c.17-.458.241-.947.206-1.434ZM473.938 44.811c0 3.492-3.068 4.979-6.382 4.979a6.775 6.775 0 0 1-3.859-.804 6.675 6.675 0 0 1-2.739-2.808l3.988-2.247a2.5 2.5 0 0 0 .982 1.351 2.542 2.542 0 0 0 1.622.44c1.104 0 1.657-.334 1.657-.94 0-1.671-7.55-.79-7.55-6.041 0-3.31 2.824-4.979 6.016-4.979a6.767 6.767 0 0 1 3.439.815 6.682 6.682 0 0 1 2.544 2.433l-3.928 2.094a2.207 2.207 0 0 0-.825-.974 2.242 2.242 0 0 0-1.23-.361c-.799 0-1.29.306-1.29.85.006 1.73 7.555.576 7.555 6.192ZM490.754 34.188v15.18h-4.604V47.94a5.25 5.25 0 0 1-1.968 1.448 5.29 5.29 0 0 1-2.418.404c-3.1 0-5.735-2.185-5.735-6.286v-9.319h4.603v8.652c-.039.361.003.727.123 1.07.117.345.311.659.565.922a2.534 2.534 0 0 0 1.981.768c1.688 0 2.854-.971 2.854-3.127v-8.28l4.599-.005ZM517.15 40.046v9.32h-4.604V40.44c0-1.518-.736-2.488-2.208-2.488-1.535 0-2.395 1.062-2.395 2.853v8.56h-4.602V40.44c0-1.518-.736-2.488-2.21-2.488-1.535 0-2.393 1.062-2.393 2.853v8.56h-4.604v-15.18h4.604v1.396a4.7 4.7 0 0 1 1.821-1.428 4.758 4.758 0 0 1 2.291-.392 4.613 4.613 0 0 1 2.277.477c.703.351 1.303.877 1.742 1.526a5.046 5.046 0 0 1 1.964-1.569c.778-.35 1.633-.5 2.486-.434 3.523.002 5.831 2.49 5.831 6.285ZM521.044 34.094c1.886 0 3.416-1.513 3.416-3.38 0-1.866-1.53-3.379-3.416-3.379-1.887 0-3.417 1.513-3.417 3.38 0 1.866 1.53 3.379 3.417 3.379Z"/></g><path d="M117.025 49.992h-7.915V29.1h7.915v20.892Zm-7.142-.763h6.369V29.863h-6.369v19.366Zm18.156.763h-7.756V29.1h16.206a9.815 9.815 0 0 1 6.515 1.813 7.024 7.024 0 0 1 1.834 2.649 6.937 6.937 0 0 1 .452 3.177 7.358 7.358 0 0 1-1.683 5.151c-1.418 1.606-3.777 2.433-7.012 2.462-.814.022-6.92 0-8.551 0l-.005 5.64Zm-6.988-.763h6.215V43.58h.388c.079 0 8.006.025 8.923 0 3.013-.026 5.179-.763 6.445-2.202a6.642 6.642 0 0 0 1.484-4.642 6.233 6.233 0 0 0-.385-2.851 6.316 6.316 0 0 0-1.624-2.388 9.095 9.095 0 0 0-6.019-1.637h-15.422l-.005 19.368Zm13.796-9.57h-7.633v-5.687h7.684a3.304 3.304 0 0 1 1.613.182c.513.194.969.513 1.324.927.323.53.475 1.144.436 1.76a3.205 3.205 0 0 1-.363 1.652 3.35 3.35 0 0 1-1.377.975 3.386 3.386 0 0 1-1.684.185v.006Zm-6.86-.763h6.86c1.267 0 2.053-.261 2.401-.799.191-.39.278-.823.252-1.256a2.338 2.338 0 0 0-.288-1.31l-.009-.013c-.368-.534-1.099-.783-2.305-.783h-6.911v4.16ZM159.398 50.3c-6.942 0-11.085-1.702-12.664-5.201a8.984 8.984 0 0 1-.522-2.098l-.068-.44h8.259l.054.321c.063.326.204.632.408.895.326.389 1.415 1.042 5.026 1.042 4.342 0 4.342-.752 4.342-1.157 0-.682-.503-.916-4.043-1.288l-.673-.063c-1.333-.123-3.018-.28-3.788-.346-6.493-.58-9.392-2.572-9.392-6.456 0-4.08 4.933-6.716 12.569-6.716 6.229 0 10.243 1.62 11.927 4.822a7.36 7.36 0 0 1 .793 2.384l.054.429h-8.268l-.034-.345a1.3 1.3 0 0 0-.334-.724c-.31-.409-1.287-1.085-4.32-1.085-3.724 0-4.238.47-4.238.977 0 .676 1.177.916 4.948 1.314 1.572.127 4.1.383 4.966.487 5.443.583 7.872 2.526 7.872 6.302.002 3.167-2.232 6.946-12.874 6.946Zm-12.351-6.975c.077.503.21.997.397 1.471 1.438 3.189 5.349 4.741 11.954 4.741 5.523 0 12.107-1.068 12.107-6.183 0-3.347-2.149-5.005-7.187-5.544-.866-.103-3.379-.358-4.948-.486-4.02-.43-5.654-.66-5.654-2.073 0-1.462 1.761-1.74 5.011-1.74 2.568 0 4.227.458 4.93 1.381.192.228.337.49.427.772h6.701a6.828 6.828 0 0 0-.634-1.695c-1.546-2.93-5.323-4.413-11.242-4.413-7.165 0-11.796 2.337-11.796 5.953 0 3.45 2.599 5.153 8.687 5.696.773.066 2.457.223 3.793.348l.677.063c3.288.341 4.739.555 4.739 2.046 0 1.606-1.876 1.92-5.115 1.92-2.996 0-4.888-.444-5.62-1.318a2.834 2.834 0 0 1-.501-.939h-6.726Zm39.913 6.95c-8.071 0-12.524-3.223-12.524-9.075V29.1h7.811v12.1c0 2.008 1.82 3.158 4.991 3.158 3.03 0 4.912-1.2 4.912-3.132V29.1h7.73V41.84c.008 5.36-4.706 8.433-12.925 8.433h.005Zm-11.75-20.412V41.2c0 7.232 7.356 8.311 11.75 8.311 4.542 0 12.159-.997 12.159-7.67V29.863h-6.184v11.363c0 2.366-2.233 3.895-5.685 3.895-3.608 0-5.764-1.465-5.764-3.92V29.862h-6.276Zm57.428 20.129h-7.372v-9.433l-4.18 9.433h-6.43l-4.138-9.414v9.414h-7.398V29.1h9.731l5.056 11.519 5.3-11.52h9.44l-.009 20.893Zm-6.599-.763h5.826V29.863h-8.167l-5.816 12.636-5.544-12.636h-8.451v19.366h5.852V36.905l5.411 12.328h5.411l5.469-12.31.009 12.306ZM9.359 29.48H2.32v20.13h19.456v-5.36H9.36v-14.77Zm26.627-.458c-8.987 0-13.714 4.205-13.714 10.38 0 6.975 4.962 10.513 13.714 10.513 9.635 0 13.687-4.103 13.687-10.514 0-6.51-4.572-10.382-13.687-10.382v.003Zm-.026 5.231c.611-.003 1.223.032 1.83.105l-7.87 7.77a6.102 6.102 0 0 1-.533-2.643c0-3.158 1.611-5.235 6.573-5.235v.003Zm.026 10.513a14.81 14.81 0 0 1-1.764-.097l7.885-7.785c.358.818.53 1.704.502 2.595 0 3.073-1.484 5.284-6.623 5.284v.003Zm27.637-2.747h7.247a3.25 3.25 0 0 1-.65 1.358 7.572 7.572 0 0 1-5.35 1.641 6.9 6.9 0 0 1-2.883-.307 6.837 6.837 0 0 1-2.493-1.462 5.643 5.643 0 0 1-.988-3.616 5.514 5.514 0 0 1 1.065-3.768c1.013-1.13 2.727-1.617 5.247-1.617a7.224 7.224 0 0 1 4.546 1.154c.422.332.738.777.909 1.282h6.72a6.766 6.766 0 0 0-.598-2.41c-1.61-3.23-5.35-5.154-11.713-5.154-5.533 0-9.247 1.667-11.298 4.18a9.937 9.937 0 0 0-1.975 6.283 10.484 10.484 0 0 0 1.93 6.464c2.027 2.595 5.637 3.87 9.975 3.87a12.582 12.582 0 0 0 8.103-2.255l.182 1.947h5.583V37.687H63.623v4.333Zm29.405-13.001c-8.986 0-13.714 4.205-13.714 10.379 0 6.975 4.96 10.513 13.714 10.513 9.636 0 13.688-4.103 13.688-10.513 0-6.505-4.571-10.378-13.688-10.378v-.001Zm-.025 5.23a15.04 15.04 0 0 1 1.782.101l-7.84 7.745a6.123 6.123 0 0 1-.514-2.609c-.007-3.158 1.61-5.236 6.572-5.236Zm.025 10.514a14.76 14.76 0 0 1-1.81-.104l7.91-7.812c.372.83.55 1.73.521 2.636.003 3.07-1.475 5.281-6.621 5.281v-.001Z" fill="#394149" opacity=".7"/><g opacity=".7" fill="#394149"><path d="M887.981 45.722h4.363v21.517h-4.363V45.722ZM894.874 59.867a7.84 7.84 0 0 1 1.302-4.344 7.771 7.771 0 0 1 3.482-2.883 7.724 7.724 0 0 1 4.488-.45 7.755 7.755 0 0 1 3.98 2.134 7.83 7.83 0 0 1 2.129 3.999 7.855 7.855 0 0 1-.439 4.515 7.804 7.804 0 0 1-2.861 3.508 7.73 7.73 0 0 1-4.315 1.317 7.666 7.666 0 0 1-5.512-2.257 7.758 7.758 0 0 1-2.254-5.54Zm11.139 0a3.405 3.405 0 0 0-.61-1.861 3.377 3.377 0 0 0-1.532-1.211 3.367 3.367 0 0 0-3.646.79 3.403 3.403 0 0 0 .55 5.196 3.36 3.36 0 0 0 1.865.567 3.265 3.265 0 0 0 2.445-.997 3.313 3.313 0 0 0 .928-2.484ZM927.943 52.494v14.013c0 4.959-3.853 7.05-7.751 7.05a7.453 7.453 0 0 1-3.966-.805 7.506 7.506 0 0 1-2.97-2.763l3.752-2.18a3.348 3.348 0 0 0 1.352 1.435 3.328 3.328 0 0 0 1.92.423 2.889 2.889 0 0 0 2.46-.745 2.944 2.944 0 0 0 .913-2.415v-1.36a5.178 5.178 0 0 1-1.91 1.472 5.15 5.15 0 0 1-2.365.444 7.423 7.423 0 0 1-5.265-2.193 7.513 7.513 0 0 1-2.181-5.296c0-1.986.785-3.891 2.181-5.296a7.423 7.423 0 0 1 5.265-2.193 5.193 5.193 0 0 1 2.363.449A5.225 5.225 0 0 1 923.653 54v-1.463l4.29-.044Zm-4.29 7.08a3.585 3.585 0 0 0-.526-2.021 3.555 3.555 0 0 0-1.56-1.379 3.53 3.53 0 0 0-3.915.678 3.588 3.588 0 0 0-.837 3.906c.264.66.718 1.226 1.304 1.625.587.4 1.278.613 1.986.614a3.296 3.296 0 0 0 2.529-.92 3.332 3.332 0 0 0 1.019-2.503ZM930.459 59.867a7.84 7.84 0 0 1 1.302-4.344 7.771 7.771 0 0 1 3.482-2.883 7.723 7.723 0 0 1 4.488-.45 7.755 7.755 0 0 1 3.98 2.134 7.847 7.847 0 0 1 1.689 8.514 7.8 7.8 0 0 1-2.859 3.508 7.735 7.735 0 0 1-4.316 1.317 7.64 7.64 0 0 1-5.512-2.256 7.758 7.758 0 0 1-2.254-5.54Zm11.14 0a3.414 3.414 0 0 0-.611-1.861 3.377 3.377 0 0 0-1.532-1.211 3.367 3.367 0 0 0-3.646.79 3.403 3.403 0 0 0 .55 5.196c.552.37 1.201.567 1.865.567a3.266 3.266 0 0 0 2.426-1.008 3.304 3.304 0 0 0 .918-2.473h.03ZM948.012 48.545c0-.526.155-1.041.446-1.479a2.65 2.65 0 0 1 1.188-.98 2.63 2.63 0 0 1 2.884.577 2.68 2.68 0 0 1 .574 2.901c-.201.486-.54.902-.975 1.194a2.636 2.636 0 0 1-1.471.45 2.654 2.654 0 0 1-1.867-.785 2.687 2.687 0 0 1-.779-1.878Zm.45 3.95h4.363v14.744h-4.363V52.494ZM971.846 59.866a7.422 7.422 0 0 1-1.884 5.362 7.364 7.364 0 0 1-2.314 1.731 7.323 7.323 0 0 1-2.796.704 5.568 5.568 0 0 1-4.363-1.8v7.314h-4.363V52.494h4.363v1.39a5.569 5.569 0 0 1 1.983-1.387 5.54 5.54 0 0 1 2.38-.413 7.321 7.321 0 0 1 2.793.703A7.404 7.404 0 0 1 971.432 57c.325.919.465 1.893.414 2.866Zm-4.362 0a3.532 3.532 0 0 0-.625-1.916c-.39-.564-.936-1-1.57-1.255a3.47 3.47 0 0 0-3.762.778 3.512 3.512 0 0 0-.951 1.776 3.536 3.536 0 0 0 .177 2.008 3.508 3.508 0 0 0 1.248 1.58c.56.392 1.223.61 1.905.628a3.328 3.328 0 0 0 2.587-.989 3.373 3.373 0 0 0 .962-2.61h.029ZM985.429 62.82c0 3.394-2.908 4.842-6.108 4.842a6.396 6.396 0 0 1-3.683-.785 6.453 6.453 0 0 1-2.614-2.725l3.811-2.18c.154.532.485.995.938 1.312a2.4 2.4 0 0 0 1.548.429c1.062 0 1.585-.337 1.585-.922 0-1.623-7.271-.76-7.271-5.85 0-3.219 2.705-4.842 5.817-4.842a6.416 6.416 0 0 1 3.293.795 6.461 6.461 0 0 1 2.437 2.364l-3.825 2.019a2.178 2.178 0 0 0-.797-.946 2.155 2.155 0 0 0-1.181-.356c-.756 0-1.221.293-1.221.834.058 1.682 7.271.556 7.271 6.012ZM1001.48 52.494V67.24h-4.359v-1.375a5.024 5.024 0 0 1-1.88 1.405 4.987 4.987 0 0 1-2.308.394c-2.909 0-5.483-2.121-5.483-6.114v-9.055h4.363v8.411a2.44 2.44 0 0 0 .684 1.967 2.408 2.408 0 0 0 1.948.71c1.6 0 2.72-.936 2.72-3.028v-8.06h4.315ZM1026.7 58.199v9.04h-4.36v-8.66c0-1.462-.72-2.428-2.11-2.428-1.4 0-2.3 1.039-2.3 2.78v8.308h-4.36v-8.66c0-1.462-.7-2.428-2.11-2.428s-2.28 1.039-2.28 2.78v8.308h-4.37V52.494h4.37v1.36c.45-.6 1.05-1.077 1.74-1.386.68-.31 1.43-.44 2.18-.383.76-.037 1.5.123 2.18.464a4.39 4.39 0 0 1 1.66 1.481 4.822 4.822 0 0 1 1.88-1.523c.74-.34 1.55-.485 2.37-.422 3.31 0 5.51 2.428 5.51 6.114ZM1030.42 52.407c1.8 0 3.26-1.467 3.26-3.277s-1.46-3.277-3.26-3.277c-1.8 0-3.25 1.467-3.25 3.277s1.45 3.277 3.25 3.277ZM937.352 34.56c8.425 0 15.255-6.87 15.255-15.344s-6.83-15.344-15.255-15.344-15.255 6.87-15.255 15.344c0 8.475 6.83 15.344 15.255 15.344ZM971.454 34.56c8.425 0 15.255-6.87 15.255-15.344s-6.83-15.344-15.255-15.344-15.255 6.87-15.255 15.344c0 8.475 6.83 15.344 15.255 15.344ZM918.505 3.872H888.01v30.674h30.495V3.872Z"/></g><g opacity=".7" fill="#394149"><path d="M663.516 30.372h4.961V50.43h-4.961V30.372Zm6.939 12.513c0-4.968 3.091-7.946 7.727-7.946s7.727 2.978 7.727 7.946-2.982 7.976-7.727 7.976-7.727-2.9-7.727-7.976Zm10.54 0c0-2.731-1.067-4.336-2.767-4.336s-2.751 1.543-2.751 4.336c0 2.792 1.051 4.32 2.751 4.32s2.798-1.528 2.798-4.305l-.031-.015Zm6.892 8.578h4.791a2.568 2.568 0 0 0 2.689 1.543c1.901 0 2.89-1.018 2.89-2.53v-2.778h.016a4.74 4.74 0 0 1-4.636 2.7c-3.632 0-6.043-2.761-6.043-7.513s2.303-7.715 6.182-7.715a4.75 4.75 0 0 1 4.636 2.916h-.139v-2.792h4.914V50.32c0 3.626-3.214 5.894-7.943 5.894-4.297-.015-7.047-1.975-7.326-4.737l-.031-.015Zm10.386-8.578c0-2.423-1.113-3.95-2.875-3.95-1.761 0-2.843 1.543-2.843 3.95s1.066 3.826 2.843 3.826c1.778 0 2.875-1.311 2.875-3.826Zm6.877 0c0-4.968 3.091-7.946 7.727-7.946 4.637 0 7.728 2.978 7.728 7.946s-2.998 7.976-7.728 7.976c-4.729 0-7.696-2.9-7.696-7.976h-.031Zm10.54 0c0-2.731-1.082-4.336-2.766-4.336-1.685 0-2.751 1.543-2.751 4.336 0 2.792 1.051 4.32 2.751 4.32s2.797-1.528 2.797-4.305l-.031-.015Zm6.924-11.248a2.523 2.523 0 0 1 1.487-2.413 2.537 2.537 0 0 1 3.522 1.77 2.527 2.527 0 0 1-2.475 3.066 2.447 2.447 0 0 1-2.303-1.47 2.44 2.44 0 0 1-.2-.937l-.031-.016Zm0 3.641h5.023v15.213h-4.946l-.077-15.213Zm23.089 7.607c0 4.952-2.226 7.822-6.012 7.822a4.737 4.737 0 0 1-4.636-2.823h-.093v7.498h-4.961V35.325h4.93v2.715h.093a4.767 4.767 0 0 1 1.854-2.197 4.782 4.782 0 0 1 2.782-.734c3.895-.031 6.136 2.823 6.136 7.791l-.093-.015Zm-5.054 0c0-2.407-1.128-3.965-2.874-3.965-1.747 0-2.844 1.542-2.859 3.965-.016 2.422 1.112 3.95 2.859 3.95 1.746 0 2.967-1.435 2.967-3.935l-.093-.015Zm13.523-7.961c4.157 0 6.738 1.959 6.769 5.106h-4.528c0-1.095-.912-1.774-2.272-1.774-1.36 0-2.009.525-2.009 1.312 0 .786.572 1.033 1.715 1.265l3.184.648c3.091.648 4.327 1.882 4.327 4.18 0 3.087-2.859 5.185-7.109 5.185s-7.016-2.037-7.217-5.138h4.806c.139 1.126 1.036 1.79 2.489 1.79 1.452 0 2.132-.463 2.132-1.28 0-.818-.463-.957-1.653-1.204l-2.875-.602c-2.983-.632-4.544-2.19-4.544-4.52.093-3.024 2.69-4.953 6.878-4.953l-.093-.015Zm23.8 15.552h-4.806V47.62h-.093a4.35 4.35 0 0 1-1.661 2.36 4.366 4.366 0 0 1-2.775.803 5.308 5.308 0 0 1-4.012-1.641 5.288 5.288 0 0 1-1.443-4.083v-9.766h4.961v8.702c0 1.79.943 2.761 2.488 2.761a2.54 2.54 0 0 0 2.417-1.83 2.55 2.55 0 0 0 .071-1.07v-8.563h4.946l-.093 15.182Zm2.395-15.198h4.822v2.932h.108A4.415 4.415 0 0 1 789.64 35a3.959 3.959 0 0 1 4.235 3.225h.216A4.637 4.637 0 0 1 798.727 35a4.829 4.829 0 0 1 3.655 1.47 4.809 4.809 0 0 1 1.337 3.7V50.49h-4.992v-9.057c0-1.542-.726-2.406-2.132-2.406a2.168 2.168 0 0 0-2.107 1.532 2.187 2.187 0 0 0-.072.92v9.011h-4.729v-9.103c0-1.543-.758-2.36-2.118-2.36a2.213 2.213 0 0 0-2.128 1.554c-.094.3-.122.617-.082.93v8.979h-4.961l-.031-15.213ZM653.702 31.684c0-3.071-.929-6.07-2.665-8.605a15.266 15.266 0 0 0-7.065-5.601 15.294 15.294 0 0 0-16.79 3.9h-19.287v40.638h40.722V43.024a15.22 15.22 0 0 0 5.085-11.34Zm-7.836 0a7.433 7.433 0 0 1-4.587 6.881 7.461 7.461 0 0 1-8.124-1.602 7.425 7.425 0 0 1-1.621-8.106 7.439 7.439 0 0 1 2.743-3.34 7.46 7.46 0 0 1 9.402.918 7.428 7.428 0 0 1 2.187 5.249Zm-5.084 22.51H615.73V29.2h7.635c-.148.82-.226 1.65-.232 2.484a15.259 15.259 0 0 0 4.481 10.785 15.312 15.312 0 0 0 10.803 4.474 14.976 14.976 0 0 0 2.365-.201v7.452Z"/></g><g opacity=".7" fill="#394149"><path d="M1161.17 31.9c.55 0 .74.201.74.741v12.22h6.29c.54 0 .74.2.74.74v1.08c0 .54-.2.74-.74.74h-8.28c-.55 0-.76-.2-.76-.74v-14.04c0-.54.21-.74.76-.74h1.25ZM1174.43 37.285c0-3.564 2.25-5.709 6.18-5.709 3.92 0 6.18 2.145 6.18 5.709v4.752c0 3.564-2.27 5.708-6.18 5.708-3.91 0-6.18-2.144-6.18-5.708v-4.752Zm9.76 0c0-2.006-1.25-3.086-3.5-3.086-2.26 0-3.5 1.096-3.5 3.086v4.783c0 2.02 1.24 3.085 3.5 3.085 2.25 0 3.5-1.11 3.5-3.085v-4.783ZM1205.2 38.92c.6 0 .74.2.74.74v2.932c.02.69-.12 1.376-.41 2.006-.28.63-.7 1.189-1.23 1.636a6.742 6.742 0 0 1-4.64 1.45c-4 0-6.18-2.145-6.18-5.709v-4.783c0-3.517 2.26-5.677 6.18-5.677 3.1 0 5.1 1.218 5.95 3.656a.622.622 0 0 1 .01.594.626.626 0 0 1-.19.237.668.668 0 0 1-.28.126l-1.2.416c-.53.186-.75.078-.93-.462a3.234 3.234 0 0 0-1.33-1.578 3.208 3.208 0 0 0-2.03-.428c-2.27 0-3.5 1.095-3.5 3.085v4.907c0 2.02 1.25 3.086 3.5 3.086 2.26 0 3.65-1.034 3.65-2.546v-1.142h-3.35c-.56 0-.76-.216-.76-.756v-1.05c0-.54.2-.74.76-.74h5.24ZM1212.32 37.285c0-3.564 2.26-5.709 6.18-5.709 3.93 0 6.19 2.145 6.19 5.709v4.752c0 3.564-2.28 5.708-6.19 5.708-3.91 0-6.18-2.144-6.18-5.708v-4.752Zm9.75 0c0-2.006-1.25-3.086-3.49-3.086s-3.51 1.096-3.51 3.086v4.783c0 2.02 1.25 3.085 3.51 3.085s3.49-1.11 3.49-3.085v-4.783ZM1231.96 32.348c0-.34.11-.448.45-.448h.71c.34 0 .42.108.42.448v14.626c0 .34 0 .448-.42.448h-.71c-.34 0-.45-.108-.45-.448V32.348ZM1247.62 31.9a4.848 4.848 0 0 1 4.85 4.845 4.848 4.848 0 0 1-4.85 4.845h-4.64v5.384c0 .34-.07.448-.4.448h-.72c-.33 0-.45-.108-.45-.448V32.348c0-.34.12-.448.45-.448h5.76Zm-.14 8.162c.44 0 .88-.087 1.29-.256.41-.169.78-.417 1.09-.729.32-.312.56-.683.73-1.091.17-.408.26-.846.26-1.287 0-.442-.09-.88-.26-1.288a3.262 3.262 0 0 0-.73-1.09c-.31-.313-.68-.56-1.09-.73a3.394 3.394 0 0 0-1.29-.256h-4.64v6.727h4.64ZM1264.54 31.591c1.2-.131 2.4.125 3.44.73a5.6 5.6 0 0 1 2.31 2.634c.13.247 0 .447-.25.57l-.68.31c-.27.107-.38.092-.55-.202a4.183 4.183 0 0 0-1.72-1.96 4.222 4.222 0 0 0-2.55-.57c-2.61 0-4.03 1.034-4.03 2.885-.02.566.17 1.118.53 1.555.37.437.87.729 1.43.821.83.271 1.69.437 2.57.494 1.05.056 2.09.27 3.09.633.76.24 1.42.735 1.85 1.4.44.667.64 1.463.56 2.256 0 2.885-2.1 4.629-5.97 4.629a5.592 5.592 0 0 1-5.92-3.75.527.527 0 0 1-.04-.176.37.37 0 0 1 .04-.178.337.337 0 0 1 .11-.146c.04-.04.1-.07.16-.086l.68-.246a.404.404 0 0 1 .33.008c.06.025.1.06.14.104.04.044.07.095.08.15.35.871.96 1.61 1.76 2.11.79.5 1.73.733 2.66.667 2.92 0 4.36-1.018 4.36-3.086a2.287 2.287 0 0 0-.47-1.511c-.33-.432-.8-.733-1.34-.85-.8-.237-1.62-.382-2.45-.431l-1.67-.216c-.53-.111-1.04-.25-1.55-.417-.5-.151-.97-.397-1.37-.725-.41-.37-.74-.827-.95-1.336-.21-.51-.31-1.06-.29-1.61.11-2.7 2.13-4.46 5.7-4.46ZM1278.87 42.145a4.245 4.245 0 0 0 1.34 2.865c.8.75 1.85 1.167 2.95 1.167 1.09 0 2.15-.417 2.94-1.167a4.3 4.3 0 0 0 1.35-2.865v-9.797c0-.34.1-.448.44-.448h.72c.34 0 .44.108.44.448v9.782c0 3.502-2.07 5.615-5.88 5.615-3.82 0-5.89-2.113-5.89-5.615v-9.782c0-.34.11-.448.43-.448h.73c.32 0 .43.108.43.448v9.797ZM1310.38 31.9c.34 0 .45.108.45.447v14.627c0 .34-.11.447-.45.447h-.65c-.32 0-.43-.108-.43-.447v-8.902c0-1.296.09-2.59.26-3.873h-.09a27.242 27.242 0 0 1-1.69 3.41l-3.32 5.847a.539.539 0 0 1-.51.34h-.43a.556.556 0 0 1-.31-.092.578.578 0 0 1-.22-.248l-3.37-5.909a25.728 25.728 0 0 1-1.54-3.363h-.09c.15 1.295.24 2.598.24 3.903v8.887c0 .34-.1.447-.44.447h-.61c-.34 0-.45-.108-.45-.447V32.347c0-.339.11-.447.45-.447h.56c.13-.012.25.016.36.08.12.063.2.16.26.275l5.41 9.596 5.37-9.504c.17-.324.27-.37.61-.37l.63-.077ZM1133.67 45.076v11.155c0 .428-.17.838-.47 1.14-.3.303-.71.472-1.14.472-.43 0-.84-.17-1.14-.472a1.588 1.588 0 0 1-.48-1.14v-11.14c.45.329.99.512 1.55.525.61.018 1.2-.173 1.68-.54Zm13.76-3.224c-.41 0-.8.162-1.09.452-.29.289-.46.681-.46 1.09v1.945c0 .427.17.837.48 1.14.3.302.71.472 1.14.472.43 0 .84-.17 1.14-.472.3-.303.47-.713.47-1.14v-1.867a1.59 1.59 0 0 0-.1-.649 1.534 1.534 0 0 0-.37-.546 1.542 1.542 0 0 0-1.21-.425Zm-20.49 7.452c-.56-.017-1.1-.2-1.55-.525v11.186c0 .43.17.842.48 1.145.3.304.71.475 1.14.475.43 0 .85-.17 1.15-.474.3-.304.48-.716.48-1.146V48.856a2.84 2.84 0 0 1-1.7.448Zm15.45-10.8a1.58 1.58 0 0 0-.62.094c-.19.073-.37.185-.52.33-.15.144-.28.317-.36.51-.08.192-.12.4-.12.609v8.593c0 .43.17.842.47 1.146.31.304.72.474 1.15.474.43 0 .84-.17 1.15-.474.3-.304.47-.716.47-1.146v-8.485c.02-.223-.02-.446-.1-.653a1.677 1.677 0 0 0-.37-.549 1.558 1.558 0 0 0-1.23-.418l.08-.031Zm-5.13 3.302a2.819 2.819 0 0 1-1.62-.525v11.217c0 .43.17.841.47 1.145.31.304.72.474 1.15.474.43 0 .84-.17 1.15-.474.3-.304.47-.716.47-1.145V41.296a2.74 2.74 0 0 1-1.7.54l.08-.03Zm-13.83 8.593V19.064a1.483 1.483 0 0 0-.43-1.016c-.28-.268-.64-.42-1.03-.42h-.34c-.38 0-.75.152-1.02.42-.27.269-.42.634-.43 1.016v31.335c0 .385.15.754.43 1.026.27.272.64.425 1.02.425h.34a1.464 1.464 0 0 0 1.46-1.45Zm3.68-2.283h-.34a1.464 1.464 0 0 1-1.46-1.45V22.797c.01-.381.16-.746.43-1.015.28-.269.64-.42 1.03-.42h.34c.38 0 .75.151 1.02.42s.42.634.43 1.015v23.9c0 .384-.15.753-.43 1.025-.27.272-.64.425-1.02.425v-.031Zm5.11-3.672h-.35a1.433 1.433 0 0 1-1.44-1.435V26.5c0-.19.03-.378.1-.553.07-.176.18-.336.31-.471.14-.135.3-.242.47-.315.18-.073.37-.111.56-.111h.35c.38.004.75.159 1.02.43.27.272.42.638.42 1.02V43.01a1.43 1.43 0 0 1-1.44 1.435Zm5.12-3.78h-.33a1.45 1.45 0 0 1-1.45-1.435v-8.887c-.01-.198.01-.397.08-.583.07-.187.17-.358.31-.503.14-.145.3-.26.48-.338.19-.079.38-.12.58-.119h.34c.39 0 .76.153 1.03.425s.42.64.42 1.026v8.948c.01.192-.03.382-.1.56-.07.177-.18.34-.32.476-.13.136-.29.244-.47.318-.18.074-.37.112-.56.112h-.01Zm5.13-3.317h-.34a1.464 1.464 0 0 1-1.46-1.45v-2.3c.01-.382.16-.746.44-1.015.27-.269.63-.42 1.02-.42h.34a1.45 1.45 0 0 1 1.45 1.435v2.3a1.448 1.448 0 0 1-1.44 1.45h-.01Z"/></g></svg>