<svg width="1930" height="1297" fill="none" xmlns="http://www.w3.org/2000/svg"><path d="M150 444.782s254.778 80.192 425.5 78.25C836.283 520.067 975.5 386 1254.5 386 1490 386 1590 501.621 1590 501.621V1012s-222.5-80.976-453.5-80.976-236 80.976-561 80.976S150 931.024 150 931.024V444.782Z" fill="#F4F8FB"/><path d="M1412.74 996.192c-51.65-37.966-91.19-98.606-87.03-154.36 4.17-55.754 52.2-107.218 103.81-133.471 51.34-26.201 105.99-27.138 149.45-10.655 43.47 16.483 75.81 50.658 78.3 83.126 2.21 32.522-25.17 63.285-41.17 110.39-16.27 47.159-20.55 110.828-54.63 134.738-33.75 24.14-97.35 8.25-148.73-29.768Z" fill="url('#paint0_linear_507_1473')"/><path opacity=".3" d="M1432.22 998.854v-.001c-51.58-37.913-90.98-98.407-86.83-153.919 4.14-55.511 52.01-106.851 103.54-133.063v-.001c51.21-26.136 105.71-27.064 149.05-10.632 21.66 8.217 40.55 20.84 54.32 35.444 13.78 14.608 22.42 31.165 23.65 47.251 1.09 16.115-5.14 31.829-13.71 49.472a923.765 923.765 0 0 1-5.85 11.761c-7.29 14.517-15.31 30.488-21.59 48.959-4.07 11.812-7.39 24.653-10.61 37.627-.5 1.997-.99 3.997-1.49 5.997-2.71 11.001-5.43 22.001-8.54 32.482-7.36 24.795-16.91 46.539-33.8 58.389-16.72 11.95-40.89 14.03-67.36 8.34-26.46-5.69-55.14-19.13-80.78-38.106Z" stroke="#fff"/><path d="M1590 389s-254.78 75.442-425.5 73.5c-260.783-2.966-394.5-134-673.5-134-199.5 0-341 150.5-341 150.5v457s-14 146.5 422 45.5 267.5 23 592.5 23 425.5-80.975 425.5-80.975V389Z" fill="url('#paint1_linear_507_1473')"/><path d="M102.018 1126.35c-51.505-77.72-75.116-180.337-41.495-254.382 33.622-74.045 124.998-120.251 208.626-130.24 83.232-10.052 158.32 16.049 209.416 60.336 51.096 44.287 78.137 107.157 65.256 152.736-13.277 45.52-66.079 73.8-111.524 130.11-45.841 56.24-83.595 141.03-142.11 156.61-58.181 16.05-137.06-37.51-188.169-115.17Z" fill="url('#paint2_linear_507_1473')"/><path opacity=".3" d="M127.088 1139.87h-.001c-51.456-77.65-74.977-180.078-41.456-253.903 33.521-73.822 124.692-119.971 208.23-129.95 83.094-10.035 158.041 16.024 209.029 60.217 25.495 22.098 44.982 48.827 56.487 75.703 11.508 26.881 15.015 53.871 8.616 76.517-6.598 22.618-23.026 40.986-43.565 60.786-4.455 4.3-9.103 8.66-13.882 13.14-17.232 16.17-36.176 33.94-53.984 56.01-11.476 14.08-22.442 29.94-33.342 46.04-1.677 2.48-3.353 4.96-5.029 7.45-9.219 13.66-18.44 27.32-27.945 40.08-22.479 30.17-46.458 55.13-75.535 62.87h-.004c-28.898 7.97-63.013-1.33-96.337-22.38-33.312-21.05-65.76-53.8-91.282-92.58Z" stroke="#fff"/><path d="M1545.23 131.341c-57.73 8.769-105.38 47.761-151.97 97.928-46.35 50.453-91.82 111.273-92.35 184.525-.52 73.252 44.19 158.699 101.83 167.852 58.16 9.201 128.73-57.942 211.49-100.463 82.47-42.285 176.85-59.711 199.83-108.16 22.45-48.499-25.98-127.97-84.51-178.34-58.24-50.606-126.3-72.347-184.32-63.342Z" fill="url('#paint3_linear_507_1473')"/><path opacity=".3" d="M1539.04 182.621c-57.56 8.741-105.11 47.621-151.68 97.774-46.34 50.446-91.69 111.141-92.21 184.188-.26 36.532 10.76 76.119 29.03 107.709 18.28 31.604 43.76 55.103 72.37 59.645 28.88 4.569 60.92-9.816 96.19-30.772 12.55-7.46 25.51-15.752 38.87-24.299 24.1-15.417 49.5-31.662 76.12-45.343 27.51-14.101 56.36-25.449 83.42-36.093 13.52-5.321 26.6-10.466 38.84-15.69 18.38-7.846 34.87-15.872 48.2-24.952 13.33-9.079 23.46-19.191 29.15-31.192 11.12-24.033 4.72-55.841-11.88-88.027-16.58-32.161-43.28-64.572-72.5-89.722l-.01-.001c-58.15-50.533-126.07-72.203-183.91-63.225Z" stroke="#fff"/><defs><linearGradient id="paint0_linear_507_1473" x1="1586.58" y1="1032.2" x2="1447.65" y2="744.641" gradientUnits="userSpaceOnUse"><stop stop-color="#3BABF1"/><stop offset="1" stop-color="#3BABF1" stop-opacity="0"/></linearGradient><linearGradient id="paint1_linear_507_1473" x1="1590" y1="672.759" x2="150.036" y2="683.972" gradientUnits="userSpaceOnUse"><stop stop-color="#3741D8"/><stop offset="1" stop-color="#3BB0F2"/></linearGradient><linearGradient id="paint2_linear_507_1473" x1="321.346" y1="1262.63" x2="275.722" y2="800.351" gradientUnits="userSpaceOnUse"><stop offset=".05" stop-color="#FFE061"/><stop offset="1" stop-color="#FFB546" stop-opacity="0"/></linearGradient><linearGradient id="paint3_linear_507_1473" x1="1779.45" y1="233.779" x2="1342.57" y2="399.402" gradientUnits="userSpaceOnUse"><stop offset=".05" stop-color="#3848DA"/><stop offset="1" stop-color="#3848DA" stop-opacity="0"/></linearGradient></defs></svg>