<svg width="1576" height="951" fill="none" xmlns="http://www.w3.org/2000/svg"><path d="M53 279.488S103.5 88.56 388 90.008c284.5 1.448 499.5 156.583 726.5 189.48 227 32.898 378.5 0 378.5 0v387.64s-106.5 115.353-313.5 123.306c-207 7.953-321.5-87.505-487.5-87.508-166-.002-356 173.211-519.5 155.851C60.18 846.852 53 810.686 53 810.686V279.488Z" fill="url('#paint0_linear_507_1543')"/><path d="M228.977 181.1c57.995 71.408 151.788 115.323 149.998 143.172-1.432 28.206-98.447 40.703-161.095 37.132-62.648-3.57-90.571-22.85-121-37.489-30.072-14.638-62.648-24.278-81.264-52.484-18.257-28.206-22.553-74.264-1.79-137.46C34.947 71.131 81.128-8.845 115.137.795c34.009 9.997 56.204 108.897 113.84 180.305Z" fill="url('#paint1_linear_507_1543')"/><path opacity=".3" d="m230.588 244.414.001.001c28.438 35.016 65.464 63.423 95.596 86.54l1.906 1.462c15.244 11.699 28.587 22.012 38.009 31.137 4.711 4.562 8.422 8.808 10.898 12.765 2.478 3.959 3.692 7.585 3.478 10.921l-.001.007c-.342 6.752-6.428 12.706-16.687 17.781-10.217 5.053-24.386 9.137-40.499 12.236-32.22 6.195-72.095 8.424-103.381 6.641-53.113-3.027-81.188-17.354-107.105-30.58-4.594-2.344-9.119-4.653-13.705-6.859-5.957-2.9-12.015-5.605-18.034-8.293a2197.73 2197.73 0 0 1-4.745-2.124c-7.572-3.402-15.03-6.854-22.128-10.727-14.19-7.745-26.911-17.157-36.156-31.165C-.105 306.131-4.44 260.252 16.3 197.128c10.549-31.384 27.355-67.043 45.759-93.64 9.204-13.301 18.79-24.31 28.171-31.389 9.389-7.084 18.486-10.17 26.767-7.824 8.317 2.446 15.996 10.363 23.751 22.143 7.743 11.762 15.494 27.264 23.999 44.72 1.018 2.091 2.048 4.21 3.089 6.353 16.335 33.619 35.62 73.309 62.751 106.923Z" stroke="#fff"/><path d="M1335.39 677.845c51.04-76.532 65.23-179.121 92.36-185.654 27.37-6.981 68.02 81.988 83.15 142.886 15.13 60.898 4.98 93.276.01 126.675-5.09 33.056-4.65 67.027-26.08 93.157-21.54 25.788-64.26 43.524-130.77 42.396-66.28-1.575-156.34-22.014-157.2-57.352-.52-35.444 87.38-85.918 138.53-162.108Z" fill="url('#paint2_linear_507_1543')"/><path opacity=".3" d="M1331.81 636.124v-.002c25.03-37.528 41.2-81.303 54.36-116.927.28-.755.56-1.506.84-2.253 6.66-18.024 12.56-33.821 18.49-45.522 2.96-5.85 5.92-10.652 8.96-14.188 3.05-3.539 6.16-5.772 9.41-6.555v-.001c6.55-1.671 14.04 2.379 21.93 10.677 7.85 8.263 15.94 20.588 23.67 35.062 15.46 28.943 29.39 66.371 36.94 96.782 12.83 51.63 7.46 82.687 2.5 111.358-.88 5.082-1.75 10.088-2.5 15.121-1.01 6.549-1.8 13.136-2.58 19.681l-.63 5.161c-1 8.24-2.09 16.385-3.69 24.311-3.2 15.847-8.43 30.784-19.07 43.761-21.4 25.622-63.94 43.341-130.37 42.215-33.1-.786-72.14-6.285-102.99-15.992-15.43-4.854-28.79-10.752-38.32-17.618-9.55-6.871-15.19-14.647-15.4-23.252-.13-8.668 5.16-18.346 14.12-29.241 8.94-10.877 21.46-22.869 35.61-36.159l5.16-4.832c27.27-25.554 59.48-55.723 83.56-91.587Z" stroke="#fff"/><defs><linearGradient id="paint0_linear_507_1543" x1="1800.5" y1="949" x2="-128.426" y2="76.57" gradientUnits="userSpaceOnUse"><stop stop-color="#3741D8"/><stop offset="1" stop-color="#3BB0F2"/></linearGradient><linearGradient id="paint1_linear_507_1543" x1="131.449" y1="-6.113" x2="209.814" y2="316.281" gradientUnits="userSpaceOnUse"><stop stop-color="#3BABF1"/><stop offset="1" stop-color="#3BABF1" stop-opacity="0"/></linearGradient><linearGradient id="paint2_linear_507_1543" x1="1185.43" y1="826.416" x2="1470.19" y2="656.137" gradientUnits="userSpaceOnUse"><stop offset=".05" stop-color="#FFE061"/><stop offset="1" stop-color="#FFB546" stop-opacity="0"/></linearGradient></defs></svg>