<svg width="1596" height="809" fill="none" xmlns="http://www.w3.org/2000/svg"><path d="M1303.74 163.383c-39.56 50.26-100.36 83.223-102.65 115.206-2.62 32.31 53.29 63.315 99.38 67.884 46.43 4.242 83.04-17.95 120.97-36.553 38.25-18.603 77.48-33.615 105.27-74.084 27.46-40.796 43.15-106.721 16.67-154.043-26.16-46.996-94.16-75.064-137.64-55.482-43.48 19.582-62.11 86.813-102 137.072Z" fill="url('#paint0_linear_504_805')" style="mix-blend-mode:screen" opacity=".5"/><path d="M1189.09 278.661v.009c-.63 7.764 2.25 15.524 7.74 22.917 5.5 7.396 13.58 14.366 23.22 20.503 19.28 12.277 44.63 21.117 67.52 23.387 40.58 3.708 73.59-12.92 106.87-29.687 4.51-2.27 9.02-4.543 13.56-6.768v-.001c4.45-2.165 8.91-4.278 13.35-6.387 33.88-16.062 67.13-31.827 91.53-67.36 13.65-20.275 24.38-46.813 28.4-74.158 4.03-27.348 1.33-55.421-11.77-78.835v-.002c-12.95-23.263-36.29-41.893-61.83-52.267-25.54-10.38-53.12-12.431-74.53-2.79-21.42 9.648-36.81 31.083-51.89 56.63-3.8 6.432-7.58 13.124-11.43 19.939-11.37 20.15-23.36 41.382-38.3 60.214-16.46 20.913-36.6 38.846-54.62 54.899-3.7 3.302-7.32 6.524-10.8 9.677-10.21 9.258-19.21 17.9-25.8 26.203-6.59 8.313-10.67 16.177-11.22 23.877Z" stroke="#fff" stroke-width="2" style="mix-blend-mode:screen" opacity=".3"/><path d="M1202.26 582.383c39.56 50.26 100.36 83.223 102.65 115.206 2.62 32.31-53.29 63.315-99.38 67.884-46.43 4.242-83.04-17.95-120.97-36.553-38.25-18.603-77.48-33.615-105.266-74.084-27.462-40.796-43.154-106.721-16.673-154.043 26.154-46.996 94.159-75.064 137.639-55.482 43.48 19.582 62.11 86.813 102 137.072Z" fill="url('#paint1_linear_504_805')" style="mix-blend-mode:screen" opacity=".5"/><path d="M1314.91 697.661v.009c.63 7.764-2.25 15.524-7.74 22.917-5.5 7.396-13.58 14.366-23.22 20.503-19.28 12.277-44.63 21.117-67.52 23.387-40.58 3.708-73.59-12.92-106.87-29.687-4.51-2.27-9.02-4.543-13.56-6.768v-.001c-4.45-2.165-8.91-4.278-13.35-6.387-33.88-16.062-67.13-31.827-91.529-67.36-13.647-20.275-24.379-46.813-28.403-74.158-4.024-27.348-1.327-55.421 11.776-78.835l.001-.002c12.946-23.263 36.285-41.893 61.825-52.267 25.54-10.38 53.12-12.431 74.53-2.789 21.42 9.647 36.81 31.082 51.89 56.628 3.8 6.434 7.58 13.125 11.43 19.94 11.37 20.15 23.36 41.382 38.3 60.214 16.46 20.913 36.6 38.846 54.62 54.899 3.7 3.302 7.32 6.524 10.8 9.677 10.21 9.258 19.21 17.9 25.8 26.203 6.59 8.313 10.67 16.177 11.22 23.877Z" stroke="#fff" stroke-width="2" style="mix-blend-mode:screen" opacity=".3"/><path d="M78.713 572.947c-12.25-34.615-19.48-83.473 3.31-115.461 22.947-31.87 75.795-46.713 124.484-37.29 48.532 9.305 92.588 42.639 112.37 85.625 19.782 42.986 15.289 95.624-5.929 137.676-21.217 42.052-58.844 73.754-93.057 72.983-34.093-.93-64.457-34.097-88.314-61.143-23.699-26.928-40.733-47.617-52.864-82.39Z" fill="#FFB546" style="mix-blend-mode:screen" opacity=".15"/><path d="m76.657 551.618-.002-.004c-6.1-17.237-10.94-37.998-11.427-58.406-.487-20.415 3.384-40.386 14.61-56.142 11.308-15.702 30.037-27.277 52.056-33.75 22.012-6.471 47.234-7.819 71.423-3.138h.002c48.236 9.248 92.012 42.387 111.65 85.061 19.632 42.661 15.192 94.977-5.913 136.807-10.551 20.911-25.175 39.233-41.388 52.221-16.223 12.995-33.958 20.591-50.752 20.213-16.731-.457-32.637-8.83-47.399-20.561-14.756-11.726-28.257-26.715-40.189-40.243-23.684-26.911-40.607-47.478-52.671-82.058Z" stroke="#fff" stroke-width="2" style="mix-blend-mode:screen" opacity=".3"/><circle cx="1027.95" cy="217.947" r="42.947" transform="rotate(68.546 1027.95 217.947)" fill="url('#paint2_linear_504_805')"/><defs><linearGradient id="paint0_linear_504_805" x1="1660" y1="-90" x2="1344" y2="244" gradientUnits="userSpaceOnUse"><stop stop-color="#FFB546"/><stop offset="1" stop-color="#FFB546" stop-opacity="0"/></linearGradient><linearGradient id="paint1_linear_504_805" x1="910.5" y1="405" x2="1226" y2="693.5" gradientUnits="userSpaceOnUse"><stop stop-color="#FFB546"/><stop offset="1" stop-color="#FFB546" stop-opacity="0"/></linearGradient><linearGradient id="paint2_linear_504_805" x1="985" y1="217.947" x2="1070.89" y2="218.267" gradientUnits="userSpaceOnUse"><stop stop-color="#3741D8"/><stop offset="1" stop-color="#3BB0F2"/></linearGradient></defs></svg>