<svg width="1853" height="1533" fill="none" xmlns="http://www.w3.org/2000/svg"><path d="M1674.28 47.004c-40.6-5.199-80.23 11.9-121.28 36.728-40.96 25.068-83.32 57.285-97.77 106.522-14.45 49.236-.76 115.387 36.33 132.637 37.43 17.384 97.92-14.266 161.89-26.988 63.73-12.617 130.7-6.202 155.51-34.415 24.47-28.347 7.13-91.188-22.63-136.371-29.52-45.287-71.21-73.02-112.05-78.113Z" fill="url('#paint0_linear_507_911')"/><path opacity=".3" d="M1660.22 80.5c-40.43-5.176-79.92 11.841-120.97 36.66-40.94 25.063-83.14 57.195-97.54 106.235-7.2 24.528-7.39 53.284-1.16 78.05 6.23 24.784 18.87 45.459 37.22 53.993 18.53 8.607 42.85 5.098 70.65-2.235 9.89-2.607 20.22-5.698 30.87-8.884 19.22-5.75 39.48-11.812 60.06-15.906 21.26-4.209 42.91-6.305 63.2-8.27 10.14-.982 19.94-1.931 29.19-3.095 13.9-1.749 26.55-3.981 37.26-7.529 10.72-3.548 19.47-8.398 25.59-15.36 12.08-13.993 13.89-36.589 8.9-61.445-4.98-24.829-16.73-51.776-31.58-74.322v-.002c-29.46-45.192-71.03-72.818-111.69-77.89Z" stroke="#fff"/><path d="M1386.31 1189.61c28.18-72.98 86.95-138.95 153.94-151.87 67-12.92 142.98 27.21 190.42 79.61 47.29 52.1 65.88 116.17 60.38 172.65-5.5 56.47-35.4 105.5-72.85 118.8-37.59 13-82.59-9.42-143.18-13.2-60.75-4.08-137.11 11.22-176.18-21.27-39.22-32.04-40.87-112.04-12.53-184.72Z" fill="url('#paint1_linear_507_911')"/><path opacity=".3" d="M1370.77 1163.79h.01c28.15-72.9 86.81-138.68 153.57-151.56 66.76-12.873 142.57 27.12 189.95 79.46 47.19 51.99 65.74 115.93 60.25 172.26-2.74 28.16-11.57 54.47-24.37 75.38-12.81 20.91-29.56 36.4-48.14 43-18.66 6.45-39.19 4.12-62.71-.33-5.1-.96-10.34-2.03-15.73-3.12-19.43-3.95-40.8-8.3-64.55-9.78-15.21-1.02-31.39-.83-47.71-.48-2.51.06-5.02.12-7.53.17-13.83.32-27.65.64-41 .33-31.56-.75-60.25-5.05-79.65-21.18-19.46-15.89-29.65-43.74-31.42-76.76-1.77-33.01 4.89-71.1 19.03-107.39Z" stroke="#fff"/><path d="M364.427 1358.47c-63.996 45.01-149.514 67.18-212.389 40.68-62.876-26.5-103.733-102.09-114.04-172.02-10.348-69.59 9.811-133.19 45.776-177.08 35.965-43.89 88.07-68.021 126.593-58.266 38.479 10.086 63.42 53.736 111.691 90.566 48.228 37.16 120.207 66.88 134.625 115.61 14.797 48.44-28.303 115.85-92.256 160.51Z" fill="url('#paint2_linear_507_911')"/><path opacity=".3" d="m375.141 1337.06-.002.01c-63.923 44.95-149.255 67.03-211.907 40.62-62.65-26.4-103.446-101.79-113.739-171.63-10.328-69.46 9.793-132.91 45.668-176.69 17.938-21.89 39.896-38.848 62.159-49.114 22.269-10.269 44.805-13.828 63.922-8.988 19.098 5.008 34.87 18.352 51.948 35.122 3.703 3.64 7.466 7.44 11.337 11.35 13.957 14.08 29.306 29.57 48.226 44 12.076 9.31 25.635 18.14 39.39 26.92 2.117 1.35 4.239 2.7 6.361 4.04 11.67 7.42 23.342 14.84 34.258 22.52 25.82 18.16 47.286 37.69 54.442 61.88h.001c7.34 24.03.336 52.84-16.549 81.27-16.878 28.43-43.588 56.39-75.515 78.69Z" stroke="#fff"/><path d="M352.28 152.023c52.867 57.669 85.867 139.621 67.683 205.385-18.183 65.763-87.887 116.013-155.907 135.236-67.683 19.224-133.345 7.42-181.498-22.595C34.405 440.034 3.763 391.47 8.477 352.012c5.05-39.459 45.122-69.811 75.428-122.422 30.642-52.611 50.846-127.817 97.315-148.39 46.133-20.909 118.53 13.153 171.06 70.823Z" fill="url('#paint3_linear_507_911')"/><path opacity=".3" d="m343.911 238.359.001.002c52.807 57.604 85.689 139.383 67.57 204.913-18.119 65.528-87.63 115.691-155.561 134.889h-.001c-67.549 19.186-133.066 7.401-181.098-22.539-24.016-14.97-43.659-34.562-56.706-55.319C5.066 479.544-1.366 457.654.973 438.073c2.508-19.585 13.71-36.943 28.146-56.038 3.13-4.141 6.412-8.362 9.787-12.703 12.169-15.654 25.552-32.869 37.431-53.491 7.673-13.173 14.69-27.756 21.619-42.527 1.066-2.273 2.131-4.551 3.195-6.829 5.855-12.528 11.71-25.058 17.919-36.872 14.687-27.944 31.289-51.745 54.353-61.955l.004-.002c22.884-10.372 52.356-7.136 82.726 5.948 30.358 13.078 61.533 35.965 87.758 64.755Z" stroke="#fff"/><defs><linearGradient id="paint0_linear_507_911" x1="1812.44" y1="161.046" x2="1486.08" y2="188.615" gradientUnits="userSpaceOnUse"><stop offset=".05" stop-color="#3848DA"/><stop offset="1" stop-color="#3848DA" stop-opacity="0"/></linearGradient><linearGradient id="paint1_linear_507_911" x1="1232" y1="1623" x2="1724.57" y2="1183.55" gradientUnits="userSpaceOnUse"><stop offset=".05" stop-color="#FFE061"/><stop offset="1" stop-color="#FFB546" stop-opacity="0"/></linearGradient><linearGradient id="paint2_linear_507_911" x1="473.664" y1="1171.33" x2="87.01" y2="1220.23" gradientUnits="userSpaceOnUse"><stop stop-color="#3BABF1"/><stop offset="1" stop-color="#3BABF1" stop-opacity="0"/></linearGradient><linearGradient id="paint3_linear_507_911" x1="122" y1="-96" x2="223.382" y2="445.449" gradientUnits="userSpaceOnUse"><stop offset=".05" stop-color="#FFE061"/><stop offset="1" stop-color="#FFB546" stop-opacity="0"/></linearGradient></defs></svg>