<svg width="40" height="40" fill="none" xmlns="http://www.w3.org/2000/svg"><circle cx="20" cy="20" r="20" fill="#C4C4C4"/><g clip-path="url('#clip0_507_933')"><path d="M39.402 24.837C36.73 35.556 25.869 42.073 15.164 39.4 4.444 36.729-2.073 25.868.599 15.163 3.272 4.443 14.117-2.073 24.837.6c10.705 2.657 17.237 13.517 14.565 24.238Z" fill="url('#paint0_linear_507_933')"/><path d="M29.522 17.508c.39-2.656-1.625-4.094-4.406-5.047l.906-3.61-2.187-.546-.875 3.515a58.51 58.51 0 0 0-1.766-.406l.875-3.531-2.187-.547-.891 3.594c-.484-.11-.953-.22-1.406-.328v-.016l-3.032-.75-.578 2.344s1.625.375 1.594.39c.89.22 1.047.813 1.016 1.282l-1.032 4.109c.063.016.141.031.235.078-.078-.016-.156-.031-.235-.062l-1.437 5.75c-.11.265-.39.671-1 .515.016.031-1.594-.39-1.594-.39l-1.094 2.515 2.86.719c.531.14 1.047.266 1.562.406l-.906 3.64 2.188.548.906-3.61a148.1 148.1 0 0 0 1.75.453l-.89 3.594 2.187.547.906-3.64c3.75.703 6.563.421 7.734-2.97.953-2.718-.047-4.296-2.015-5.327 1.453-.329 2.531-1.282 2.812-3.22Zm-5.015 7.031c-.672 2.719-5.266 1.25-6.75.875l1.203-4.828c1.484.375 6.265 1.11 5.547 3.953Zm.687-7.078c-.625 2.484-4.437 1.219-5.672.906l1.094-4.375c1.234.313 5.219.89 4.578 3.469Z" fill="#fff"/></g><defs><linearGradient id="paint0_linear_507_933" x1="19.989" y1="-.01" x2="19.989" y2="39.996" gradientUnits="userSpaceOnUse"><stop stop-color="#F9AA4B"/><stop offset="1" stop-color="#F7931A"/></linearGradient><clipPath id="clip0_507_933"><path fill="#fff" d="M0 0h40v40H0z"/></clipPath></defs></svg>