<svg width="529" height="145" fill="none" xmlns="http://www.w3.org/2000/svg"><path d="M37.618 60.332c-12.533 0-35.55 15.764-35.55 15.764v68.835h525.863V23.551s-22.135 9.628-32.196 6.305c-14.183-4.685-27.5-27.166-36.22-27.85-13.415-1.05-9.39 5.78-36.891 5.78-26.159 0-14.395 13.662-40.244 13.662-14.153 0-34.879 11.563-34.879 11.563h-40.915c-19.452 0-23.417 33.99-44.94 31.528-20.861-2.387-20.122-7.885-36.891-7.885-16.401 0-18.928 8.042-35.549 6.306-20.122-2.102-19.452-24.697-46.952-24.697-33.537 0-39.574 27.85-66.403 29.951-19.699 1.543-16.6-7.882-38.233-7.882Z" fill="url('#paint0_linear_507_1016')"/><path d="M2.069 76.57s23.016-15.777 35.55-15.777c21.632 0 18.533 9.432 38.231 7.888 26.83-2.103 32.867-29.974 66.404-29.974 27.5 0 26.83 22.612 46.952 24.716 16.621 1.737 19.148-6.31 35.549-6.31 16.769 0 16.03 5.502 36.891 7.89 21.523 2.465 25.488-31.552 44.94-31.552h40.915S368.227 21.88 382.38 21.88c25.849 0 14.085-13.672 40.244-13.672 27.501 0 23.476-6.836 36.891-5.785 8.72.684 22.037 23.183 36.22 27.871 10.061 3.326 32.196-6.31 32.196-6.31" stroke="#3848DA" stroke-width="4"/><defs><linearGradient id="paint0_linear_507_1016" x1="339.146" y1="24.509" x2="340.1" y2="262.211" gradientUnits="userSpaceOnUse"><stop stop-color="#3741D8" stop-opacity=".41"/><stop offset="1" stop-color="#3BB0F2" stop-opacity=".21"/></linearGradient></defs></svg>