<svg width="72" height="72" fill="none" xmlns="http://www.w3.org/2000/svg"><path d="M43.469 34.754a8.282 8.282 0 0 0 2.56-5.985c0-4.582-3.729-8.31-8.311-8.31h-.64V18.54a.64.64 0 0 0-1.278 0v1.918h-6.393V18.54a.64.64 0 0 0-1.279 0v1.918h-2.557a1.279 1.279 0 1 0 0 2.557h1.279v25.57H25.57a1.279 1.279 0 1 0 0 2.558h2.557v1.918a.64.64 0 0 0 1.279 0v-1.918H35.8v1.918a.64.64 0 0 0 1.278 0v-1.918h4.475c4.583 0 8.311-3.728 8.311-8.31 0-3.923-2.735-7.212-6.395-8.08Zm.002-5.986a5.76 5.76 0 0 1-5.753 5.753h-8.311V23.014h8.31a5.76 5.76 0 0 1 5.754 5.754Zm-1.918 19.818H29.407V37.079h12.146a5.76 5.76 0 0 1 5.754 5.753 5.76 5.76 0 0 1-5.754 5.754Z" fill="#FFB546"/><path d="M35.8 0C16.06 0 0 16.06 0 35.8s16.06 35.8 35.8 35.8 35.8-16.06 35.8-35.8S55.54 0 35.8 0Zm0 69.043c-18.33 0-33.243-14.914-33.243-33.243C2.557 17.47 17.47 2.557 35.8 2.557c18.33 0 33.243 14.913 33.243 33.243 0 18.33-14.914 33.243-33.243 33.243Z" fill="url('#paint0_linear_504_826')"/><path d="M35.8 8.31C20.642 8.31 8.31 20.643 8.31 35.8c0 15.157 12.332 27.489 27.49 27.489 15.157 0 27.489-12.332 27.489-27.49 0-15.157-12.332-27.488-27.49-27.488Zm0 53.7c-14.453 0-26.21-11.757-26.21-26.21 0-14.453 11.757-26.21 26.21-26.21 14.453 0 26.21 11.757 26.21 26.21 0 14.453-11.757 26.21-26.21 26.21Z" fill="#FFB546"/><defs><linearGradient id="paint0_linear_504_826" x1="0" y1="35.8" x2="71.599" y2="36.066" gradientUnits="userSpaceOnUse"><stop stop-color="#FFB848"/><stop offset="1" stop-color="#FFE362"/></linearGradient></defs></svg>