<svg width="30" height="30" fill="none" xmlns="http://www.w3.org/2000/svg"><path d="M18.213 14.562a3.47 3.47 0 0 0 1.073-2.507 3.486 3.486 0 0 0-3.482-3.483h-.268V7.77a.268.268 0 0 0-.536 0v.803h-2.678V7.77a.268.268 0 0 0-.536 0v.803h-1.072a.536.536 0 0 0 0 1.072h.536v10.714h-.536a.536.536 0 0 0 0 1.072h1.072v.803a.268.268 0 1 0 .536 0v-.803H15v.803a.268.268 0 0 0 .536 0v-.803h1.875a3.486 3.486 0 0 0 3.482-3.483 3.486 3.486 0 0 0-2.68-3.385Zm.001-2.508c0 1.33-1.081 2.41-2.41 2.41h-3.482v-4.82h3.482c1.329 0 2.41 1.08 2.41 2.41Zm-.803 8.304h-5.09v-4.822h5.09c1.329 0 2.41 1.082 2.41 2.41 0 1.33-1.081 2.412-2.41 2.412Z" fill="#FFB546"/><path d="M15 0C6.73 0 0 6.73 0 15s6.73 15 15 15 15-6.73 15-15S23.27 0 15 0Zm0 28.929C7.32 28.929 1.071 22.68 1.071 15 1.071 7.32 7.32 1.071 15 1.071c7.68 0 13.929 6.249 13.929 13.929 0 7.68-6.249 13.929-13.929 13.929Z" fill="url('#paint0_linear_507_1037')"/><path d="M15 3.482C8.65 3.482 3.482 8.65 3.482 15c0 6.351 5.167 11.518 11.518 11.518 6.35 0 11.518-5.167 11.518-11.518C26.518 8.65 21.35 3.482 15 3.482Zm0 22.5C8.944 25.982 4.018 21.056 4.018 15 4.018 8.945 8.944 4.018 15 4.018c6.056 0 10.982 4.927 10.982 10.982 0 6.056-4.926 10.982-10.982 10.982Z" fill="#FFB546"/><defs><linearGradient id="paint0_linear_507_1037" x1="0" y1="15" x2="30" y2="15.112" gradientUnits="userSpaceOnUse"><stop stop-color="#FFB848"/><stop offset="1" stop-color="#FFE362"/></linearGradient></defs></svg>