<svg width="43" height="43" fill="none" xmlns="http://www.w3.org/2000/svg"><circle cx="21.103" cy="21.103" r="21.035" fill="#C4C4C4"/><g clip-path="url('#clip0_507_1006')"><path d="M41.509 26.19c-2.81 11.274-14.233 18.128-25.492 15.317C4.742 38.697-2.11 27.274.7 16.017 3.51 4.741 14.916-2.113 26.191.698c11.258 2.794 18.128 14.216 15.318 25.49Z" fill="url('#paint0_linear_507_1006')"/><path d="M31.118 18.482c.411-2.793-1.709-4.305-4.634-5.308l.953-3.796-2.3-.575-.92 3.697a61.496 61.496 0 0 0-1.858-.427l.92-3.714-2.3-.575-.937 3.78c-.51-.115-1.002-.23-1.479-.345v-.017l-3.188-.788-.608 2.465s1.71.394 1.676.41c.937.23 1.101.855 1.069 1.348l-1.085 4.322c.066.016.148.033.246.082a1.37 1.37 0 0 1-.246-.066l-1.512 6.048c-.115.279-.41.706-1.052.542.017.033-1.676-.41-1.676-.41l-1.15 2.645 3.007.756c.559.148 1.101.28 1.643.427l-.953 3.829 2.301.575.953-3.796c.625.164 1.249.329 1.84.477l-.936 3.78 2.3.574.954-3.829c3.944.74 6.902.444 8.134-3.122 1.003-2.86-.05-4.519-2.12-5.604 1.529-.345 2.662-1.347 2.958-3.385Zm-5.275 7.395c-.706 2.86-5.538 1.315-7.099.92l1.265-5.078c1.561.395 6.59 1.167 5.834 4.158Zm.723-7.444c-.657 2.613-4.667 1.282-5.965.953l1.15-4.601c1.298.328 5.489.936 4.815 3.648Z" fill="#fff"/></g><defs><linearGradient id="paint0_linear_507_1006" x1="21.092" y1=".058" x2="21.092" y2="42.133" gradientUnits="userSpaceOnUse"><stop stop-color="#F9AA4B"/><stop offset="1" stop-color="#F7931A"/></linearGradient><clipPath id="clip0_507_1006"><path fill="#fff" transform="translate(.069 .068)" d="M0 0h42.069v42.069H0z"/></clipPath></defs></svg>