<svg width="24" height="39" fill="none" xmlns="http://www.w3.org/2000/svg"><path d="M23.7 19.226v-.06c0-.03 0-.03-.03-.06v-.061c0-.03-.03-.03-.03-.06 0 0 0-.031-.03-.031L12.363.302c-.03-.03-.06-.09-.09-.12h-.031c-.03-.03-.06-.061-.09-.061 0 0-.03 0-.03-.03-.031-.03-.061-.03-.092-.03h-.03C11.941 0 11.911 0 11.85 0c-.06 0-.09 0-.151.03h-.03c-.03 0-.06.03-.091.03 0 0-.03 0-.03.03-.03.03-.06.03-.09.061h-.031a.42.42 0 0 0-.09.121L.09 18.954s0 .03-.03.03c0 .03-.03.03-.03.06v.061c0 .03 0 .03-.031.06v.242c0 .03 0 .03.03.06v.031c.03.06.06.09.09.121l.031.03.09.091s.031 0 .031.03l11.276 6.59h.03c.03.03.06.03.09.03h.03c.061 0 .092.03.152.03s.09 0 .151-.03h.03c.03 0 .06-.03.091-.03h.03l11.246-6.56c.03 0 .03-.03.06-.03l.03-.03.06-.06.031-.03c0-.03.03-.03.03-.061 0-.03.03-.03.03-.06s0-.03.03-.061c0-.03 0-.03.031-.06v-.182Zm-12.454-5.441-9.1 4.141 9.1-15.145v11.004Zm0 1.33v9.673l-9.311-5.441 9.31-4.232Zm1.209 0 9.31 4.232-9.31 5.441v-9.673Zm0-1.33V2.78l9.099 15.145-9.1-4.141Z" fill="url('#paint0_linear_504_621')"/><path d="m22.763 21.766-10.913 6.56-10.913-6.56a.6.6 0 0 0-.756.12.637.637 0 0 0-.06.756l11.245 15.78.03.03c.03.03.03.06.061.06l.03.031c.03.03.06.03.06.06 0 0 .031 0 .031.03.03 0 .06.031.09.031h.03c.031 0 .092.03.122.03.06 0 .09 0 .12-.03h.031c.03 0 .06-.03.09-.03 0 0 .03 0 .03-.03.031 0 .061-.03.061-.06l.03-.031.061-.06.03-.03 11.246-15.78c.15-.243.15-.545-.06-.756-.212-.212-.424-.242-.696-.121Zm-11.518 7.587v6.832l-8.464-11.88 8.464 5.048Zm1.21 6.832v-6.832l8.464-5.078-8.464 11.91Z" fill="url('#paint1_linear_504_621')"/><defs><linearGradient id="paint0_linear_504_621" x1="0" y1="13.21" x2="23.7" y2="13.29" gradientUnits="userSpaceOnUse"><stop stop-color="#3741D8"/><stop offset="1" stop-color="#3BB0F2"/></linearGradient><linearGradient id="paint1_linear_504_621" x1=".024" y1="30.188" x2="23.625" y2="30.31" gradientUnits="userSpaceOnUse"><stop stop-color="#3741D8"/><stop offset="1" stop-color="#3BB0F2"/></linearGradient></defs></svg>