<svg width="40" height="40" fill="none" xmlns="http://www.w3.org/2000/svg"><path d="M39.892 20c0 10.988-8.907 19.895-19.895 19.895C9.01 39.895.103 30.987.103 20S9.01.105 19.997.105C30.985.105 39.892 9.013 39.892 20Z" fill="#6374C3"/><path d="m19.933 10.769-.123.417v12.12l.123.123 5.626-3.326-5.626-9.334Z" fill="#fff"/><path d="m19.933 10.769-5.626 9.334 5.626 3.326v-12.66ZM19.933 25.258l-.07.085v4.317l.07.202 5.629-7.927-5.63 3.323Z" fill="#fff"/><path d="M19.933 29.862v-4.604l-5.626-3.323 5.626 7.927ZM19.933 23.43l5.626-3.326-5.626-2.557v5.882Z" fill="#fff"/><path d="m14.307 20.104 5.626 3.325v-5.882l-5.626 2.557Z" fill="#fff"/></svg>