<svg width="25" height="20" fill="none" xmlns="http://www.w3.org/2000/svg"><path d="M24.4 2.396c-.902.4-1.856.666-2.832.786A5.054 5.054 0 0 0 23.74.394a9.715 9.715 0 0 1-3.132 1.228A4.888 4.888 0 0 0 17.812.071a4.82 4.82 0 0 0-3.14.523 4.99 4.99 0 0 0-2.17 2.38 5.147 5.147 0 0 0-.294 3.242 13.716 13.716 0 0 1-5.618-1.53A14.035 14.035 0 0 1 2.068.946a5.204 5.204 0 0 0-.082 4.919c.381.73.933 1.354 1.606 1.813a4.774 4.774 0 0 1-2.232-.626v.061a5.11 5.11 0 0 0 1.125 3.18 4.9 4.9 0 0 0 2.835 1.734 4.62 4.62 0 0 1-1.32.209 5.751 5.751 0 0 1-.924-.086c.317.998.93 1.87 1.753 2.496a4.858 4.858 0 0 0 2.843.992A9.72 9.72 0 0 1 1.6 17.8a9.313 9.313 0 0 1-1.2-.073 13.651 13.651 0 0 0 7.548 2.272c1.848.02 3.68-.338 5.392-1.051a13.886 13.886 0 0 0 4.574-3.105 14.264 14.264 0 0 0 3.045-4.675 14.532 14.532 0 0 0 1.04-5.517v-.65a10.26 10.26 0 0 0 2.4-2.605Z" fill="#FFB546"/></svg>