<svg width="29" height="20" fill="none" xmlns="http://www.w3.org/2000/svg"><path d="M28.393 7.049a11.141 11.141 0 0 0-1.157-5.34A3.702 3.702 0 0 0 25.048.416a98.058 98.058 0 0 0-10.646-.4A98.17 98.17 0 0 0 3.794.402a3.63 3.63 0 0 0-1.857.957C.793 2.433.665 4.269.538 5.82a63.464 63.464 0 0 0 0 8.378c.037.874.165 1.74.382 2.586.153.653.464 1.258.903 1.759a3.618 3.618 0 0 0 1.895 1.008c2.742.344 5.505.487 8.268.427 4.451.064 8.356 0 12.973-.362a3.643 3.643 0 0 0 1.946-1.009 3.23 3.23 0 0 0 .776-1.293c.455-1.418.678-2.903.662-4.396.05-.723.05-5.094.05-5.87Zm-16.865 6.645V5.691l7.53 4.021c-2.112 1.19-4.897 2.534-7.53 3.982Z" fill="#FFB546"/></svg>