<svg width="26" height="27" viewBox="0 0 26 27" fill="none" xmlns="http://www.w3.org/2000/svg">
<path d="M18.9196 12.6404L13.661 7.38179C13.561 7.28604 13.443 7.21098 13.3139 7.16092C13.0579 7.05573 12.7707 7.05573 12.5146 7.16092C12.3855 7.21098 12.2676 7.28604 12.1675 7.38179L6.90891 12.6404C6.81085 12.7385 6.73307 12.8549 6.67999 12.983C6.62692 13.1111 6.59961 13.2485 6.59961 13.3871C6.59961 13.6672 6.71087 13.9358 6.90891 14.1339C7.10696 14.3319 7.37556 14.4432 7.65564 14.4432C7.93571 14.4432 8.20432 14.3319 8.40236 14.1339L11.8625 10.6632V18.6458C11.8625 18.9247 11.9733 19.1922 12.1706 19.3894C12.3678 19.5867 12.6353 19.6975 12.9143 19.6975C13.1932 19.6975 13.4607 19.5867 13.6579 19.3894C13.8552 19.1922 13.966 18.9247 13.966 18.6458V10.6632L17.4262 14.1339C17.5239 14.2324 17.6402 14.3107 17.7684 14.3641C17.8966 14.4175 18.034 14.445 18.1729 14.445C18.3117 14.445 18.4492 14.4175 18.5773 14.3641C18.7055 14.3107 18.8218 14.2324 18.9196 14.1339C19.0182 14.0361 19.0964 13.9198 19.1498 13.7916C19.2032 13.6634 19.2307 13.526 19.2307 13.3871C19.2307 13.2483 19.2032 13.1108 19.1498 12.9827C19.0964 12.8545 19.0182 12.7382 18.9196 12.6404Z" fill="#FD8589"/>
</svg>
