<svg width="1318" height="79" viewBox="0 0 1318 79" fill="none" xmlns="http://www.w3.org/2000/svg">
<g opacity="0.7">
<path d="M345.749 37.5021C345.162 38.0867 344.712 38.7924 344.432 39.5685C344.152 40.3449 344.048 41.1727 344.128 41.9932L344.1 41.9656C344.183 42.9314 344.051 43.9033 343.714 44.8136C343.378 45.7238 342.845 46.5504 342.152 47.2358C341.459 47.9211 340.623 48.4487 339.703 48.7814C338.783 49.1143 337.801 49.2446 336.824 49.1631L336.852 49.1907C335.685 49.0832 334.512 49.3345 333.493 49.9106C332.475 50.4866 331.662 51.3593 331.163 52.4096C330.665 53.4599 330.506 54.6366 330.709 55.7796C330.911 56.9223 331.465 57.9756 332.295 58.7956C333.124 59.6156 334.19 60.1626 335.345 60.3618C336.5 60.5611 337.69 60.4029 338.751 59.909C339.812 59.4149 340.694 58.6093 341.275 57.6016C341.857 56.5939 342.11 55.4335 342 54.2783L342.029 54.3059C341.947 53.3402 342.078 52.3682 342.415 51.4579C342.751 50.5477 343.285 49.721 343.978 49.0356C344.67 48.3504 345.506 47.8228 346.426 47.49C347.346 47.1572 348.329 47.0268 349.305 47.1084L349.276 47.0808C350.229 47.1656 351.19 47.0109 352.067 46.6309C352.944 46.251 353.711 45.658 354.295 44.9071C354.879 44.1563 355.262 43.2715 355.408 42.3353C355.555 41.3989 355.46 40.4412 355.133 39.5506C354.805 38.6602 354.256 37.8659 353.536 37.2414C352.815 36.6169 351.947 36.1823 351.012 35.9781C350.077 35.7738 349.104 35.8064 348.185 36.0727C347.266 36.3392 346.43 36.8308 345.754 37.5021H345.749Z" fill="#394149"/>
<path d="M334.315 45.575L334.286 45.5474C335.115 45.63 335.953 45.5293 336.739 45.2524C337.524 44.9754 338.238 44.5294 338.828 43.9463C339.418 43.3631 339.869 42.6575 340.15 41.8806C340.43 41.1036 340.533 40.2749 340.45 39.4539L340.479 39.4815C340.397 38.5157 340.529 37.5438 340.865 36.6335C341.202 35.7233 341.735 34.8967 342.428 34.2113C343.12 33.526 343.956 32.9984 344.876 32.6657C345.796 32.3327 346.779 32.2025 347.755 32.284L347.726 32.2564C348.894 32.365 350.067 32.1144 351.085 31.539C352.104 30.9636 352.919 30.0913 353.418 29.0412C353.917 27.9911 354.076 26.8142 353.874 25.6711C353.673 24.528 353.119 23.4743 352.29 22.6537C351.46 21.8332 350.395 21.2858 349.24 21.0861C348.084 20.8864 346.895 21.0442 345.833 21.538C344.771 22.0317 343.89 22.8374 343.308 23.8451C342.726 24.8528 342.473 26.0135 342.583 27.1688L342.555 27.1397C342.637 28.1055 342.506 29.0776 342.17 29.988C341.833 30.8983 341.3 31.7251 340.607 32.4105C339.914 33.0958 339.079 33.6234 338.158 33.9561C337.238 34.2889 336.255 34.4189 335.279 34.3372L335.307 34.3663C334.477 34.2837 333.639 34.3844 332.854 34.6613C332.068 34.9381 331.355 35.3843 330.765 35.9674C330.175 36.5505 329.723 37.2562 329.443 38.0331C329.162 38.8101 329.06 39.6388 329.143 40.4598L329.115 40.4322C329.197 41.3979 329.065 42.3697 328.729 43.2799C328.392 44.1899 327.859 45.0165 327.166 45.7018C326.473 46.387 325.638 46.9145 324.718 47.2475C323.798 47.5804 322.815 47.7109 321.839 47.6296L321.867 47.6572C320.699 47.5487 319.526 47.7992 318.507 48.3747C317.488 48.9502 316.674 49.8223 316.175 50.8725C315.676 51.9227 315.516 53.0995 315.718 54.2426C315.92 55.3857 316.473 56.4394 317.303 57.2599C318.132 58.0805 319.197 58.6279 320.353 58.8276C321.508 59.0272 322.698 58.8694 323.76 58.3757C324.821 57.882 325.703 57.0764 326.285 56.0687C326.866 55.0608 327.12 53.9002 327.01 52.7448L327.039 52.7724C326.957 51.8066 327.089 50.8348 327.425 49.9244C327.761 49.0142 328.295 48.1876 328.988 47.5022C329.68 46.817 330.516 46.2894 331.436 45.9566C332.356 45.6237 333.339 45.4934 334.315 45.575Z" fill="#394149"/>
<path d="M323.927 42.4978C324.515 41.9133 324.964 41.2076 325.244 40.4313C325.524 39.655 325.628 38.827 325.547 38.0066L325.576 38.0342C325.494 37.0682 325.625 36.096 325.962 35.1855C326.299 34.275 326.832 33.4482 327.526 32.7628C328.219 32.0774 329.055 31.55 329.975 31.2173C330.896 30.8846 331.879 30.7548 332.855 30.8368L332.826 30.8092C333.993 30.9174 335.166 30.6667 336.184 30.0913C337.202 29.516 338.016 28.6439 338.515 27.5941C339.014 26.5443 339.173 25.3679 338.972 24.2252C338.77 23.0825 338.216 22.0292 337.387 21.209C336.558 20.3887 335.493 19.8415 334.338 19.6418C333.183 19.4421 331.994 19.5998 330.933 20.0932C329.871 20.5867 328.99 21.3919 328.408 22.3992C327.827 23.4064 327.573 24.5666 327.683 25.7216L327.655 25.694C327.737 26.6597 327.606 27.6317 327.269 28.5419C326.933 29.4522 326.399 30.2788 325.707 30.9641C325.014 31.6495 324.178 32.177 323.258 32.5098C322.338 32.8427 321.355 32.973 320.379 32.8914L320.407 32.919C319.453 32.8344 318.493 32.9894 317.616 33.3695C316.738 33.7496 315.972 34.3427 315.389 35.0938C314.805 35.8446 314.422 36.7294 314.275 37.6656C314.129 38.602 314.224 39.5598 314.552 40.45C314.879 41.3404 315.429 42.1345 316.149 42.7589C316.869 43.3834 317.737 43.8178 318.672 44.0221C319.608 44.2261 320.58 44.1935 321.499 43.9271C322.418 43.6607 323.254 43.1691 323.93 42.4978H323.927Z" fill="#394149"/>
<path d="M371.941 27.2041H376.545V49.3654H371.941V27.2041Z" fill="#394149"/>
<path d="M379.152 41.7768C379.146 40.1843 379.617 38.6255 380.507 37.2982C381.397 35.971 382.665 34.9348 384.15 34.321C385.636 33.707 387.272 33.5431 388.852 33.8499C390.431 34.1567 391.883 34.9203 393.024 36.0443C394.165 37.1681 394.943 38.6016 395.259 40.1631C395.576 41.7247 395.416 43.344 394.802 44.816C394.187 46.2879 393.145 47.5464 391.807 48.4318C390.468 49.3173 388.895 49.79 387.285 49.79C386.216 49.8021 385.156 49.6032 384.166 49.2052C383.176 48.8071 382.276 48.2179 381.519 47.4719C380.761 46.7258 380.162 45.8378 379.756 44.86C379.349 43.8822 379.144 42.834 379.152 41.7768ZM390.814 41.7768C390.795 41.0903 390.572 40.4247 390.172 39.8631C389.773 39.3015 389.215 38.8688 388.568 38.6194C387.921 38.3697 387.215 38.3142 386.536 38.4599C385.858 38.6056 385.238 38.9457 384.754 39.438C384.27 39.9302 383.943 40.5527 383.815 41.2277C383.686 41.9025 383.762 42.5999 384.032 43.2326C384.302 43.8652 384.755 44.4049 385.333 44.7844C385.912 45.1639 386.591 45.3663 387.285 45.3663C387.76 45.3789 388.233 45.2938 388.674 45.1166C389.114 44.9393 389.513 44.6737 389.845 44.3365C390.176 43.9992 390.434 43.5976 390.6 43.1571C390.767 42.7166 390.84 42.2466 390.814 41.7768Z" fill="#394149"/>
<path d="M413.765 34.1869V48.6002C413.765 53.7001 409.744 55.856 405.663 55.856C404.226 55.9624 402.787 55.6752 401.505 55.0261C400.222 54.3769 399.144 53.3908 398.391 52.176L402.318 49.9296C402.635 50.5629 403.14 51.0853 403.765 51.4271C404.39 51.7687 405.106 51.9135 405.817 51.8417C406.271 51.904 406.733 51.8644 407.17 51.7259C407.606 51.5875 408.006 51.3537 408.339 51.0419C408.672 50.73 408.93 50.3482 409.093 49.9244C409.257 49.5008 409.322 49.0461 409.284 48.5941V47.2064C408.745 47.8589 408.059 48.3773 407.281 48.72C406.502 49.0627 405.654 49.2202 404.803 49.1798C402.778 49.1167 400.858 48.2767 399.448 46.8375C398.039 45.3985 397.251 43.4732 397.251 41.4695C397.251 39.4657 398.039 37.5405 399.448 36.1014C400.858 34.6622 402.778 33.8223 404.803 33.7591C405.654 33.7188 406.502 33.8763 407.281 34.219C408.059 34.5617 408.745 35.0801 409.284 35.7325V34.1838L413.765 34.1869ZM409.286 41.4718C409.317 40.7379 409.125 40.0116 408.735 39.3864C408.345 38.7611 407.775 38.2657 407.098 37.9638C406.421 37.6617 405.668 37.5671 404.937 37.692C404.205 37.8168 403.528 38.1553 402.992 38.6642C402.457 39.173 402.087 39.8287 401.931 40.5469C401.776 41.2651 401.841 42.013 402.119 42.6943C402.396 43.3756 402.874 43.9592 403.489 44.3698C404.105 44.7804 404.831 44.9994 405.573 44.9984C406.057 45.0319 406.542 44.9647 406.998 44.8013C407.454 44.6378 407.87 44.3816 408.22 44.0495C408.57 43.7172 408.845 43.3162 409.029 42.8722C409.212 42.4283 409.3 41.9512 409.286 41.4718Z" fill="#394149"/>
<path d="M416.372 41.7768C416.366 40.1843 416.837 38.6255 417.727 37.2982C418.617 35.971 419.884 34.9348 421.37 34.321C422.856 33.707 424.492 33.5431 426.071 33.8499C427.651 34.1567 429.103 34.9203 430.244 36.0443C431.385 37.1681 432.163 38.6016 432.479 40.1631C432.796 41.7247 432.636 43.344 432.022 44.816C431.407 46.2879 430.365 47.5464 429.027 48.4318C427.688 49.3173 426.115 49.79 424.505 49.79C423.436 49.8021 422.376 49.6032 421.386 49.2052C420.396 48.8071 419.496 48.2179 418.739 47.4719C417.981 46.7258 417.382 45.8378 416.976 44.86C416.569 43.8822 416.364 42.834 416.372 41.7768ZM428.034 41.7768C428.015 41.0903 427.792 40.4247 427.392 39.8631C426.993 39.3015 426.435 38.8688 425.788 38.6194C425.141 38.3697 424.434 38.3142 423.756 38.4599C423.078 38.6056 422.458 38.9457 421.974 39.438C421.49 39.9302 421.163 40.5527 421.035 41.2277C420.906 41.9025 420.982 42.5999 421.252 43.2326C421.522 43.8652 421.975 44.4049 422.553 44.7844C423.132 45.1639 423.811 45.3663 424.505 45.3663C424.98 45.3789 425.453 45.2938 425.894 45.1166C426.334 44.9393 426.733 44.6737 427.065 44.3365C427.396 43.9992 427.654 43.5976 427.82 43.1571C427.987 42.7166 428.06 42.2466 428.034 41.7768Z" fill="#394149"/>
<path d="M434.785 30.1191C434.785 29.5787 434.947 29.0504 435.25 28.6011C435.554 28.1517 435.985 27.8015 436.49 27.5947C436.994 27.3879 437.55 27.3338 438.086 27.4392C438.621 27.5447 439.114 27.8049 439.5 28.187C439.886 28.5692 440.149 29.056 440.256 29.5861C440.362 30.1161 440.308 30.6655 440.099 31.1648C439.89 31.664 439.536 32.0908 439.081 32.3911C438.627 32.6913 438.093 32.8515 437.547 32.8515C436.817 32.8443 436.118 32.5542 435.602 32.0433C435.085 31.5324 434.792 30.8416 434.785 30.1191ZM435.25 34.1871H439.855V49.3671H435.243L435.25 34.1871Z" fill="#394149"/>
<path d="M459.732 41.7771C459.785 42.7804 459.637 43.7841 459.297 44.7306C458.957 45.6771 458.43 46.5478 457.749 47.2925C457.067 48.0371 456.243 48.6412 455.325 49.0699C454.407 49.4985 453.412 49.7434 452.397 49.7903C451.544 49.8363 450.691 49.694 449.901 49.3737C449.11 49.0532 448.402 48.5629 447.826 47.938V55.4376H443.223V34.1871H447.826V35.6131C448.402 34.9887 449.11 34.4987 449.901 34.1787C450.692 33.8585 451.544 33.7164 452.397 33.7624C453.412 33.8091 454.407 34.0538 455.326 34.4826C456.244 34.9113 457.068 35.5154 457.75 36.2603C458.432 37.0052 458.958 37.8761 459.298 38.823C459.638 39.7697 459.785 40.7737 459.732 41.7771ZM455.128 41.7771C455.11 41.0667 454.881 40.3773 454.469 39.7951C454.057 39.2131 453.48 38.7641 452.811 38.5047C452.143 38.2451 451.411 38.1863 450.709 38.336C450.007 38.4855 449.365 38.8366 448.863 39.3454C448.362 39.8543 448.023 40.498 447.889 41.1964C447.756 41.8947 447.834 42.6163 448.113 43.2712C448.392 43.9261 448.86 44.4848 449.459 44.8778C450.057 45.2706 450.76 45.4802 451.478 45.4801C451.971 45.5019 452.463 45.4201 452.923 45.2404C453.382 45.0609 453.797 44.7872 454.142 44.4376C454.486 44.0878 454.752 43.6701 454.922 43.2117C455.092 42.7532 455.163 42.2642 455.128 41.7771Z" fill="#394149"/>
<path d="M473.938 44.8113C473.938 48.3027 470.87 49.79 467.556 49.79C466.217 49.91 464.873 49.63 463.697 48.9858C462.52 48.3418 461.566 47.3635 460.958 46.1775L464.946 43.9312C465.108 44.4793 465.454 44.9564 465.928 45.2822C466.402 45.6082 466.975 45.7635 467.55 45.7221C468.654 45.7221 469.207 45.3878 469.207 44.7822C469.207 43.1108 461.657 43.9925 461.657 38.7408C461.657 35.4304 464.481 33.7621 467.673 33.7621C468.872 33.7245 470.06 34.0061 471.112 34.5772C472.165 35.1486 473.043 35.9885 473.656 37.0097L469.728 39.1042C469.556 38.7067 469.269 38.3679 468.903 38.1304C468.538 37.8929 468.11 37.7672 467.673 37.7687C466.874 37.7687 466.383 38.0754 466.383 38.6182C466.389 40.3493 473.938 39.1947 473.938 44.8113Z" fill="#394149"/>
<path d="M490.754 34.1875V49.3675H486.15V47.94C485.618 48.5699 484.944 49.0662 484.182 49.3882C483.419 49.7102 482.591 49.8487 481.764 49.7922C478.664 49.7922 476.029 47.6072 476.029 43.5056V34.1875H480.632V42.8386C480.593 43.2001 480.635 43.5657 480.755 43.9096C480.872 44.2537 481.066 44.568 481.32 44.8307C481.574 45.0933 481.883 45.298 482.225 45.4307C482.566 45.5633 482.934 45.6206 483.301 45.5986C484.989 45.5986 486.155 44.628 486.155 42.4721V34.1921L490.754 34.1875Z" fill="#394149"/>
<path d="M517.15 40.0463V49.3659H512.546V40.4404C512.546 38.9224 511.81 37.9518 510.338 37.9518C508.803 37.9518 507.943 39.0144 507.943 40.8053V49.3659H503.341V40.4404C503.341 38.9224 502.605 37.9518 501.131 37.9518C499.596 37.9518 498.738 39.0144 498.738 40.8053V49.3659H494.134V34.1859H498.738V35.5812C499.215 34.9622 499.841 34.4713 500.559 34.1534C501.278 33.8354 502.065 33.7006 502.85 33.7612C503.637 33.723 504.421 33.8875 505.127 34.2385C505.83 34.5893 506.43 35.115 506.869 35.7637C507.379 35.0849 508.055 34.5452 508.833 34.195C509.611 33.8447 510.466 33.6956 511.319 33.7612C514.842 33.7627 517.15 36.2513 517.15 40.0463Z" fill="#394149"/>
<path d="M521.044 34.0939C522.93 34.0939 524.46 32.5808 524.46 30.7144C524.46 28.848 522.93 27.335 521.044 27.335C519.157 27.335 517.627 28.848 517.627 30.7144C517.627 32.5808 519.157 34.0939 521.044 34.0939Z" fill="#394149"/>
</g>
<g opacity="0.7">
<path d="M117.025 49.992H109.11V29.0998H117.025V49.992ZM109.883 49.2288H116.252V29.8629H109.883V49.2288ZM128.039 49.992H120.283V29.0998H136.489C138.81 28.9142 141.122 29.5576 143.004 30.913C143.814 31.6446 144.442 32.551 144.838 33.5616C145.235 34.5722 145.39 35.6596 145.29 36.739C145.406 38.6041 144.805 40.4436 143.607 41.8903C142.189 43.496 139.83 44.3232 136.595 44.3522C135.781 44.3736 129.675 44.3522 128.044 44.3522L128.039 49.992ZM121.051 49.2288H127.266V43.5814H127.654C127.733 43.5814 135.66 43.6059 136.577 43.5814C139.59 43.5555 141.756 42.8183 143.022 41.379C144.089 40.0701 144.618 38.4136 144.506 36.7374C144.602 35.7703 144.47 34.7946 144.121 33.8859C143.773 32.9772 143.217 32.16 142.497 31.4976C140.752 30.2614 138.618 29.6812 136.478 29.8614H121.056L121.051 49.2288ZM134.847 39.6588H127.214V33.9718H134.898C135.442 33.8975 135.997 33.9602 136.511 34.1542C137.024 34.3482 137.48 34.6671 137.835 35.0814C138.158 35.6109 138.31 36.2246 138.271 36.8412C138.3 37.4138 138.175 37.9836 137.908 38.4927C137.541 38.929 137.067 39.2649 136.531 39.4681C135.995 39.6713 135.415 39.7348 134.847 39.6527V39.6588ZM127.987 38.8957H134.847C136.114 38.8957 136.9 38.6347 137.248 38.0974C137.439 37.7069 137.526 37.2743 137.5 36.8412C137.534 36.3865 137.434 35.9318 137.212 35.5317L137.203 35.5179C136.835 34.9837 136.104 34.7349 134.898 34.7349H127.987V38.8957ZM159.398 50.3003C152.456 50.3003 148.313 48.5984 146.734 45.0986C146.476 44.4226 146.301 43.7185 146.212 43.0014L146.144 42.5619H154.403L154.457 42.8824C154.52 43.2078 154.661 43.5141 154.865 43.7768C155.191 44.166 156.28 44.8193 159.891 44.8193C164.233 44.8193 164.233 44.0668 164.233 43.6623C164.233 42.9801 163.73 42.7465 160.19 42.3741L159.517 42.3115C158.184 42.1879 156.499 42.0307 155.729 41.9651C149.236 41.3851 146.337 39.3932 146.337 35.5088C146.337 31.4289 151.27 28.793 158.906 28.793C165.135 28.793 169.149 30.4139 170.833 33.6146C171.232 34.3591 171.501 35.1653 171.626 35.9987L171.68 36.4276H163.412L163.378 36.0827C163.345 35.8131 163.229 35.5602 163.044 35.3592C162.734 34.9501 161.757 34.274 158.724 34.274C155 34.274 154.486 34.7441 154.486 35.2508C154.486 35.927 155.663 36.1666 159.434 36.565C161.006 36.6917 163.534 36.9481 164.4 37.0519C169.843 37.6349 172.272 39.5779 172.272 43.354C172.274 46.5211 170.04 50.3003 159.398 50.3003ZM147.047 43.325C147.124 43.8284 147.257 44.3217 147.444 44.7964C148.882 47.9849 152.793 49.5371 159.398 49.5371C164.921 49.5371 171.505 48.4687 171.505 43.354C171.505 40.0068 169.356 38.3492 164.318 37.8104C163.452 37.7067 160.939 37.4518 159.37 37.3235C155.35 36.8931 153.716 36.6642 153.716 35.2508C153.716 33.7886 155.477 33.5108 158.727 33.5108C161.295 33.5108 162.954 33.9687 163.657 34.8921C163.849 35.1196 163.994 35.382 164.084 35.6644H170.785C170.65 35.0741 170.437 34.504 170.151 33.9687C168.605 31.0397 164.828 29.5561 158.909 29.5561C151.744 29.5561 147.113 31.8929 147.113 35.5088C147.113 38.9582 149.712 40.6616 155.8 41.205C156.573 41.2706 158.257 41.4278 159.593 41.553L160.27 41.6155C163.558 41.9574 165.009 42.1711 165.009 43.6623C165.009 45.268 163.133 45.5824 159.894 45.5824C156.898 45.5824 155.006 45.1383 154.274 44.2637C154.049 43.9848 153.879 43.6663 153.773 43.325H147.047ZM186.96 50.2743C178.889 50.2743 174.436 47.0523 174.436 41.2004V29.0998H182.247V41.2004C182.247 43.2075 184.067 44.3583 187.238 44.3583C190.268 44.3583 192.15 43.1571 192.15 41.2263V29.0998H199.88V41.8414C199.888 47.2003 195.174 50.2743 186.955 50.2743H186.96ZM175.21 29.8629V41.2004C175.21 48.4321 182.566 49.5112 186.96 49.5112C191.502 49.5112 199.119 48.5145 199.119 41.8414V29.8629H192.935V41.2263C192.935 43.5921 190.702 45.1215 187.25 45.1215C183.642 45.1215 181.486 43.6562 181.486 41.2004V29.8629H175.21ZM232.638 49.992H225.266V40.5593L221.086 49.992H214.656L210.518 40.5777V49.992H203.12V29.0998H212.851L217.907 40.6189L223.207 29.0998H232.647L232.638 49.992ZM226.039 49.2288H231.865V29.8629H223.698L217.882 42.4993L212.338 29.8629H203.887V49.2288H209.739V36.9053L215.15 49.2334H220.561L226.03 36.9237L226.039 49.2288ZM9.35982 29.4813H2.31909V49.6104H21.7746V44.2515H9.35982V29.4813ZM35.9859 29.0234C26.9987 29.0234 22.2724 33.2284 22.2724 39.4024C22.2724 46.3777 27.2337 49.9157 35.9859 49.9157C45.6209 49.9157 49.6731 45.8129 49.6731 39.4024C49.6731 32.8927 45.1015 29.0204 35.9859 29.0204V29.0234ZM35.9597 34.2541C36.5714 34.2513 37.1829 34.2865 37.7902 34.3594L29.9192 42.1299C29.5468 41.2982 29.3651 40.3954 29.3874 39.4863C29.3874 36.3284 30.9984 34.2511 35.9597 34.2511V34.2541ZM35.9859 44.7674C35.3964 44.77 34.8074 44.7373 34.2219 44.6697L42.1068 36.8855C42.4653 37.7034 42.6369 38.5894 42.6092 39.4802C42.6092 42.5527 41.125 44.7643 35.9859 44.7643V44.7674ZM63.6232 42.02H70.8695C70.7628 42.5165 70.5405 42.9816 70.2202 43.3784C68.7179 44.5867 66.8006 45.1746 64.8693 45.0192C63.8971 45.122 62.9141 45.0171 61.9867 44.7118C61.0592 44.4067 60.2089 43.9082 59.4937 43.2502C58.761 42.1893 58.413 40.9151 58.5057 39.6344C58.3871 38.2924 58.7656 36.9534 59.571 35.8659C60.5836 34.7364 62.2982 34.2495 64.8183 34.2495C66.4217 34.1185 68.0231 34.525 69.3637 35.4034C69.7862 35.7348 70.1021 36.1802 70.2727 36.6855H76.9934C76.9446 35.8529 76.7417 35.0361 76.3951 34.2755C74.7857 31.0443 71.0442 29.1211 64.6822 29.1211C59.1489 29.1211 55.4353 30.7879 53.3837 33.3017C52.0287 35.117 51.3331 37.3303 51.4094 39.584C51.3217 41.8888 51.9993 44.1585 53.3388 46.048C55.3657 48.6427 58.9757 49.9187 63.314 49.9187C66.1981 50.1173 69.0626 49.3198 71.4168 47.6628L71.5993 49.6104H77.1821V37.6868H63.6232V42.02ZM93.0275 29.0189C84.0419 29.0189 79.3141 33.2239 79.3141 39.3978C79.3141 46.3731 84.2738 49.9111 93.0275 49.9111C102.664 49.9111 106.716 45.8083 106.716 39.3978C106.716 32.8927 102.145 29.0204 93.0275 29.0204V29.0189ZM93.0028 34.2495C93.5985 34.2478 94.1937 34.2814 94.7854 34.3503L86.9454 42.0948C86.5845 41.2723 86.4089 40.3824 86.4305 39.4863C86.4244 36.3284 88.0415 34.2495 93.0028 34.2495ZM93.0275 44.7628C92.4224 44.7654 91.8178 44.7306 91.2171 44.659L99.1283 36.8473C99.5004 37.6762 99.6785 38.5771 99.6493 39.4833C99.6524 42.5527 98.1744 44.7643 93.0275 44.7643V44.7628Z" fill="#394149"/>
</g>
<g opacity="0.7">
<path d="M887.981 45.7217H892.344V67.2386H887.981V45.7217Z" fill="#394149"/>
<path d="M894.874 59.8667C894.871 58.3213 895.324 56.8096 896.176 55.5231C897.027 54.2367 898.239 53.2332 899.658 52.6398C901.077 52.0464 902.638 51.8896 904.146 52.1893C905.653 52.4891 907.038 53.2318 908.126 54.3237C909.213 55.4155 909.954 56.8073 910.255 58.3228C910.556 59.8384 910.403 61.4097 909.816 62.8379C909.228 64.266 908.233 65.4867 906.955 66.3457C905.678 67.2048 904.176 67.6631 902.64 67.6631C901.618 67.6749 900.604 67.4814 899.658 67.0938C898.711 66.7064 897.851 66.1328 897.128 65.4066C896.405 64.6806 895.833 63.8166 895.446 62.8652C895.059 61.9139 894.864 60.8945 894.874 59.8667ZM906.013 59.8667C905.996 59.1996 905.784 58.5522 905.403 58.0059C905.022 57.4594 904.489 57.0382 903.871 56.7947C903.254 56.5512 902.578 56.4965 901.93 56.6372C901.281 56.7778 900.688 57.1078 900.225 57.5856C899.762 58.0635 899.449 58.6683 899.326 59.3241C899.202 59.9798 899.274 60.6577 899.532 61.2726C899.79 61.8876 900.222 62.4125 900.775 62.7817C901.328 63.1508 901.976 63.3478 902.64 63.348C903.094 63.3609 903.545 63.2789 903.966 63.1073C904.387 62.9357 904.768 62.6782 905.085 62.3511C905.402 62.0239 905.648 61.6343 905.808 61.2068C905.968 60.7791 906.038 60.3229 906.013 59.8667Z" fill="#394149"/>
<path d="M927.943 52.4941V66.5072C927.943 71.4659 924.09 73.5577 920.192 73.5577C918.822 73.6603 917.45 73.3814 916.226 72.7519C915.003 72.1224 913.975 71.1663 913.256 69.9886L917.008 67.8091C917.305 68.4126 917.776 68.9125 918.36 69.2437C918.943 69.5749 919.612 69.7223 920.28 69.6667C920.719 69.7405 921.169 69.7117 921.596 69.5825C922.022 69.4534 922.414 69.2276 922.74 68.9223C923.065 68.617 923.317 68.2404 923.476 67.8217C923.634 67.403 923.695 66.9533 923.653 66.5072V65.1468C923.14 65.7816 922.486 66.2858 921.743 66.6187C921 66.9516 920.19 67.1039 919.378 67.0631C917.403 67.0631 915.509 66.2741 914.113 64.8696C912.717 63.4651 911.932 61.5601 911.932 59.5738C911.932 57.5875 912.717 55.6826 914.113 54.2781C915.509 52.8737 917.403 52.0846 919.378 52.0846C920.19 52.0472 920.999 52.2011 921.741 52.5336C922.483 52.8664 923.138 53.3687 923.653 54.0007V52.538L927.943 52.4941ZM923.653 59.5738C923.682 58.8625 923.499 58.1586 923.127 57.5526C922.755 56.9468 922.212 56.4666 921.567 56.174C920.921 55.8812 920.204 55.7894 919.506 55.9102C918.809 56.0309 918.163 56.3588 917.652 56.8515C917.141 57.3444 916.788 57.9797 916.639 58.6757C916.49 59.3716 916.551 60.0967 916.815 60.7574C917.079 61.4182 917.533 61.9844 918.119 62.3834C918.706 62.7826 919.397 62.996 920.105 62.9967C920.567 63.0295 921.031 62.9647 921.466 62.8063C921.902 62.6478 922.3 62.3995 922.634 62.077C922.968 61.7545 923.232 61.3651 923.407 60.934C923.583 60.5029 923.667 60.0396 923.653 59.5738Z" fill="#394149"/>
<path d="M930.459 59.8667C930.456 58.3213 930.909 56.8096 931.761 55.5231C932.612 54.2367 933.824 53.2332 935.243 52.6398C936.661 52.0464 938.223 51.8896 939.731 52.1893C941.238 52.4891 942.623 53.2318 943.711 54.3237C944.798 55.4155 945.539 56.8073 945.84 58.3228C946.141 59.8384 945.988 61.4097 945.4 62.8379C944.813 64.266 943.818 65.4867 942.541 66.3457C941.263 67.2048 939.761 67.6631 938.225 67.6631C937.203 67.6749 936.189 67.4814 935.242 67.0938C934.296 66.7064 933.436 66.1328 932.713 65.4066C931.99 64.6806 931.418 63.8166 931.031 62.8652C930.644 61.9139 930.449 60.8945 930.459 59.8667ZM941.599 59.8667C941.581 59.1996 941.369 58.5522 940.988 58.0059C940.607 57.4594 940.074 57.0382 939.456 56.7947C938.839 56.5512 938.163 56.4965 937.515 56.6372C936.866 56.7778 936.273 57.1078 935.81 57.5856C935.347 58.0635 935.034 58.6683 934.911 59.3241C934.787 59.9798 934.859 60.6577 935.117 61.2726C935.375 61.8876 935.807 62.4125 936.36 62.7817C936.912 63.1508 937.561 63.3478 938.225 63.348C938.676 63.3567 939.125 63.2718 939.542 63.0983C939.96 62.9248 940.337 62.6667 940.651 62.3401C940.965 62.0135 941.208 61.6252 941.366 61.1997C941.524 60.7742 941.593 60.3203 941.569 59.8667H941.599Z" fill="#394149"/>
<path d="M948.012 48.545C948.012 48.0185 948.167 47.5037 948.458 47.066C948.749 46.6282 949.162 46.287 949.646 46.0855C950.129 45.8839 950.661 45.8313 951.175 45.934C951.688 46.0367 952.16 46.2902 952.53 46.6625C952.9 47.0349 953.152 47.5092 953.254 48.0256C953.356 48.542 953.304 49.0774 953.104 49.5638C952.903 50.0502 952.564 50.4661 952.129 50.7585C951.694 51.051 951.182 51.2071 950.658 51.2071C949.958 51.2034 949.287 50.9216 948.791 50.4232C948.296 49.9249 948.016 49.25 948.012 48.545ZM948.462 52.4944H952.825V67.2389H948.462V52.4944Z" fill="#394149"/>
<path d="M971.846 59.8664C971.899 60.841 971.76 61.8166 971.437 62.7368C971.113 63.6571 970.612 64.504 969.962 65.2286C969.312 65.9532 968.525 66.5414 967.648 66.9592C966.771 67.3769 965.821 67.6161 964.852 67.6629C964.038 67.7021 963.225 67.5614 962.472 67.2505C961.718 66.9396 961.041 66.4663 960.489 65.8637V73.1774H956.126V52.4941H960.489V53.8837C961.041 53.2812 961.718 52.8078 962.472 52.4969C963.225 52.186 964.038 52.0454 964.852 52.0845C965.82 52.1313 966.769 52.37 967.645 52.7869C968.521 53.2039 969.306 53.7906 969.956 54.5137C970.606 55.2368 971.108 56.0818 971.432 57.0004C971.757 57.9189 971.897 58.8929 971.846 59.8664ZM967.484 59.8664C967.466 59.1798 967.249 58.5134 966.859 57.9497C966.469 57.3862 965.923 56.9499 965.289 56.6952C964.655 56.4404 963.961 56.3783 963.292 56.5166C962.623 56.6548 962.009 56.9873 961.527 57.473C961.044 57.9586 960.713 58.5759 960.576 59.2486C960.439 59.9213 960.5 60.6198 960.753 61.2575C961.007 61.8953 961.44 62.4444 962.001 62.8366C962.561 63.229 963.224 63.4474 963.906 63.4647C964.383 63.4952 964.86 63.4227 965.306 63.2524C965.752 63.0818 966.157 62.8172 966.493 62.4765C966.829 62.1355 967.089 61.7263 967.255 61.2761C967.421 60.826 967.489 60.3453 967.455 59.8664H967.484Z" fill="#394149"/>
<path d="M985.429 62.8207C985.429 66.2143 982.521 67.6623 979.321 67.6623C978.043 67.7762 976.76 67.5026 975.638 66.8769C974.516 66.2513 973.606 65.3022 973.024 64.1518L976.835 61.9723C976.989 62.5044 977.32 62.9672 977.773 63.2838C978.225 63.6005 978.771 63.752 979.321 63.7129C980.383 63.7129 980.906 63.3765 980.906 62.7914C980.906 61.1677 973.635 62.0308 973.635 56.9405C973.635 53.7224 976.34 52.0987 979.452 52.0987C980.6 52.0637 981.737 52.338 982.745 52.8936C983.752 53.4491 984.594 54.2656 985.182 55.2582L981.357 57.2769C981.188 56.8906 980.911 56.5619 980.56 56.3308C980.209 56.0996 979.799 55.976 979.379 55.975C978.623 55.975 978.158 56.2676 978.158 56.8088C978.216 58.4909 985.429 57.3646 985.429 62.8207Z" fill="#394149"/>
<path d="M1001.48 52.4941V67.2386H997.121V65.8637C996.613 66.4747 995.969 66.9561 995.241 67.2688C994.514 67.5816 993.722 67.7165 992.933 67.6629C990.024 67.6629 987.45 65.5418 987.45 61.5486V52.4941H991.813V60.905C991.775 61.2635 991.816 61.6259 991.934 61.9662C992.053 62.3066 992.245 62.6161 992.497 62.8724C992.749 63.1288 993.054 63.3253 993.391 63.448C993.728 63.5709 994.088 63.6164 994.445 63.5819C996.045 63.5819 997.165 62.6456 997.165 60.554V52.4941H1001.48Z" fill="#394149"/>
<path d="M1026.7 58.1989V67.2386H1022.34V58.5793C1022.34 57.1166 1021.62 56.151 1020.23 56.151C1018.83 56.151 1017.93 57.1897 1017.93 58.9303V67.2386H1013.57V58.5793C1013.57 57.1166 1012.87 56.151 1011.46 56.151C1010.05 56.151 1009.18 57.1897 1009.18 58.9303V67.2386H1004.81V52.4943H1009.18V53.8546C1009.63 53.2538 1010.23 52.7771 1010.92 52.4681C1011.6 52.1589 1012.35 52.0271 1013.1 52.0847C1013.86 52.0479 1014.6 52.2079 1015.28 52.5486C1015.95 52.8896 1016.52 53.4 1016.94 54.0301C1017.43 53.3713 1018.07 52.8473 1018.82 52.5071C1019.56 52.167 1020.37 52.0215 1021.19 52.0847C1024.5 52.0847 1026.7 54.5128 1026.7 58.1989Z" fill="#394149"/>
<path d="M1030.42 52.4066C1032.22 52.4066 1033.68 50.9396 1033.68 49.13C1033.68 47.3204 1032.22 45.8535 1030.42 45.8535C1028.62 45.8535 1027.17 47.3204 1027.17 49.13C1027.17 50.9396 1028.62 52.4066 1030.42 52.4066Z" fill="#394149"/>
<path d="M937.352 34.5605C945.777 34.5605 952.607 27.6906 952.607 19.2162C952.607 10.7419 945.777 3.87207 937.352 3.87207C928.927 3.87207 922.097 10.7419 922.097 19.2162C922.097 27.6906 928.927 34.5605 937.352 34.5605Z" fill="#394149"/>
<path d="M971.454 34.5605C979.879 34.5605 986.709 27.6906 986.709 19.2162C986.709 10.7419 979.879 3.87207 971.454 3.87207C963.029 3.87207 956.199 10.7419 956.199 19.2162C956.199 27.6906 963.029 34.5605 971.454 34.5605Z" fill="#394149"/>
<path d="M918.505 3.87207H888.01V34.5458H918.505V3.87207Z" fill="#394149"/>
</g>
<g opacity="0.7">
<path d="M663.516 30.3722H668.477V50.4293H663.516V30.3722ZM670.455 42.8847C670.455 37.9167 673.546 34.939 678.182 34.939C682.818 34.939 685.909 37.9167 685.909 42.8847C685.909 47.8527 682.927 50.8613 678.182 50.8613C673.437 50.8613 670.455 47.9607 670.455 42.8847ZM680.995 42.8847C680.995 40.1539 679.928 38.5493 678.228 38.5493C676.528 38.5493 675.477 40.0922 675.477 42.8847C675.477 45.6773 676.528 47.2047 678.228 47.2047C679.928 47.2047 681.026 45.6773 681.026 42.9001L680.995 42.8847ZM687.887 51.463H692.678C692.896 51.9779 693.277 52.4075 693.763 52.686C694.249 52.9647 694.812 53.077 695.367 53.0059C697.268 53.0059 698.257 51.9876 698.257 50.4756V47.6984H698.273C697.864 48.5632 697.201 49.2839 696.374 49.7659C695.546 50.2479 694.592 50.4683 693.637 50.3984C690.005 50.3984 687.594 47.6367 687.594 42.8847C687.594 38.1327 689.897 35.1704 693.776 35.1704C694.756 35.1181 695.728 35.3704 696.558 35.8926C697.388 36.4149 698.036 37.1814 698.412 38.0864H698.273V35.2939H703.187V50.3213C703.187 53.947 699.973 56.215 695.244 56.215C690.947 56.1996 688.197 54.2402 687.918 51.4784L687.887 51.463ZM698.273 42.8847C698.273 40.4624 697.16 38.935 695.398 38.935C693.637 38.935 692.555 40.4779 692.555 42.8847C692.555 45.2916 693.621 46.711 695.398 46.711C697.176 46.711 698.273 45.3996 698.273 42.8847ZM705.15 42.8847C705.15 37.9167 708.241 34.939 712.877 34.939C717.514 34.939 720.605 37.9167 720.605 42.8847C720.605 47.8527 717.607 50.8613 712.877 50.8613C708.148 50.8613 705.181 47.9607 705.181 42.8847H705.15ZM715.69 42.8847C715.69 40.1539 714.608 38.5493 712.924 38.5493C711.239 38.5493 710.173 40.0922 710.173 42.8847C710.173 45.6773 711.224 47.2047 712.924 47.2047C714.624 47.2047 715.721 45.6773 715.721 42.9001L715.69 42.8847ZM722.614 31.6373C722.592 31.1328 722.722 30.6334 722.987 30.2034C723.252 29.7732 723.64 29.4322 724.101 29.2241C724.562 29.0158 725.075 28.9501 725.573 29.0353C726.072 29.1203 726.533 29.3523 726.899 29.7015C727.264 30.0508 727.516 30.501 727.623 30.9945C727.73 31.4881 727.687 32.0023 727.499 32.4709C727.31 32.9396 726.986 33.3414 726.567 33.6245C726.148 33.9076 725.654 34.0591 725.148 34.0596C724.825 34.0678 724.503 34.0117 724.202 33.895C723.901 33.778 723.625 33.6024 723.393 33.3786C723.16 33.1547 722.974 32.8869 722.845 32.5905C722.717 32.2942 722.649 31.9755 722.645 31.6527L722.614 31.6373ZM722.614 35.2784H727.637V50.491H722.691L722.614 35.2784ZM745.703 42.8847C745.703 47.8373 743.477 50.707 739.691 50.707C738.722 50.7667 737.757 50.5279 736.928 50.0231C736.099 49.5181 735.445 48.7713 735.055 47.8836H734.962V55.3819H730.001V35.3247H734.931V38.0401H735.024C735.401 37.135 736.048 36.3677 736.878 35.8431C737.708 35.3186 738.679 35.0621 739.66 35.1087C743.555 35.0779 745.796 37.9321 745.796 42.9001L745.703 42.8847ZM740.649 42.8847C740.649 40.4779 739.521 38.9196 737.775 38.9196C736.028 38.9196 734.931 40.4624 734.916 42.8847C734.9 45.307 736.028 46.8344 737.775 46.8344C739.521 46.8344 740.742 45.3996 740.742 42.9001L740.649 42.8847ZM754.172 34.9236C758.329 34.9236 760.91 36.883 760.941 40.0304H756.413C756.413 38.935 755.501 38.2562 754.141 38.2562C752.781 38.2562 752.132 38.7807 752.132 39.5676C752.132 40.3544 752.704 40.6013 753.847 40.8327L757.031 41.4807C760.122 42.1287 761.358 43.363 761.358 45.6619C761.358 48.7476 758.499 50.8459 754.249 50.8459C749.999 50.8459 747.233 48.8093 747.032 45.7082H751.838C751.977 46.8344 752.874 47.4979 754.327 47.4979C755.779 47.4979 756.459 47.035 756.459 46.2173C756.459 45.3996 755.996 45.2607 754.806 45.0139L751.931 44.4122C748.948 43.7796 747.387 42.2213 747.387 39.8916C747.48 36.8676 750.077 34.939 754.265 34.939L754.172 34.9236ZM777.972 50.4756H773.166V47.6213H773.073C772.804 48.5734 772.218 49.4055 771.412 49.9803C770.605 50.5553 769.627 50.8388 768.637 50.7842C767.891 50.8084 767.146 50.6748 766.455 50.3918C765.764 50.109 765.14 49.6833 764.625 49.1429C764.109 48.6022 763.715 47.959 763.466 47.2555C763.218 46.5519 763.12 45.8037 763.182 45.0602V35.2939H768.143V43.9956C768.143 45.7853 769.086 46.7573 770.631 46.7573C770.994 46.7545 771.351 46.6741 771.68 46.5217C772.01 46.3691 772.302 46.1479 772.537 45.8729C772.773 45.598 772.948 45.2757 773.048 44.9279C773.147 44.58 773.172 44.2148 773.119 43.8567V35.2939H778.065L777.972 50.4756ZM780.367 35.2784H785.189V38.2099H785.297C785.563 37.2707 786.135 36.4464 786.92 35.8656C787.707 35.2851 788.663 34.9808 789.64 35.0007C790.622 34.9156 791.6 35.1988 792.382 35.7951C793.165 36.3915 793.697 37.2581 793.875 38.2253H794.091C794.4 37.2528 795.021 36.4095 795.861 35.8265C796.698 35.2433 797.707 34.953 798.727 35.0007C799.406 34.975 800.083 35.0925 800.712 35.3457C801.342 35.5987 801.911 35.9818 802.382 36.4698C802.854 36.9577 803.215 37.5395 803.446 38.177C803.678 38.8145 803.77 39.4934 803.719 40.1693V50.491H798.727V41.4344C798.727 39.8916 798.001 39.0276 796.595 39.0276C796.283 39.0225 795.973 39.0848 795.688 39.2101C795.402 39.3355 795.148 39.5211 794.941 39.7541C794.734 39.9872 794.579 40.262 794.488 40.5601C794.399 40.8582 794.374 41.1721 794.416 41.4807V50.491H789.687V41.3882C789.687 39.8453 788.929 39.0276 787.569 39.0276C787.254 39.0251 786.942 39.0899 786.654 39.2177C786.365 39.3456 786.109 39.5333 785.899 39.7686C785.69 40.0039 785.534 40.2812 785.441 40.5817C785.347 40.8824 785.319 41.1995 785.359 41.5116V50.491H780.398L780.367 35.2784Z" fill="#394149"/>
<path d="M653.702 31.6836C653.702 28.6129 652.773 25.6136 651.037 23.0788C649.301 20.544 646.838 18.5918 643.972 17.4778C641.105 16.3638 637.969 16.1401 634.973 16.8359C631.977 17.5318 629.261 19.1147 627.182 21.3773H607.895V62.0162H648.617V43.0236C650.216 41.5965 651.495 39.8489 652.371 37.8949C653.247 35.9408 653.7 33.8245 653.702 31.6836ZM645.866 31.6836C645.869 33.155 645.435 34.5944 644.619 35.8194C643.802 37.0443 642.64 37.9999 641.279 38.5651C639.918 39.1304 638.42 39.2799 636.973 38.9946C635.528 38.7095 634.199 38.0024 633.155 36.963C632.112 35.9235 631.401 34.5985 631.112 33.1555C630.824 31.7126 630.97 30.2165 631.534 28.8568C632.097 27.497 633.052 26.3347 634.277 25.5168C635.503 24.699 636.943 24.2625 638.417 24.2625C640.39 24.2625 642.283 25.0439 643.679 26.4351C645.076 27.8264 645.862 29.714 645.866 31.6836ZM640.782 54.1939H615.73V29.1996H623.365C623.217 30.0196 623.139 30.8506 623.133 31.6836C623.137 35.7293 624.748 39.608 627.614 42.4688C630.479 45.3294 634.365 46.9385 638.417 46.9425C639.21 46.9383 640 46.8712 640.782 46.7419V54.1939Z" fill="#394149"/>
</g>
<g opacity="0.7">
<path d="M1161.17 31.9004C1161.72 31.9004 1161.91 32.101 1161.91 32.641V44.8604H1168.2C1168.74 44.8604 1168.94 45.061 1168.94 45.601V46.681C1168.94 47.221 1168.74 47.4215 1168.2 47.4215H1159.92C1159.37 47.4215 1159.16 47.221 1159.16 46.681V32.641C1159.16 32.101 1159.37 31.9004 1159.92 31.9004H1161.17Z" fill="#394149"/>
<path d="M1174.43 37.2847C1174.43 33.7207 1176.68 31.5762 1180.61 31.5762C1184.53 31.5762 1186.79 33.7207 1186.79 37.2847V42.0367C1186.79 45.6007 1184.52 47.7453 1180.61 47.7453C1176.7 47.7453 1174.43 45.6007 1174.43 42.0367V37.2847ZM1184.19 37.2847C1184.19 35.279 1182.94 34.199 1180.69 34.199C1178.43 34.199 1177.19 35.2945 1177.19 37.2847V42.0676C1177.19 44.0887 1178.43 45.1533 1180.69 45.1533C1182.94 45.1533 1184.19 44.0425 1184.19 42.0676V37.2847Z" fill="#394149"/>
<path d="M1205.2 38.9204C1205.8 38.9204 1205.94 39.1209 1205.94 39.6609V42.5924C1205.96 43.2828 1205.82 43.9683 1205.53 44.5982C1205.25 45.2283 1204.83 45.787 1204.3 46.2335C1202.99 47.2757 1201.34 47.7927 1199.66 47.6838C1195.66 47.6838 1193.48 45.5392 1193.48 41.9752V37.1924C1193.48 33.6746 1195.74 31.5146 1199.66 31.5146C1202.76 31.5146 1204.76 32.7335 1205.61 35.1712C1205.66 35.2629 1205.69 35.3642 1205.69 35.4673C1205.69 35.5705 1205.67 35.6726 1205.62 35.7654C1205.58 35.8583 1205.51 35.9394 1205.43 36.0024C1205.35 36.0652 1205.25 36.1082 1205.15 36.1278L1203.95 36.5444C1203.42 36.7295 1203.2 36.6215 1203.02 36.0815C1202.76 35.4226 1202.29 34.8674 1201.69 34.5042C1201.08 34.1411 1200.37 33.9902 1199.66 34.0758C1197.39 34.0758 1196.16 35.1712 1196.16 37.1615V42.0678C1196.16 44.0889 1197.41 45.1535 1199.66 45.1535C1201.92 45.1535 1203.31 44.1198 1203.31 42.6078V41.4661H1199.96C1199.4 41.4661 1199.2 41.2501 1199.2 40.7101V39.6609C1199.2 39.1209 1199.4 38.9204 1199.96 38.9204H1205.2Z" fill="#394149"/>
<path d="M1212.32 37.2847C1212.32 33.7207 1214.58 31.5762 1218.5 31.5762C1222.43 31.5762 1224.69 33.7207 1224.69 37.2847V42.0367C1224.69 45.6007 1222.41 47.7453 1218.5 47.7453C1214.59 47.7453 1212.32 45.6007 1212.32 42.0367V37.2847ZM1222.07 37.2847C1222.07 35.279 1220.82 34.199 1218.58 34.199C1216.34 34.199 1215.07 35.2945 1215.07 37.2847V42.0676C1215.07 44.0887 1216.32 45.1533 1218.58 45.1533C1220.84 45.1533 1222.07 44.0425 1222.07 42.0676V37.2847Z" fill="#394149"/>
<path d="M1231.96 32.3478C1231.96 32.0084 1232.07 31.9004 1232.41 31.9004H1233.12C1233.46 31.9004 1233.54 32.0084 1233.54 32.3478V46.9741C1233.54 47.3135 1233.54 47.4215 1233.12 47.4215H1232.41C1232.07 47.4215 1231.96 47.3135 1231.96 46.9741V32.3478Z" fill="#394149"/>
<path d="M1247.62 31.9004C1248.91 31.9004 1250.14 32.4108 1251.05 33.3194C1251.96 34.2278 1252.47 35.4601 1252.47 36.745C1252.47 38.0299 1251.96 39.2621 1251.05 40.1706C1250.14 41.0792 1248.91 41.5895 1247.62 41.5895H1242.98V46.9741C1242.98 47.3135 1242.91 47.4215 1242.58 47.4215H1241.86C1241.53 47.4215 1241.41 47.3135 1241.41 46.9741V32.3478C1241.41 32.0084 1241.53 31.9004 1241.86 31.9004H1247.62ZM1247.48 40.0621C1247.92 40.0621 1248.36 39.9751 1248.77 39.8061C1249.18 39.637 1249.55 39.3893 1249.86 39.077C1250.18 38.7647 1250.42 38.3938 1250.59 37.9859C1250.76 37.5778 1250.85 37.1404 1250.85 36.6987C1250.85 36.257 1250.76 35.8196 1250.59 35.4115C1250.42 35.0035 1250.18 34.6326 1249.86 34.3204C1249.55 34.0081 1249.18 33.7603 1248.77 33.5912C1248.36 33.4223 1247.92 33.3352 1247.48 33.3352H1242.84V40.0621H1247.48Z" fill="#394149"/>
<path d="M1264.54 31.5912C1265.74 31.4598 1266.94 31.716 1267.98 32.3219C1269.01 32.928 1269.82 33.8512 1270.29 34.9547C1270.42 35.2015 1270.29 35.4021 1270.04 35.5255L1269.36 35.8341C1269.09 35.9421 1268.98 35.9267 1268.81 35.6335C1268.46 34.8146 1267.86 34.128 1267.09 33.6732C1266.32 33.2183 1265.43 33.0187 1264.54 33.1032C1261.93 33.1032 1260.51 34.1369 1260.51 35.9884C1260.49 36.5541 1260.68 37.1065 1261.04 37.5431C1261.41 37.9797 1261.91 38.2715 1262.47 38.3644C1263.3 38.635 1264.16 38.8008 1265.04 38.8581C1266.09 38.9142 1267.13 39.1275 1268.13 39.4907C1268.89 39.7312 1269.55 40.2258 1269.98 40.8917C1270.42 41.5576 1270.62 42.354 1270.54 43.1472C1270.54 46.0324 1268.44 47.7758 1264.57 47.7758C1263.31 47.9205 1262.03 47.6274 1260.95 46.9451C1259.87 46.263 1259.06 45.2329 1258.65 44.0267C1258.63 43.9717 1258.61 43.9114 1258.61 43.85C1258.61 43.7886 1258.62 43.7278 1258.65 43.6718C1258.67 43.6158 1258.71 43.566 1258.76 43.526C1258.8 43.4859 1258.86 43.4567 1258.92 43.4404L1259.6 43.1935C1259.65 43.1716 1259.71 43.1611 1259.77 43.1627C1259.82 43.1642 1259.88 43.1778 1259.93 43.2025C1259.99 43.2271 1260.03 43.2623 1260.07 43.306C1260.11 43.3497 1260.14 43.4006 1260.15 43.4558C1260.5 44.3274 1261.11 45.0664 1261.91 45.5658C1262.7 46.0651 1263.64 46.2988 1264.57 46.2329C1267.49 46.2329 1268.93 45.2147 1268.93 43.1472C1268.96 42.6038 1268.79 42.0683 1268.46 41.636C1268.13 41.2038 1267.66 40.9028 1267.12 40.7867C1266.32 40.5486 1265.5 40.4036 1264.67 40.3547L1263 40.1387C1262.47 40.028 1261.96 39.8889 1261.45 39.7221C1260.95 39.571 1260.48 39.3248 1260.08 38.9969C1259.67 38.6264 1259.34 38.1703 1259.13 37.661C1258.92 37.1517 1258.82 36.6018 1258.84 36.0501C1258.95 33.3501 1260.97 31.5912 1264.54 31.5912Z" fill="#394149"/>
<path d="M1278.87 42.145C1278.93 43.2361 1279.41 44.261 1280.21 45.0104C1281.01 45.7597 1282.06 46.1769 1283.16 46.1769C1284.25 46.1769 1285.31 45.7597 1286.1 45.0104C1286.9 44.261 1287.38 43.2361 1287.45 42.145V32.3478C1287.45 32.0084 1287.55 31.9004 1287.89 31.9004H1288.61C1288.95 31.9004 1289.05 32.0084 1289.05 32.3478V42.1295C1289.05 45.6318 1286.98 47.7455 1283.17 47.7455C1279.35 47.7455 1277.28 45.6318 1277.28 42.1295V32.3478C1277.28 32.0084 1277.39 31.9004 1277.71 31.9004H1278.44C1278.76 31.9004 1278.87 32.0084 1278.87 32.3478V42.145Z" fill="#394149"/>
<path d="M1310.38 31.9001C1310.72 31.9001 1310.83 32.0081 1310.83 32.3475V46.9738C1310.83 47.3132 1310.72 47.4212 1310.38 47.4212H1309.73C1309.41 47.4212 1309.3 47.3132 1309.3 46.9738V38.0715C1309.3 36.7763 1309.39 35.4825 1309.56 34.199H1309.47C1308.99 35.3726 1308.42 36.5118 1307.78 37.6087L1304.46 43.4561C1304.42 43.5576 1304.35 43.6443 1304.26 43.705C1304.17 43.7654 1304.06 43.7971 1303.95 43.7955H1303.52C1303.41 43.7961 1303.3 43.7642 1303.21 43.704C1303.11 43.6437 1303.04 43.5576 1302.99 43.4561L1299.62 37.547C1299.03 36.4659 1298.51 35.3416 1298.08 34.1835H1297.99C1298.14 35.4787 1298.23 36.7822 1298.23 38.087V46.9738C1298.23 47.3132 1298.13 47.4212 1297.79 47.4212H1297.18C1296.84 47.4212 1296.73 47.3132 1296.73 46.9738V32.3475C1296.73 32.0081 1296.84 31.9001 1297.18 31.9001H1297.74C1297.87 31.8884 1297.99 31.916 1298.1 31.9796C1298.22 32.0431 1298.3 32.1394 1298.36 32.2549L1303.77 41.8515L1309.14 32.3475C1309.31 32.0235 1309.41 31.9772 1309.75 31.9772L1310.38 31.9001Z" fill="#394149"/>
<path d="M1133.67 45.0763V56.2312C1133.67 56.6589 1133.5 57.069 1133.2 57.3712C1132.9 57.6736 1132.49 57.8435 1132.06 57.8435C1131.63 57.8435 1131.22 57.6736 1130.92 57.3712C1130.61 57.069 1130.44 56.6589 1130.44 56.2312V45.0918C1130.89 45.4196 1131.43 45.6026 1131.99 45.6163C1132.6 45.6336 1133.19 45.4431 1133.67 45.0763ZM1147.43 41.8518C1147.02 41.8518 1146.63 42.0144 1146.34 42.3037C1146.05 42.593 1145.88 42.9855 1145.88 43.3946V45.3386C1145.88 45.7663 1146.05 46.1764 1146.36 46.4786C1146.66 46.781 1147.07 46.9509 1147.5 46.9509C1147.93 46.9509 1148.34 46.781 1148.64 46.4786C1148.94 46.1764 1149.11 45.7663 1149.11 45.3386V43.4718C1149.12 43.2505 1149.09 43.0293 1149.01 42.8231C1148.93 42.617 1148.8 42.4306 1148.64 42.277C1148.48 42.1233 1148.29 42.0057 1148.08 41.9323C1147.87 41.859 1147.65 41.8316 1147.43 41.8518ZM1126.94 49.3038C1126.38 49.2871 1125.84 49.1044 1125.39 48.7792V59.9649C1125.39 60.3946 1125.56 60.8067 1125.87 61.1105C1126.17 61.4143 1126.58 61.5849 1127.01 61.5849C1127.44 61.5849 1127.86 61.4143 1128.16 61.1105C1128.46 60.8067 1128.64 60.3946 1128.64 59.9649V48.8563C1128.13 49.182 1127.54 49.3388 1126.94 49.3038ZM1142.39 38.5038C1142.18 38.4933 1141.97 38.5255 1141.77 38.5983C1141.58 38.6712 1141.4 38.7832 1141.25 38.9274C1141.1 39.0718 1140.97 39.2454 1140.89 39.4378C1140.81 39.6302 1140.77 39.8374 1140.77 40.0466V48.6403C1140.77 49.07 1140.94 49.4821 1141.24 49.7859C1141.55 50.0897 1141.96 50.2603 1142.39 50.2603C1142.82 50.2603 1143.23 50.0897 1143.54 49.7859C1143.84 49.4821 1144.01 49.07 1144.01 48.6403V40.1546C1144.03 39.932 1143.99 39.7094 1143.91 39.502C1143.82 39.2946 1143.7 39.1075 1143.54 38.9535C1143.38 38.7995 1143.18 38.6823 1142.97 38.6101C1142.76 38.5377 1142.54 38.5119 1142.31 38.5346L1142.39 38.5038ZM1137.26 41.8055C1136.68 41.8015 1136.11 41.6183 1135.64 41.2809V52.4975C1135.64 52.9272 1135.81 53.3393 1136.11 53.6431C1136.42 53.9468 1136.83 54.1175 1137.26 54.1175C1137.69 54.1175 1138.1 53.9468 1138.41 53.6431C1138.71 53.3393 1138.88 52.9272 1138.88 52.4975V41.2963C1138.39 41.6609 1137.79 41.851 1137.18 41.8363L1137.26 41.8055ZM1123.43 50.3992V19.0638C1123.42 18.6818 1123.27 18.3169 1123 18.0482C1122.72 17.7796 1122.36 17.6289 1121.97 17.6289H1121.63C1121.25 17.6289 1120.88 17.7796 1120.61 18.0482C1120.34 18.3169 1120.19 18.6818 1120.18 19.0638V50.3992C1120.18 50.7838 1120.33 51.1527 1120.61 51.4247C1120.88 51.6967 1121.25 51.8495 1121.63 51.8495H1121.97C1122.36 51.8495 1122.73 51.6967 1123 51.4247C1123.27 51.1527 1123.43 50.7838 1123.43 50.3992ZM1127.11 48.1158H1126.77C1126.38 48.1158 1126.01 47.963 1125.74 47.691C1125.47 47.419 1125.31 47.0501 1125.31 46.6655V22.7975C1125.32 22.4155 1125.47 22.0506 1125.74 21.7819C1126.02 21.5133 1126.38 21.3626 1126.77 21.3626H1127.11C1127.49 21.3626 1127.86 21.5133 1128.13 21.7819C1128.4 22.0506 1128.55 22.4155 1128.56 22.7975V46.6963C1128.56 47.081 1128.41 47.4499 1128.13 47.7219C1127.86 47.9939 1127.49 48.1466 1127.11 48.1466V48.1158ZM1132.22 44.4438H1131.87C1131.48 44.4438 1131.12 44.2926 1130.85 44.0235C1130.58 43.7544 1130.43 43.3895 1130.43 43.0089V26.5003C1130.43 26.3106 1130.46 26.1224 1130.53 25.9465C1130.6 25.7706 1130.71 25.6106 1130.84 25.4758C1130.98 25.3409 1131.14 25.2338 1131.31 25.1607C1131.49 25.0877 1131.68 25.05 1131.87 25.05H1132.22C1132.6 25.0541 1132.97 25.2087 1133.24 25.4802C1133.51 25.7518 1133.66 26.1184 1133.66 26.5003V43.0089C1133.66 43.3895 1133.51 43.7544 1133.24 44.0235C1132.97 44.2926 1132.6 44.4438 1132.22 44.4438ZM1137.34 40.6638H1137.01C1136.63 40.6638 1136.26 40.5132 1135.99 40.2444C1135.72 39.9758 1135.56 39.6109 1135.56 39.2289V30.342C1135.55 30.1439 1135.57 29.9454 1135.64 29.7585C1135.71 29.5719 1135.81 29.4008 1135.95 29.2562C1136.09 29.1115 1136.25 28.9964 1136.43 28.9177C1136.62 28.8392 1136.81 28.7987 1137.01 28.7992H1137.35C1137.74 28.7992 1138.11 28.9519 1138.38 29.2239C1138.65 29.4959 1138.8 29.8648 1138.8 30.2495V39.198C1138.81 39.3898 1138.77 39.5801 1138.7 39.7578C1138.63 39.9355 1138.52 40.0972 1138.38 40.2336C1138.25 40.3698 1138.09 40.478 1137.91 40.5519C1137.73 40.6258 1137.54 40.6638 1137.35 40.6638H1137.34ZM1142.47 37.3466H1142.13C1141.74 37.3466 1141.37 37.1939 1141.1 36.9219C1140.83 36.6499 1140.67 36.281 1140.67 35.8963V33.5975C1140.68 33.2155 1140.83 32.8506 1141.11 32.582C1141.38 32.3132 1141.74 32.1626 1142.13 32.1626H1142.47C1142.85 32.1626 1143.22 32.3132 1143.49 32.582C1143.76 32.8506 1143.92 33.2155 1143.92 33.5975V35.8963C1143.92 36.2783 1143.77 36.6449 1143.5 36.9165C1143.23 37.188 1142.87 37.3426 1142.48 37.3466H1142.47Z" fill="#394149"/>
</g>
</svg>
