<svg width="1853" height="1533" viewBox="0 0 1853 1533" fill="none" xmlns="http://www.w3.org/2000/svg">
<path d="M1674.28 47.0036C1633.68 41.8054 1594.05 58.9033 1553 83.7324C1512.04 108.8 1469.68 141.017 1455.23 190.254C1440.78 239.49 1454.47 305.641 1491.56 322.891C1528.99 340.275 1589.48 308.625 1653.45 295.903C1717.18 283.286 1784.15 289.701 1808.96 261.488C1833.43 233.141 1816.09 170.3 1786.33 125.117C1756.81 79.83 1715.12 52.0974 1674.28 47.0036Z" fill="url(#paint0_linear_507_911)"/>
<path opacity="0.3" d="M1660.22 80.4998L1660.22 80.4996C1619.79 75.3243 1580.3 92.341 1539.25 117.16C1498.31 142.223 1456.11 174.355 1441.71 223.395C1434.51 247.923 1434.32 276.679 1440.55 301.445C1446.78 326.229 1459.42 346.904 1477.77 355.438C1496.3 364.045 1520.62 360.536 1548.42 353.203C1558.31 350.596 1568.64 347.505 1579.29 344.319C1598.51 338.569 1618.77 332.507 1639.35 328.413L1639.35 328.413C1660.61 324.204 1682.26 322.108 1702.55 320.143C1712.69 319.161 1722.49 318.212 1731.74 317.048C1745.64 315.299 1758.29 313.067 1769 309.519C1779.72 305.971 1788.47 301.121 1794.59 294.159C1806.67 280.166 1808.48 257.57 1803.49 232.714C1798.51 207.885 1786.76 180.938 1771.91 158.392L1771.91 158.39C1742.45 113.198 1700.88 85.5715 1660.22 80.4998Z" stroke="white"/>
<path d="M1386.31 1189.61C1414.49 1116.63 1473.26 1050.66 1540.25 1037.74C1607.25 1024.82 1683.23 1064.95 1730.67 1117.35C1777.96 1169.45 1796.55 1233.52 1791.05 1290C1785.55 1346.47 1755.65 1395.5 1718.2 1408.8C1680.61 1421.8 1635.61 1399.38 1575.02 1395.6C1514.27 1391.52 1437.91 1406.82 1398.84 1374.33C1359.62 1342.29 1357.97 1262.29 1386.31 1189.61Z" fill="url(#paint1_linear_507_911)"/>
<path opacity="0.3" d="M1370.77 1163.79L1370.78 1163.79C1398.93 1090.89 1457.59 1025.11 1524.35 1012.23C1591.11 999.357 1666.92 1039.35 1714.3 1091.69L1714.3 1091.69C1761.49 1143.68 1780.04 1207.62 1774.55 1263.95C1771.81 1292.11 1762.98 1318.42 1750.18 1339.33C1737.37 1360.24 1720.62 1375.73 1702.04 1382.33C1683.38 1388.78 1662.85 1386.45 1639.33 1382C1634.23 1381.04 1628.99 1379.97 1623.6 1378.88C1604.17 1374.93 1582.8 1370.58 1559.05 1369.1C1543.84 1368.08 1527.66 1368.27 1511.34 1368.62C1508.83 1368.68 1506.32 1368.74 1503.81 1368.79C1489.98 1369.11 1476.16 1369.43 1462.81 1369.12C1431.25 1368.37 1402.56 1364.07 1383.16 1347.94L1383.16 1347.94C1363.7 1332.05 1353.51 1304.2 1351.74 1271.18C1349.97 1238.17 1356.63 1200.08 1370.77 1163.79Z" stroke="white"/>
<path d="M364.427 1358.47C300.431 1403.48 214.913 1425.65 152.038 1399.15C89.1624 1372.65 48.3047 1297.06 37.9988 1227.13C27.6496 1157.54 47.8091 1093.94 83.774 1050.05C119.739 1006.16 171.844 982.029 210.367 991.784C248.846 1001.87 273.787 1045.52 322.058 1082.35C370.286 1119.51 442.265 1149.23 456.683 1197.96C471.48 1246.4 428.38 1313.81 364.427 1358.47Z" fill="url(#paint2_linear_507_911)"/>
<path opacity="0.3" d="M375.141 1337.06L375.139 1337.07C311.216 1382.02 225.884 1404.1 163.232 1377.69C100.582 1351.29 59.786 1275.9 49.4935 1206.06L49.4934 1206.06C39.1647 1136.6 59.2862 1073.15 95.1607 1029.37C113.099 1007.48 135.057 990.522 157.32 980.256C179.589 969.987 202.125 966.428 221.242 971.268C240.34 976.276 256.112 989.62 273.19 1006.39C276.893 1010.03 280.656 1013.83 284.527 1017.74C298.484 1031.82 313.833 1047.31 332.753 1061.74C344.829 1071.05 358.388 1079.88 372.143 1088.66C374.26 1090.01 376.382 1091.36 378.504 1092.7C390.174 1100.12 401.846 1107.54 412.762 1115.22C438.582 1133.38 460.048 1152.91 467.204 1177.1L467.205 1177.1C474.545 1201.13 467.541 1229.94 450.656 1258.37C433.778 1286.8 407.068 1314.76 375.141 1337.06Z" stroke="white"/>
<path d="M352.28 152.023C405.147 209.692 438.147 291.644 419.963 357.408C401.78 423.171 332.076 473.421 264.056 492.644C196.373 511.868 130.711 500.064 82.5579 470.049C34.4052 440.034 3.7626 391.47 8.47685 352.012C13.5278 312.553 53.5989 282.201 83.9048 229.59C114.547 176.979 134.751 101.773 181.22 81.2005C227.353 60.291 299.75 94.3532 352.28 152.023Z" fill="url(#paint3_linear_507_911)"/>
<path opacity="0.3" d="M343.911 238.359L343.912 238.361C396.719 295.965 429.601 377.744 411.482 443.274C393.363 508.802 323.852 558.965 255.921 578.163L255.92 578.163C188.371 597.349 122.854 585.564 74.8224 555.624C50.8058 540.654 31.163 521.062 18.1156 500.305C5.06541 479.544 -1.36578 457.654 0.9731 438.073C3.48078 418.488 14.6828 401.13 29.1191 382.035C32.2493 377.894 35.5308 373.673 38.9056 369.332C51.0749 353.678 64.4581 336.463 76.3371 315.841C84.01 302.668 91.0264 288.085 97.9557 273.314C99.0223 271.041 100.087 268.763 101.151 266.485C107.006 253.957 112.861 241.427 119.07 229.613C133.757 201.669 150.359 177.868 173.423 167.658L173.427 167.656C196.311 157.284 225.783 160.52 256.153 173.604C286.511 186.682 317.686 209.569 343.911 238.359Z" stroke="white"/>
<defs>
<linearGradient id="paint0_linear_507_911" x1="1812.44" y1="161.046" x2="1486.08" y2="188.615" gradientUnits="userSpaceOnUse">
<stop offset="0.0495764" stop-color="#3848DA"/>
<stop offset="1" stop-color="#3848DA" stop-opacity="0"/>
</linearGradient>
<linearGradient id="paint1_linear_507_911" x1="1232" y1="1623" x2="1724.57" y2="1183.55" gradientUnits="userSpaceOnUse">
<stop offset="0.0495764" stop-color="#FFE061"/>
<stop offset="1" stop-color="#FFB546" stop-opacity="0"/>
</linearGradient>
<linearGradient id="paint2_linear_507_911" x1="473.664" y1="1171.33" x2="87.0097" y2="1220.23" gradientUnits="userSpaceOnUse">
<stop stop-color="#3BABF1"/>
<stop offset="1" stop-color="#3BABF1" stop-opacity="0"/>
</linearGradient>
<linearGradient id="paint3_linear_507_911" x1="122" y1="-96" x2="223.382" y2="445.449" gradientUnits="userSpaceOnUse">
<stop offset="0.0495764" stop-color="#FFE061"/>
<stop offset="1" stop-color="#FFB546" stop-opacity="0"/>
</linearGradient>
</defs>
</svg>
