<svg width="1576" height="951" viewBox="0 0 1576 951" fill="none" xmlns="http://www.w3.org/2000/svg">
<path d="M53 279.488C53 279.488 103.5 88.56 388 90.0082C672.5 91.4564 887.5 246.591 1114.5 279.488C1341.5 312.386 1493 279.488 1493 279.488V667.128C1493 667.128 1386.5 782.481 1179.5 790.434C972.5 798.387 858 702.929 692 702.926C526 702.924 336 876.137 172.5 858.777C60.1795 846.852 53 810.686 53 810.686V279.488Z" fill="url(#paint0_linear_507_1543)"/>
<path d="M228.977 181.1C286.972 252.508 380.765 296.423 378.975 324.272C377.543 352.478 280.528 364.975 217.88 361.404C155.232 357.834 127.309 338.554 96.8796 323.915C66.8085 309.277 34.2315 299.637 15.6161 271.431C-2.64133 243.225 -6.93719 197.167 13.8262 133.971C34.9475 71.1319 81.1281 -8.84485 115.137 0.795196C149.146 10.7923 171.341 109.692 228.977 181.1Z" fill="url(#paint1_linear_507_1543)"/>
<path opacity="0.3" d="M230.588 244.414L230.589 244.415C259.027 279.431 296.053 307.838 326.185 330.955C326.823 331.445 327.459 331.932 328.091 332.417C343.335 344.116 356.678 354.429 366.1 363.554C370.811 368.116 374.522 372.362 376.998 376.319C379.476 380.278 380.69 383.904 380.476 387.24L380.475 387.247C380.133 393.999 374.047 399.953 363.788 405.028C353.571 410.081 339.402 414.165 323.289 417.264C291.069 423.459 251.194 425.688 219.908 423.905C166.795 420.878 138.72 406.551 112.803 393.325C108.209 390.981 103.684 388.672 99.0984 386.466C93.1406 383.566 87.0831 380.861 81.0638 378.173C79.4786 377.465 77.896 376.758 76.3186 376.049C68.7466 372.647 61.2885 369.195 54.1915 365.322C40.0002 357.577 27.28 348.165 18.0346 334.157C-0.105039 306.131 -4.43857 260.252 16.3006 197.128C26.8496 165.744 43.6556 130.085 62.0599 103.488C71.2638 90.1866 80.8494 79.1779 90.231 72.0994C99.6197 65.0155 108.717 61.9294 116.998 64.2755C125.315 66.7214 132.994 74.6377 140.749 86.4185C148.492 98.1804 156.243 113.682 164.748 131.138C165.766 133.229 166.796 135.348 167.837 137.491C184.172 171.11 203.457 210.8 230.588 244.414Z" stroke="white"/>
<path d="M1335.39 677.845C1386.43 601.313 1400.62 498.724 1427.75 492.191C1455.12 485.21 1495.77 574.179 1510.9 635.077C1526.03 695.975 1515.88 728.353 1510.91 761.752C1505.82 794.808 1506.26 828.779 1484.83 854.909C1463.29 880.697 1420.57 898.433 1354.06 897.305C1287.78 895.73 1197.72 875.291 1196.86 839.953C1196.34 804.509 1284.24 754.035 1335.39 677.845Z" fill="url(#paint2_linear_507_1543)"/>
<path opacity="0.3" d="M1331.81 636.124L1331.81 636.122C1356.84 598.594 1373.01 554.819 1386.17 519.195C1386.45 518.44 1386.73 517.689 1387.01 516.942C1393.67 498.918 1399.57 483.121 1405.5 471.42C1408.46 465.57 1411.42 460.768 1414.46 457.232C1417.51 453.693 1420.62 451.46 1423.87 450.677L1423.87 450.676C1430.42 449.005 1437.91 453.055 1445.8 461.353C1453.65 469.616 1461.74 481.941 1469.47 496.415C1484.93 525.358 1498.86 562.786 1506.41 593.197C1519.24 644.827 1513.87 675.884 1508.91 704.555C1508.03 709.637 1507.16 714.643 1506.41 719.676C1505.4 726.225 1504.61 732.812 1503.83 739.357C1503.62 741.08 1503.41 742.801 1503.2 744.518C1502.2 752.758 1501.11 760.903 1499.51 768.829C1496.31 784.676 1491.08 799.613 1480.44 812.59C1459.04 838.212 1416.5 855.931 1350.07 854.805C1316.97 854.019 1277.93 848.52 1247.08 838.813C1231.65 833.959 1218.29 828.061 1208.76 821.195C1199.21 814.324 1193.57 806.548 1193.36 797.943C1193.23 789.275 1198.52 779.597 1207.48 768.702C1216.42 757.825 1228.94 745.833 1243.09 732.543C1244.79 730.951 1246.51 729.34 1248.25 727.711C1275.52 702.157 1307.73 671.988 1331.81 636.124Z" stroke="white"/>
<defs>
<linearGradient id="paint0_linear_507_1543" x1="1800.5" y1="949" x2="-128.426" y2="76.5697" gradientUnits="userSpaceOnUse">
<stop stop-color="#3741D8"/>
<stop offset="1" stop-color="#3BB0F2"/>
</linearGradient>
<linearGradient id="paint1_linear_507_1543" x1="131.449" y1="-6.11258" x2="209.814" y2="316.281" gradientUnits="userSpaceOnUse">
<stop stop-color="#3BABF1"/>
<stop offset="1" stop-color="#3BABF1" stop-opacity="0"/>
</linearGradient>
<linearGradient id="paint2_linear_507_1543" x1="1185.43" y1="826.416" x2="1470.19" y2="656.137" gradientUnits="userSpaceOnUse">
<stop offset="0.0495764" stop-color="#FFE061"/>
<stop offset="1" stop-color="#FFB546" stop-opacity="0"/>
</linearGradient>
</defs>
</svg>
