<svg width="1930" height="1297" viewBox="0 0 1930 1297" fill="none" xmlns="http://www.w3.org/2000/svg">
<path d="M150 444.782C150 444.782 404.778 524.974 575.5 523.032C836.283 520.067 975.5 386 1254.5 386C1490 386 1590 501.621 1590 501.621V1012C1590 1012 1367.5 931.024 1136.5 931.024C905.5 931.024 900.5 1012 575.5 1012C250.5 1012 150 931.024 150 931.024V444.782Z" fill="#F4F8FB"/>
<path d="M1412.74 996.192C1361.09 958.226 1321.55 897.586 1325.71 841.832C1329.88 786.078 1377.91 734.614 1429.52 708.361C1480.86 682.16 1535.51 681.223 1578.97 697.706C1622.44 714.189 1654.78 748.364 1657.27 780.832C1659.48 813.354 1632.1 844.117 1616.1 891.222C1599.83 938.381 1595.55 1002.05 1561.47 1025.96C1527.72 1050.1 1464.12 1034.21 1412.74 996.192Z" fill="url(#paint0_linear_507_1473)"/>
<path opacity="0.3" d="M1432.22 998.854L1432.22 998.853C1380.64 960.94 1341.24 900.446 1345.39 844.934C1349.53 789.423 1397.4 738.083 1448.93 711.871L1448.93 711.87C1500.14 685.734 1554.64 684.806 1597.98 701.238C1619.64 709.455 1638.53 722.078 1652.3 736.682C1666.08 751.29 1674.72 767.847 1675.95 783.933C1677.04 800.048 1670.81 815.762 1662.24 833.405C1660.38 837.228 1658.42 841.141 1656.39 845.166C1649.1 859.683 1641.08 875.654 1634.8 894.125C1630.73 905.937 1627.41 918.778 1624.19 931.752C1623.69 933.749 1623.2 935.749 1622.7 937.749C1619.99 948.75 1617.27 959.75 1614.16 970.231C1606.8 995.026 1597.25 1016.77 1580.36 1028.62L1580.36 1028.62C1563.64 1040.57 1539.47 1042.65 1513 1036.96C1486.54 1031.27 1457.86 1017.83 1432.22 998.854Z" stroke="white"/>
<path d="M1590 389C1590 389 1335.22 464.442 1164.5 462.5C903.717 459.534 770 328.5 491 328.5C291.5 328.5 150 479 150 479V936C150 936 136 1082.5 572 981.5C1008 880.5 839.5 1004.5 1164.5 1004.5C1489.5 1004.5 1590 923.525 1590 923.525L1590 389Z" fill="url(#paint1_linear_507_1473)"/>
<path d="M102.018 1126.35C50.5125 1048.63 26.9019 946.013 60.5235 871.968C94.1451 797.923 185.521 751.717 269.149 741.728C352.381 731.676 427.469 757.777 478.565 802.064C529.661 846.351 556.702 909.221 543.821 954.8C530.544 1000.32 477.742 1028.6 432.297 1084.91C386.456 1141.15 348.702 1225.94 290.187 1241.52C232.006 1257.57 153.127 1204.01 102.018 1126.35Z" fill="url(#paint2_linear_507_1473)"/>
<path opacity="0.3" d="M127.088 1139.87L127.087 1139.87C75.6308 1062.22 52.1098 959.792 85.6314 885.967C119.152 812.145 210.323 765.996 293.861 756.017L293.861 756.017C376.955 745.982 451.902 772.041 502.89 816.234C528.385 838.332 547.872 865.061 559.377 891.937C570.885 918.818 574.392 945.808 567.993 968.454C561.395 991.072 544.967 1009.44 524.428 1029.24C519.973 1033.54 515.325 1037.9 510.546 1042.38C493.314 1058.55 474.37 1076.32 456.562 1098.39C445.086 1112.47 434.12 1128.33 423.22 1144.43C421.543 1146.91 419.867 1149.39 418.191 1151.88C408.972 1165.54 399.751 1179.2 390.246 1191.96C367.767 1222.13 343.788 1247.09 314.711 1254.83L314.707 1254.83C285.809 1262.8 251.694 1253.5 218.37 1232.45C185.058 1211.4 152.61 1178.65 127.088 1139.87Z" stroke="white"/>
<path d="M1545.23 131.341C1487.5 140.11 1439.85 179.102 1393.26 229.269C1346.91 279.722 1301.44 340.542 1300.91 413.794C1300.39 487.046 1345.1 572.493 1402.74 581.646C1460.9 590.847 1531.47 523.704 1614.23 481.183C1696.7 438.898 1791.08 421.472 1814.06 373.023C1836.51 324.524 1788.08 245.053 1729.55 194.683C1671.31 144.077 1603.25 122.336 1545.23 131.341Z" fill="url(#paint3_linear_507_1473)"/>
<path opacity="0.3" d="M1539.04 182.621L1539.04 182.621C1481.48 191.362 1433.93 230.242 1387.36 280.395C1341.02 330.841 1295.67 391.536 1295.15 464.583C1294.89 501.115 1305.91 540.702 1324.18 572.292C1342.46 603.896 1367.94 627.395 1396.55 631.937C1425.43 636.506 1457.47 622.121 1492.74 601.165C1505.29 593.705 1518.25 585.413 1531.61 576.866C1555.71 561.449 1581.11 545.204 1607.73 531.523L1607.73 531.523C1635.24 517.422 1664.09 506.074 1691.15 495.43C1704.67 490.109 1717.75 484.964 1729.99 479.74C1748.37 471.894 1764.86 463.868 1778.19 454.788C1791.52 445.709 1801.65 435.597 1807.34 423.596C1818.46 399.563 1812.06 367.755 1795.46 335.569C1778.88 303.408 1752.18 270.997 1722.96 245.847L1722.95 245.846C1664.8 195.313 1596.88 173.643 1539.04 182.621Z" stroke="white"/>
<defs>
<linearGradient id="paint0_linear_507_1473" x1="1586.58" y1="1032.2" x2="1447.65" y2="744.641" gradientUnits="userSpaceOnUse">
<stop stop-color="#3BABF1"/>
<stop offset="1" stop-color="#3BABF1" stop-opacity="0"/>
</linearGradient>
<linearGradient id="paint1_linear_507_1473" x1="1590" y1="672.759" x2="150.036" y2="683.972" gradientUnits="userSpaceOnUse">
<stop stop-color="#3741D8"/>
<stop offset="1" stop-color="#3BB0F2"/>
</linearGradient>
<linearGradient id="paint2_linear_507_1473" x1="321.346" y1="1262.63" x2="275.722" y2="800.351" gradientUnits="userSpaceOnUse">
<stop offset="0.0495764" stop-color="#FFE061"/>
<stop offset="1" stop-color="#FFB546" stop-opacity="0"/>
</linearGradient>
<linearGradient id="paint3_linear_507_1473" x1="1779.45" y1="233.779" x2="1342.57" y2="399.402" gradientUnits="userSpaceOnUse">
<stop offset="0.0495764" stop-color="#3848DA"/>
<stop offset="1" stop-color="#3848DA" stop-opacity="0"/>
</linearGradient>
</defs>
</svg>
