<svg width="1596" height="809" viewBox="0 0 1596 809" fill="none" xmlns="http://www.w3.org/2000/svg">
<g style="mix-blend-mode:screen" opacity="0.5">
<path d="M1303.74 163.383C1264.18 213.643 1203.38 246.606 1201.09 278.589C1198.47 310.899 1254.38 341.904 1300.47 346.473C1346.9 350.715 1383.51 328.523 1421.44 309.92C1459.69 291.317 1498.92 276.305 1526.71 235.836C1554.17 195.04 1569.86 129.115 1543.38 81.7927C1517.22 34.7966 1449.22 6.7294 1405.74 26.3111C1362.26 45.8929 1343.63 113.124 1303.74 163.383Z" fill="url(#paint0_linear_504_805)"/>
</g>
<g style="mix-blend-mode:screen" opacity="0.3">
<path d="M1189.09 278.661L1189.09 278.67C1188.46 286.434 1191.34 294.194 1196.83 301.587C1202.33 308.983 1210.41 315.953 1220.05 322.09C1239.33 334.367 1264.68 343.207 1287.57 345.477C1328.15 349.185 1361.16 332.557 1394.44 315.79C1398.95 313.52 1403.46 311.247 1408 309.022L1408 309.021C1412.45 306.856 1416.91 304.743 1421.35 302.634C1455.23 286.572 1488.48 270.807 1512.88 235.274C1526.53 214.999 1537.26 188.461 1541.28 161.116C1545.31 133.768 1542.61 105.695 1529.51 82.2811L1529.51 82.279C1516.56 59.0158 1493.22 40.3863 1467.68 30.0117C1442.14 19.6322 1414.56 17.5806 1393.15 27.2229C1371.73 36.8702 1356.34 58.3047 1341.26 83.8514C1337.46 90.2845 1333.68 96.976 1329.83 103.791C1318.46 123.941 1306.47 145.173 1291.53 164.005C1275.07 184.918 1254.93 202.851 1236.91 218.904C1233.21 222.206 1229.59 225.428 1226.11 228.581C1215.9 237.839 1206.9 246.481 1200.31 254.784C1193.72 263.097 1189.64 270.961 1189.09 278.661Z" stroke="white" stroke-width="2"/>
</g>
<g style="mix-blend-mode:screen" opacity="0.5">
<path d="M1202.26 582.383C1241.82 632.643 1302.62 665.606 1304.91 697.589C1307.53 729.899 1251.62 760.904 1205.53 765.473C1159.1 769.715 1122.49 747.523 1084.56 728.92C1046.31 710.317 1007.08 695.305 979.294 654.836C951.832 614.04 936.14 548.115 962.621 500.793C988.775 453.797 1056.78 425.729 1100.26 445.311C1143.74 464.893 1162.37 532.124 1202.26 582.383Z" fill="url(#paint1_linear_504_805)"/>
</g>
<g style="mix-blend-mode:screen" opacity="0.3">
<path d="M1314.91 697.661L1314.91 697.67C1315.54 705.434 1312.66 713.194 1307.17 720.587C1301.67 727.983 1293.59 734.953 1283.95 741.09C1264.67 753.367 1239.32 762.207 1216.43 764.477C1175.85 768.185 1142.84 751.557 1109.56 734.79C1105.05 732.52 1100.54 730.247 1096 728.022L1096 728.021C1091.55 725.856 1087.09 723.743 1082.65 721.634C1048.77 705.572 1015.52 689.807 991.121 654.274C977.474 633.999 966.742 607.461 962.718 580.116C958.694 552.768 961.391 524.695 974.494 501.281L974.495 501.279C987.441 478.016 1010.78 459.386 1036.32 449.012C1061.86 438.632 1089.44 436.581 1110.85 446.223C1132.27 455.87 1147.66 477.305 1162.74 502.851C1166.54 509.285 1170.32 515.976 1174.17 522.791C1185.54 542.941 1197.53 564.173 1212.47 583.005C1228.93 603.918 1249.07 621.851 1267.09 637.904C1270.79 641.206 1274.41 644.428 1277.89 647.581C1288.1 656.839 1297.1 665.481 1303.69 673.784C1310.28 682.097 1314.36 689.961 1314.91 697.661Z" stroke="white" stroke-width="2"/>
</g>
<g style="mix-blend-mode:screen" opacity="0.15">
<path d="M78.7127 572.947C66.4626 538.332 59.2332 489.474 82.0229 457.486C104.97 425.616 157.818 410.773 206.507 420.196C255.039 429.501 299.095 462.835 318.877 505.821C338.659 548.807 334.166 601.445 312.948 643.497C291.731 685.549 254.104 717.251 219.891 716.48C185.798 715.55 155.434 682.383 131.577 655.337C107.878 628.409 90.8444 607.72 78.7127 572.947Z" fill="#FFB546"/>
</g>
<g style="mix-blend-mode:screen" opacity="0.3">
<path d="M76.6569 551.618L76.6554 551.614C70.5557 534.377 65.7143 513.616 65.2276 493.208C64.7406 472.793 68.612 452.822 79.8373 437.066C91.1456 421.364 109.875 409.789 131.894 403.316C153.906 396.845 179.128 395.497 203.317 400.178L203.319 400.178C251.555 409.426 295.331 442.565 314.969 485.239C334.601 527.9 330.161 580.216 309.056 622.046C298.505 642.957 283.881 661.279 267.668 674.267C251.445 687.262 233.71 694.858 216.916 694.48C200.185 694.023 184.279 685.65 169.517 673.919C154.761 662.193 141.26 647.204 129.328 633.676C105.644 606.765 88.7212 586.198 76.6569 551.618Z" stroke="white" stroke-width="2"/>
</g>
<circle cx="1027.95" cy="217.947" r="42.9472" transform="rotate(68.5461 1027.95 217.947)" fill="url(#paint2_linear_504_805)"/>
<defs>
<linearGradient id="paint0_linear_504_805" x1="1660" y1="-90" x2="1344" y2="244" gradientUnits="userSpaceOnUse">
<stop stop-color="#FFB546"/>
<stop offset="1" stop-color="#FFB546" stop-opacity="0"/>
</linearGradient>
<linearGradient id="paint1_linear_504_805" x1="910.5" y1="405" x2="1226" y2="693.5" gradientUnits="userSpaceOnUse">
<stop stop-color="#FFB546"/>
<stop offset="1" stop-color="#FFB546" stop-opacity="0"/>
</linearGradient>
<linearGradient id="paint2_linear_504_805" x1="985" y1="217.947" x2="1070.89" y2="218.267" gradientUnits="userSpaceOnUse">
<stop stop-color="#3741D8"/>
<stop offset="1" stop-color="#3BB0F2"/>
</linearGradient>
</defs>
</svg>
