<svg width="40" height="40" viewBox="0 0 40 40" fill="none" xmlns="http://www.w3.org/2000/svg">
<circle cx="20" cy="20" r="20" fill="#C4C4C4"/>
<g clip-path="url(#clip0_507_933)">
<path d="M39.4019 24.8365C36.7298 35.5565 25.8687 42.0731 15.164 39.4008C4.44366 36.7286 -2.0729 25.868 0.599441 15.1634C3.27163 4.44342 14.1169 -2.07315 24.8373 0.599199C35.5419 3.25576 42.0743 14.1164 39.4019 24.8365Z" fill="url(#paint0_linear_507_933)"/>
<path d="M29.5222 17.5078C29.9128 14.8516 27.8972 13.4141 25.116 12.4609L26.0222 8.85156L23.8347 8.30469L22.9597 11.8203C22.3816 11.6797 21.7878 11.5391 21.1941 11.4141L22.0691 7.88281L19.8816 7.33594L18.991 10.9297C18.5066 10.8203 18.0378 10.7109 17.5847 10.6016V10.5859L14.5535 9.83594L13.9753 12.1797C13.9753 12.1797 15.6003 12.5547 15.5691 12.5703C16.4597 12.7891 16.616 13.3828 16.5847 13.8516L15.5535 17.9609C15.616 17.9766 15.6941 17.9922 15.7878 18.0391C15.7097 18.0234 15.6316 18.0078 15.5535 17.9766L14.116 23.7266C14.0066 23.9922 13.7253 24.3984 13.116 24.2422C13.1316 24.2734 11.5222 23.8516 11.5222 23.8516L10.4285 26.3672L13.2878 27.0859C13.8191 27.2266 14.3347 27.3516 14.8503 27.4922L13.9441 31.1328L16.1316 31.6797L17.0378 28.0703C17.6316 28.2266 18.2253 28.3828 18.7878 28.5234L17.8972 32.1172L20.0847 32.6641L20.991 29.0234C24.741 29.7266 27.5535 29.4453 28.7253 26.0547C29.6785 23.3359 28.6785 21.7578 26.7097 20.7266C28.1628 20.3984 29.241 19.4453 29.5222 17.5078ZM24.5066 24.5391C23.8347 27.2578 19.241 25.7891 17.7566 25.4141L18.9597 20.5859C20.4441 20.9609 25.2253 21.6953 24.5066 24.5391ZM25.1941 17.4609C24.5691 19.9453 20.7566 18.6797 19.5222 18.3672L20.616 13.9922C21.8503 14.3047 25.8347 14.8828 25.1941 17.4609Z" fill="white"/>
</g>
<defs>
<linearGradient id="paint0_linear_507_933" x1="19.9894" y1="-0.00959999" x2="19.9894" y2="39.996" gradientUnits="userSpaceOnUse">
<stop stop-color="#F9AA4B"/>
<stop offset="1" stop-color="#F7931A"/>
</linearGradient>
<clipPath id="clip0_507_933">
<rect width="40" height="40" fill="white"/>
</clipPath>
</defs>
</svg>
