<svg width="73" height="72" viewBox="0 0 73 72" fill="none" xmlns="http://www.w3.org/2000/svg">
<path d="M43.9686 35.1545C44.7774 34.3816 45.4212 33.4527 45.8612 32.4241C46.3011 31.3954 46.5281 30.2883 46.5283 29.1696C46.5283 24.5872 42.8 20.8589 38.2177 20.8589H37.5784V18.941C37.5784 18.7715 37.511 18.6089 37.3911 18.489C37.2712 18.3691 37.1086 18.3018 36.9391 18.3018C36.7695 18.3018 36.6069 18.3691 36.487 18.489C36.3672 18.6089 36.2998 18.7715 36.2998 18.941V20.8589H29.907V18.941C29.907 18.7715 29.8396 18.6089 29.7197 18.489C29.5999 18.3691 29.4372 18.3018 29.2677 18.3018C29.0982 18.3018 28.9355 18.3691 28.8157 18.489C28.6958 18.6089 28.6284 18.7715 28.6284 18.941V20.8589H26.0713C25.7322 20.8589 25.407 20.9936 25.1672 21.2334C24.9274 21.4731 24.7927 21.7984 24.7927 22.1375C24.7927 22.4765 24.9274 22.8018 25.1672 23.0415C25.407 23.2813 25.7322 23.416 26.0713 23.416H27.3499V48.9873H26.0713C25.7322 48.9873 25.407 49.122 25.1672 49.3618C24.9274 49.6016 24.7927 49.9268 24.7927 50.2659C24.7927 50.605 24.9274 50.9302 25.1672 51.1699C25.407 51.4097 25.7322 51.5444 26.0713 51.5444H28.6284V53.4623C28.6284 53.6318 28.6958 53.7944 28.8157 53.9143C28.9355 54.0342 29.0982 54.1016 29.2677 54.1016C29.4372 54.1016 29.5999 54.0342 29.7197 53.9143C29.8396 53.7944 29.907 53.6318 29.907 53.4623V51.5444H36.2998V53.4623C36.2998 53.6318 36.3672 53.7944 36.487 53.9143C36.6069 54.0342 36.7695 54.1016 36.9391 54.1016C37.1086 54.1016 37.2712 54.0342 37.3911 53.9143C37.511 53.7944 37.5784 53.6318 37.5784 53.4623V51.5444H42.0533C46.6357 51.5444 50.364 47.8161 50.364 43.2338C50.364 39.3111 47.6292 36.0227 43.9686 35.1545ZM43.9712 29.1683C43.9712 32.3404 41.3898 34.9218 38.2177 34.9218H29.907V23.4147H38.2177C41.3898 23.4147 43.9712 25.9962 43.9712 29.1683ZM42.0533 48.986H29.907V37.4789H42.0533C45.2255 37.4789 47.8069 40.0604 47.8069 43.2325C47.8069 46.4046 45.2255 48.986 42.0533 48.986Z" fill="#FFB546"/>
<path d="M36.2998 0.400391C16.56 0.400391 0.5 16.4604 0.5 36.2002C0.5 55.94 16.56 72 36.2998 72C56.0396 72 72.0996 55.94 72.0996 36.2002C72.0996 16.4604 56.0396 0.400391 36.2998 0.400391ZM36.2998 69.4429C17.9703 69.4429 3.05713 54.5297 3.05713 36.2002C3.05713 17.8707 17.9703 2.95752 36.2998 2.95752C54.6293 2.95752 69.5425 17.8707 69.5425 36.2002C69.5425 54.5297 54.6293 69.4429 36.2998 69.4429Z" fill="url(#paint0_linear_504_826)"/>
<path d="M36.2997 8.71094C21.1423 8.71094 8.81055 21.0427 8.81055 36.2001C8.81055 51.3575 21.1423 63.6892 36.2997 63.6892C51.4571 63.6892 63.7888 51.3575 63.7888 36.2001C63.7888 21.0427 51.4571 8.71094 36.2997 8.71094ZM36.2997 62.4106C21.8468 62.4106 10.0891 50.653 10.0891 36.2001C10.0891 21.7472 21.8468 9.9895 36.2997 9.9895C50.7526 9.9895 62.5103 21.7472 62.5103 36.2001C62.5103 50.653 50.7526 62.4106 36.2997 62.4106Z" fill="#FFB546"/>
<defs>
<linearGradient id="paint0_linear_504_826" x1="0.5" y1="36.2002" x2="72.0986" y2="36.4668" gradientUnits="userSpaceOnUse">
<stop stop-color="#FFB848"/>
<stop offset="1" stop-color="#FFE362"/>
</linearGradient>
</defs>
</svg>
