<svg width="30" height="30" viewBox="0 0 30 30" fill="none" xmlns="http://www.w3.org/2000/svg">
<path d="M18.2134 14.5622C18.5522 14.2384 18.822 13.8492 19.0063 13.4182C19.1907 12.9872 19.2857 12.5233 19.2859 12.0545C19.2859 10.1345 17.7237 8.57241 15.8037 8.57241H15.5359V7.76883C15.5359 7.69779 15.5076 7.62966 15.4574 7.57943C15.4072 7.5292 15.339 7.50098 15.268 7.50098C15.197 7.50098 15.1288 7.5292 15.0786 7.57943C15.0284 7.62966 15.0001 7.69779 15.0001 7.76883V8.57241H12.3216V7.76883C12.3216 7.69779 12.2933 7.62966 12.2431 7.57943C12.1929 7.5292 12.1248 7.50098 12.0537 7.50098C11.9827 7.50098 11.9145 7.5292 11.8643 7.57943C11.8141 7.62966 11.7859 7.69779 11.7859 7.76883V8.57241H10.7144C10.5723 8.57241 10.4361 8.62885 10.3356 8.72931C10.2352 8.82978 10.1787 8.96604 10.1787 9.10812C10.1787 9.2502 10.2352 9.38646 10.3356 9.48693C10.4361 9.58739 10.5723 9.64383 10.7144 9.64383H11.2501V20.3581H10.7144C10.5723 20.3581 10.4361 20.4146 10.3356 20.515C10.2352 20.6155 10.1787 20.7518 10.1787 20.8938C10.1787 21.0359 10.2352 21.1722 10.3356 21.2726C10.4361 21.3731 10.5723 21.4295 10.7144 21.4295H11.7859V22.2331C11.7859 22.3042 11.8141 22.3723 11.8643 22.4225C11.9145 22.4728 11.9827 22.501 12.0537 22.501C12.1248 22.501 12.1929 22.4728 12.2431 22.4225C12.2933 22.3723 12.3216 22.3042 12.3216 22.2331V21.4295H15.0001V22.2331C15.0001 22.3042 15.0284 22.3723 15.0786 22.4225C15.1288 22.4728 15.197 22.501 15.268 22.501C15.339 22.501 15.4072 22.4728 15.4574 22.4225C15.5076 22.3723 15.5359 22.3042 15.5359 22.2331V21.4295H17.4109C19.3309 21.4295 20.893 19.8674 20.893 17.9474C20.893 16.3038 19.7471 14.926 18.2134 14.5622ZM18.2144 12.054C18.2144 13.3831 17.1328 14.4647 15.8037 14.4647H12.3216V9.6433H15.8037C17.1328 9.6433 18.2144 10.7249 18.2144 12.054ZM17.4109 20.3576H12.3216V15.5362H17.4109C18.74 15.5362 19.8216 16.6178 19.8216 17.9469C19.8216 19.276 18.74 20.3576 17.4109 20.3576Z" fill="#FFB546"/>
<path d="M15 0C6.72911 0 0 6.72911 0 15C0 23.2709 6.72911 30 15 30C23.2709 30 30 23.2709 30 15C30 6.72911 23.2709 0 15 0ZM15 28.9286C7.32 28.9286 1.07143 22.68 1.07143 15C1.07143 7.32 7.32 1.07143 15 1.07143C22.68 1.07143 28.9286 7.32 28.9286 15C28.9286 22.68 22.68 28.9286 15 28.9286Z" fill="url(#paint0_linear_507_1037)"/>
<path d="M15 3.48242C8.64914 3.48242 3.48218 8.64939 3.48218 15.0003C3.48218 21.3512 8.64914 26.5181 15 26.5181C21.3509 26.5181 26.5179 21.3512 26.5179 15.0003C26.5179 8.64939 21.3509 3.48242 15 3.48242ZM15 25.9824C8.94432 25.9824 4.01789 21.056 4.01789 15.0003C4.01789 8.94456 8.94432 4.01814 15 4.01814C21.0557 4.01814 25.9822 8.94456 25.9822 15.0003C25.9822 21.056 21.0557 25.9824 15 25.9824Z" fill="#FFB546"/>
<defs>
<linearGradient id="paint0_linear_507_1037" x1="-3.82753e-09" y1="15" x2="29.9996" y2="15.1117" gradientUnits="userSpaceOnUse">
<stop stop-color="#FFB848"/>
<stop offset="1" stop-color="#FFE362"/>
</linearGradient>
</defs>
</svg>
