<svg width="43" height="43" viewBox="0 0 43 43" fill="none" xmlns="http://www.w3.org/2000/svg">
<circle cx="21.1033" cy="21.1028" r="21.0345" fill="#C4C4C4"/>
<g clip-path="url(#clip0_507_1006)">
<path d="M41.5088 26.1896C38.6984 37.464 27.2755 44.3177 16.0172 41.5071C4.74234 38.6967 -2.11129 27.2743 0.699282 16.0161C3.50969 4.74161 14.916 -2.11202 26.1908 0.698551C37.4492 3.49252 44.3194 14.9149 41.5088 26.1896Z" fill="url(#paint0_linear_507_1006)"/>
<path d="M31.1182 18.4822C31.5291 15.6885 29.4092 14.1767 26.4841 13.1743L27.4372 9.3782L25.1365 8.80304L24.2163 12.5005C23.6083 12.3526 22.9838 12.2047 22.3593 12.0732L23.2796 8.35934L20.9789 7.78418L20.0423 11.5638C19.5328 11.4488 19.0398 11.3337 18.5633 11.2187V11.2023L15.3752 10.4135L14.7672 12.8785C14.7672 12.8785 16.4762 13.2729 16.4434 13.2893C17.3801 13.5194 17.5444 14.1438 17.5115 14.6368L16.427 18.9587C16.4927 18.9752 16.5748 18.9916 16.6734 19.0409C16.5913 19.0245 16.5091 19.008 16.427 18.9752L14.9151 25.0226C14.8001 25.302 14.5043 25.7292 13.8634 25.5649C13.8798 25.5978 12.1872 25.1541 12.1872 25.1541L11.0369 27.7998L14.0441 28.5557C14.6029 28.7036 15.1452 28.8351 15.6875 28.983L14.7343 32.8119L17.035 33.3871L17.9881 29.591C18.6126 29.7554 19.237 29.9197 19.8286 30.0676L18.8919 33.8472L21.1926 34.4224L22.1457 30.5934C26.0897 31.3329 29.0476 31.0371 30.2801 27.4711C31.2826 24.6118 30.2308 22.952 28.1602 21.8674C29.6885 21.5223 30.8224 20.5199 31.1182 18.4822ZM25.8432 25.8771C25.1365 28.7365 20.3052 27.1918 18.744 26.7974L20.0094 21.7195C21.5705 22.1139 26.5991 22.8863 25.8432 25.8771ZM26.5662 18.4329C25.9089 21.0458 21.8992 19.7147 20.601 19.386L21.7513 14.7847C23.0495 15.1134 27.24 15.7214 26.5662 18.4329Z" fill="white"/>
</g>
<defs>
<linearGradient id="paint0_linear_507_1006" x1="21.0922" y1="0.0582628" x2="21.0922" y2="42.1331" gradientUnits="userSpaceOnUse">
<stop stop-color="#F9AA4B"/>
<stop offset="1" stop-color="#F7931A"/>
</linearGradient>
<clipPath id="clip0_507_1006">
<rect width="42.069" height="42.069" fill="white" transform="translate(0.0688477 0.0683594)"/>
</clipPath>
</defs>
</svg>
