<svg width="72" height="72" viewBox="0 0 72 72" fill="none" xmlns="http://www.w3.org/2000/svg">
<path d="M43.4686 34.7541C44.2774 33.9812 44.9212 33.0523 45.3612 32.0237C45.8011 30.995 46.0281 29.8879 46.0283 28.7692C46.0283 24.1868 42.3 20.4585 37.7177 20.4585H37.0784V18.5406C37.0784 18.3711 37.011 18.2085 36.8911 18.0886C36.7712 17.9687 36.6086 17.9014 36.4391 17.9014C36.2695 17.9014 36.1069 17.9687 35.987 18.0886C35.8672 18.2085 35.7998 18.3711 35.7998 18.5406V20.4585H29.407V18.5406C29.407 18.3711 29.3396 18.2085 29.2197 18.0886C29.0999 17.9687 28.9372 17.9014 28.7677 17.9014C28.5982 17.9014 28.4355 17.9687 28.3157 18.0886C28.1958 18.2085 28.1284 18.3711 28.1284 18.5406V20.4585H25.5713C25.2322 20.4585 24.907 20.5932 24.6672 20.833C24.4274 21.0728 24.2927 21.398 24.2927 21.7371C24.2927 22.0762 24.4274 22.4014 24.6672 22.6411C24.907 22.8809 25.2322 23.0156 25.5713 23.0156H26.8499V48.5869H25.5713C25.2322 48.5869 24.907 48.7216 24.6672 48.9614C24.4274 49.2012 24.2927 49.5264 24.2927 49.8655C24.2927 50.2046 24.4274 50.5298 24.6672 50.7696C24.907 51.0093 25.2322 51.144 25.5713 51.144H28.1284V53.0619C28.1284 53.2314 28.1958 53.394 28.3157 53.5139C28.4355 53.6338 28.5982 53.7012 28.7677 53.7012C28.9372 53.7012 29.0999 53.6338 29.2197 53.5139C29.3396 53.394 29.407 53.2314 29.407 53.0619V51.144H35.7998V53.0619C35.7998 53.2314 35.8672 53.394 35.987 53.5139C36.1069 53.6338 36.2695 53.7012 36.4391 53.7012C36.6086 53.7012 36.7712 53.6338 36.8911 53.5139C37.011 53.394 37.0784 53.2314 37.0784 53.0619V51.144H41.5533C46.1357 51.144 49.864 47.4157 49.864 42.8334C49.864 38.9107 47.1292 35.6223 43.4686 34.7541ZM43.4712 28.7679C43.4712 31.94 40.8898 34.5214 37.7177 34.5214H29.407V23.0143H37.7177C40.8898 23.0143 43.4712 25.5958 43.4712 28.7679ZM41.5533 48.5856H29.407V37.0786H41.5533C44.7255 37.0786 47.3069 39.66 47.3069 42.8321C47.3069 46.0042 44.7255 48.5856 41.5533 48.5856Z" fill="#FFB546"/>
<path d="M35.7998 0C16.06 0 0 16.06 0 35.7998C0 55.5396 16.06 71.5996 35.7998 71.5996C55.5396 71.5996 71.5996 55.5396 71.5996 35.7998C71.5996 16.06 55.5396 0 35.7998 0ZM35.7998 69.0425C17.4703 69.0425 2.55713 54.1293 2.55713 35.7998C2.55713 17.4703 17.4703 2.55713 35.7998 2.55713C54.1293 2.55713 69.0425 17.4703 69.0425 35.7998C69.0425 54.1293 54.1293 69.0425 35.7998 69.0425Z" fill="url(#paint0_linear_504_826)"/>
<path d="M35.7997 8.31055C20.6423 8.31055 8.31055 20.6423 8.31055 35.7997C8.31055 50.9571 20.6423 63.2888 35.7997 63.2888C50.9571 63.2888 63.2888 50.9571 63.2888 35.7997C63.2888 20.6423 50.9571 8.31055 35.7997 8.31055ZM35.7997 62.0103C21.3468 62.0103 9.58911 50.2526 9.58911 35.7997C9.58911 21.3468 21.3468 9.58911 35.7997 9.58911C50.2526 9.58911 62.0103 21.3468 62.0103 35.7997C62.0103 50.2526 50.2526 62.0103 35.7997 62.0103Z" fill="#FFB546"/>
<defs>
<linearGradient id="paint0_linear_504_826" x1="-9.13499e-09" y1="35.7998" x2="71.5986" y2="36.0664" gradientUnits="userSpaceOnUse">
<stop stop-color="#FFB848"/>
<stop offset="1" stop-color="#FFE362"/>
</linearGradient>
</defs>
</svg>
