<svg width="24" height="40" viewBox="0 0 24 40" fill="none" xmlns="http://www.w3.org/2000/svg">
<path d="M23.7001 19.8789V19.8185C23.7001 19.7882 23.7001 19.7882 23.6699 19.758V19.6975C23.6699 19.6673 23.6396 19.6673 23.6396 19.6371C23.6396 19.6371 23.6396 19.6069 23.6094 19.6069L12.3639 0.955129C12.3337 0.924899 12.3035 0.86444 12.2733 0.83421H12.243C12.2128 0.803981 12.1826 0.773751 12.1523 0.773751C12.1523 0.773751 12.1221 0.773751 12.1221 0.743521C12.0919 0.713291 12.0617 0.713291 12.0314 0.713291H12.0012C11.9407 0.652832 11.9105 0.652832 11.85 0.652832C11.7896 0.652832 11.7594 0.652832 11.6989 0.683062H11.6687C11.6384 0.683062 11.6082 0.713291 11.578 0.713291C11.578 0.713291 11.5477 0.713291 11.5477 0.743521C11.5175 0.773751 11.4873 0.773751 11.4571 0.803981H11.4268C11.3966 0.83421 11.3664 0.86444 11.3361 0.924899L0.0906895 19.6069C0.0906895 19.6069 0.0906893 19.6371 0.0604596 19.6371C0.0604596 19.6673 0.0302298 19.6673 0.0302298 19.6975V19.758C0.0302298 19.7882 0.0302297 19.7882 0 19.8185V20.0603C0 20.0905 1.14867e-07 20.0905 0.0302298 20.1208V20.151C0.0604595 20.2114 0.0906896 20.2417 0.120919 20.2719L0.151149 20.3021L0.241838 20.3928C0.241838 20.3928 0.272068 20.3928 0.272068 20.4231L11.5477 27.0131H11.578C11.6082 27.0434 11.6384 27.0434 11.6687 27.0434H11.6989C11.7594 27.0434 11.7896 27.0736 11.85 27.0736C11.9105 27.0736 11.9407 27.0736 12.0012 27.0434H12.0314C12.0617 27.0434 12.0919 27.0131 12.1221 27.0131H12.1523L23.3978 20.4533C23.428 20.4533 23.428 20.4231 23.4583 20.4231L23.4885 20.3928L23.5489 20.3324L23.5792 20.3021C23.5792 20.2719 23.6094 20.2719 23.6094 20.2417C23.6094 20.2115 23.6396 20.2114 23.6396 20.1812C23.6396 20.151 23.6396 20.151 23.6699 20.1208C23.6699 20.0905 23.6699 20.0905 23.7001 20.0603V19.8789ZM11.2455 14.4376L2.14631 18.579L11.2455 3.43396V14.4376ZM11.2455 15.7677V25.4412L1.9347 19.9998L11.2455 15.7677ZM12.4546 15.7677L21.7654 19.9998L12.4546 25.4412V15.7677ZM12.4546 14.4376V3.43396L21.5538 18.579L12.4546 14.4376Z" fill="url(#paint0_linear_504_621)"/>
<path d="M22.763 22.4184L11.8501 28.9783L0.937149 22.4184C0.695311 22.2673 0.362784 22.3277 0.181406 22.5394C2.79825e-05 22.751 -0.0302014 23.0533 0.120947 23.2951L11.3664 39.075L11.3966 39.1052C11.4269 39.1355 11.4269 39.1657 11.4571 39.1657L11.4873 39.1959C11.5175 39.2261 11.5478 39.2261 11.5478 39.2564C11.5478 39.2564 11.578 39.2564 11.578 39.2866C11.6082 39.2866 11.6385 39.3168 11.6687 39.3168H11.6989C11.7292 39.3168 11.7896 39.3471 11.8198 39.3471C11.8803 39.3471 11.9105 39.3471 11.9408 39.3168H11.971C12.0012 39.3168 12.0315 39.2866 12.0617 39.2866C12.0617 39.2866 12.0919 39.2866 12.0919 39.2564C12.1221 39.2564 12.1524 39.2261 12.1524 39.1959L12.1826 39.1657L12.2431 39.1052L12.2733 39.075L23.5187 23.2951C23.6699 23.0533 23.6699 22.751 23.4583 22.5394C23.2467 22.3277 23.0351 22.2975 22.763 22.4184ZM11.2455 30.0061V36.838L2.78116 24.9577L11.2455 30.0061ZM12.4547 36.838V30.0061L20.919 24.9275L12.4547 36.838Z" fill="url(#paint1_linear_504_621)"/>
<defs>
<linearGradient id="paint0_linear_504_621" x1="-3.02376e-09" y1="13.8632" x2="23.6998" y2="13.9424" gradientUnits="userSpaceOnUse">
<stop stop-color="#3741D8"/>
<stop offset="1" stop-color="#3BB0F2"/>
</linearGradient>
<linearGradient id="paint1_linear_504_621" x1="0.0241699" y1="30.8408" x2="23.6249" y2="30.9627" gradientUnits="userSpaceOnUse">
<stop stop-color="#3741D8"/>
<stop offset="1" stop-color="#3BB0F2"/>
</linearGradient>
</defs>
</svg>
