<svg width="24" height="40" viewBox="0 0 24 40" fill="none" xmlns="http://www.w3.org/2000/svg">
<path d="M23.7001 19.8794V19.819C23.7001 19.7887 23.7001 19.7887 23.6699 19.7585V19.698C23.6699 19.6678 23.6396 19.6678 23.6396 19.6376C23.6396 19.6376 23.6396 19.6073 23.6094 19.6073L12.3639 0.955617C12.3337 0.925388 12.3035 0.864928 12.2733 0.834699H12.243C12.2128 0.804469 12.1826 0.774239 12.1523 0.774239C12.1523 0.774239 12.1221 0.774239 12.1221 0.744009C12.0919 0.71378 12.0617 0.71378 12.0314 0.71378H12.0012C11.9407 0.65332 11.9105 0.65332 11.85 0.65332C11.7896 0.65332 11.7594 0.65332 11.6989 0.68355H11.6687C11.6384 0.68355 11.6082 0.71378 11.578 0.71378C11.578 0.71378 11.5477 0.71378 11.5477 0.744009C11.5175 0.774239 11.4873 0.774239 11.4571 0.804469H11.4268C11.3966 0.834699 11.3664 0.864928 11.3361 0.925388L0.0906895 19.6073C0.0906895 19.6073 0.0906893 19.6376 0.0604596 19.6376C0.0604596 19.6678 0.0302298 19.6678 0.0302298 19.698V19.7585C0.0302298 19.7887 0.0302297 19.7887 0 19.819V20.0608C0 20.091 1.14867e-07 20.091 0.0302298 20.1213V20.1515C0.0604595 20.2119 0.0906896 20.2422 0.120919 20.2724L0.151149 20.3026L0.241838 20.3933C0.241838 20.3933 0.272068 20.3933 0.272068 20.4235L11.5477 27.0136H11.578C11.6082 27.0438 11.6384 27.0439 11.6687 27.0439H11.6989C11.7594 27.0439 11.7896 27.0741 11.85 27.0741C11.9105 27.0741 11.9407 27.0741 12.0012 27.0439H12.0314C12.0617 27.0439 12.0919 27.0136 12.1221 27.0136H12.1523L23.3978 20.4538C23.428 20.4538 23.428 20.4235 23.4583 20.4235L23.4885 20.3933L23.5489 20.3329L23.5792 20.3026C23.5792 20.2724 23.6094 20.2724 23.6094 20.2422C23.6094 20.2119 23.6396 20.2119 23.6396 20.1817C23.6396 20.1515 23.6396 20.1515 23.6699 20.1213C23.6699 20.091 23.6699 20.091 23.7001 20.0608V19.8794ZM11.2455 14.4381L2.14631 18.5795L11.2455 3.43445V14.4381ZM11.2455 15.7682V25.4417L1.9347 20.0003L11.2455 15.7682ZM12.4546 15.7682L21.7654 20.0003L12.4546 25.4417V15.7682ZM12.4546 14.4381V3.43445L21.5538 18.5795L12.4546 14.4381Z" fill="url(#paint0_linear_507_1044)"/>
<path d="M22.763 22.4189L11.8501 28.9788L0.937149 22.4189C0.695311 22.2678 0.362784 22.3282 0.181406 22.5398C2.79825e-05 22.7514 -0.0302014 23.0537 0.120947 23.2956L11.3664 39.0755L11.3966 39.1057C11.4269 39.1359 11.4269 39.1662 11.4571 39.1662L11.4873 39.1964C11.5175 39.2266 11.5478 39.2266 11.5478 39.2569C11.5478 39.2569 11.578 39.2569 11.578 39.2871C11.6082 39.2871 11.6385 39.3173 11.6687 39.3173H11.6989C11.7292 39.3173 11.7896 39.3476 11.8198 39.3476C11.8803 39.3476 11.9105 39.3476 11.9408 39.3173H11.971C12.0012 39.3173 12.0315 39.2871 12.0617 39.2871C12.0617 39.2871 12.0919 39.2871 12.0919 39.2569C12.1221 39.2569 12.1524 39.2266 12.1524 39.1964L12.1826 39.1662L12.2431 39.1057L12.2733 39.0755L23.5187 23.2956C23.6699 23.0537 23.6699 22.7514 23.4583 22.5398C23.2467 22.3282 23.0351 22.298 22.763 22.4189ZM11.2455 30.0066V36.8385L2.78116 24.9582L11.2455 30.0066ZM12.4547 36.8385V30.0066L20.919 24.928L12.4547 36.8385Z" fill="url(#paint1_linear_507_1044)"/>
<defs>
<linearGradient id="paint0_linear_507_1044" x1="-3.02376e-09" y1="13.8637" x2="23.6998" y2="13.9429" gradientUnits="userSpaceOnUse">
<stop stop-color="#3741D8"/>
<stop offset="1" stop-color="#3BB0F2"/>
</linearGradient>
<linearGradient id="paint1_linear_507_1044" x1="0.0241699" y1="30.8413" x2="23.6249" y2="30.9632" gradientUnits="userSpaceOnUse">
<stop stop-color="#3741D8"/>
<stop offset="1" stop-color="#3BB0F2"/>
</linearGradient>
</defs>
</svg>
