<svg width="40" height="41" viewBox="0 0 40 41" fill="none" xmlns="http://www.w3.org/2000/svg">
<circle cx="20" cy="20.5" r="20" fill="#C4C4C4"/>
<g clip-path="url(#clip0_507_933)">
<path d="M39.4019 25.3365C36.7298 36.0565 25.8687 42.5731 15.164 39.9008C4.44366 37.2286 -2.0729 26.368 0.599441 15.6634C3.27163 4.94342 14.1169 -1.57315 24.8373 1.0992C35.5419 3.75576 42.0743 14.6164 39.4019 25.3365Z" fill="url(#paint0_linear_507_933)"/>
<path d="M29.5222 18.0078C29.9128 15.3516 27.8972 13.9141 25.116 12.9609L26.0222 9.35156L23.8347 8.80469L22.9597 12.3203C22.3816 12.1797 21.7878 12.0391 21.1941 11.9141L22.0691 8.38281L19.8816 7.83594L18.991 11.4297C18.5066 11.3203 18.0378 11.2109 17.5847 11.1016V11.0859L14.5535 10.3359L13.9753 12.6797C13.9753 12.6797 15.6003 13.0547 15.5691 13.0703C16.4597 13.2891 16.616 13.8828 16.5847 14.3516L15.5535 18.4609C15.616 18.4766 15.6941 18.4922 15.7878 18.5391C15.7097 18.5234 15.6316 18.5078 15.5535 18.4766L14.116 24.2266C14.0066 24.4922 13.7253 24.8984 13.116 24.7422C13.1316 24.7734 11.5222 24.3516 11.5222 24.3516L10.4285 26.8672L13.2878 27.5859C13.8191 27.7266 14.3347 27.8516 14.8503 27.9922L13.9441 31.6328L16.1316 32.1797L17.0378 28.5703C17.6316 28.7266 18.2253 28.8828 18.7878 29.0234L17.8972 32.6172L20.0847 33.1641L20.991 29.5234C24.741 30.2266 27.5535 29.9453 28.7253 26.5547C29.6785 23.8359 28.6785 22.2578 26.7097 21.2266C28.1628 20.8984 29.241 19.9453 29.5222 18.0078ZM24.5066 25.0391C23.8347 27.7578 19.241 26.2891 17.7566 25.9141L18.9597 21.0859C20.4441 21.4609 25.2253 22.1953 24.5066 25.0391ZM25.1941 17.9609C24.5691 20.4453 20.7566 19.1797 19.5222 18.8672L20.616 14.4922C21.8503 14.8047 25.8347 15.3828 25.1941 17.9609Z" fill="white"/>
</g>
<defs>
<linearGradient id="paint0_linear_507_933" x1="19.9894" y1="0.4904" x2="19.9894" y2="40.496" gradientUnits="userSpaceOnUse">
<stop stop-color="#F9AA4B"/>
<stop offset="1" stop-color="#F7931A"/>
</linearGradient>
<clipPath id="clip0_507_933">
<rect width="40" height="40" fill="white" transform="translate(0 0.5)"/>
</clipPath>
</defs>
</svg>
