<svg width="40" height="40" viewBox="0 0 40 40" fill="none" xmlns="http://www.w3.org/2000/svg">
<path d="M39.8915 20C39.8915 30.9875 30.9846 39.8947 19.9972 39.8947C9.00961 39.8947 0.102539 30.9875 0.102539 20C0.102539 9.01254 9.00961 0.105469 19.9972 0.105469C30.9845 0.105469 39.8915 9.01254 39.8915 20Z" fill="#6374C3"/>
<path d="M19.9332 10.7686L19.8103 11.1862V23.3059L19.9332 23.4286L25.559 20.1032L19.9332 10.7686Z" fill="white"/>
<path d="M19.9332 10.7686L14.3074 20.1032L19.9332 23.4286V17.5461V10.7686Z" fill="white"/>
<path d="M19.9328 25.2583L19.8635 25.3427V29.66L19.9328 29.8623L25.562 21.9346L19.9328 25.2583Z" fill="white"/>
<path d="M19.9332 29.8623V25.2583L14.3074 21.9346L19.9332 29.8623Z" fill="white"/>
<path d="M19.9333 23.4293L25.5591 20.104L19.9333 17.5469V23.4293Z" fill="white"/>
<path d="M14.3074 20.104L19.9331 23.4294V17.5469L14.3074 20.104Z" fill="white"/>
</svg>
