<svg width="40" height="41" viewBox="0 0 40 41" fill="none" xmlns="http://www.w3.org/2000/svg">
<path d="M39.8915 20.5C39.8915 31.4875 30.9846 40.3947 19.9972 40.3947C9.00961 40.3947 0.102539 31.4875 0.102539 20.5C0.102539 9.51254 9.00961 0.605469 19.9972 0.605469C30.9845 0.605469 39.8915 9.51254 39.8915 20.5Z" fill="#6374C3"/>
<path d="M19.9332 11.2686L19.8103 11.6862V23.8059L19.9332 23.9286L25.559 20.6032L19.9332 11.2686Z" fill="white"/>
<path d="M19.9332 11.2686L14.3074 20.6032L19.9332 23.9286V18.0461V11.2686Z" fill="white"/>
<path d="M19.9328 25.7583L19.8635 25.8427V30.16L19.9328 30.3623L25.562 22.4346L19.9328 25.7583Z" fill="white"/>
<path d="M19.9332 30.3623V25.7583L14.3074 22.4346L19.9332 30.3623Z" fill="white"/>
<path d="M19.9333 23.9293L25.5591 20.604L19.9333 18.0469V23.9293Z" fill="white"/>
<path d="M14.3074 20.604L19.9331 23.9294V18.0469L14.3074 20.604Z" fill="white"/>
</svg>
