<svg width="25" height="20" viewBox="0 0 25 20" fill="none" xmlns="http://www.w3.org/2000/svg">
<path d="M24.3999 2.39613C23.4979 2.79671 22.544 3.06152 21.5679 3.18232C22.5977 2.55254 23.3694 1.56178 23.7399 0.393828C22.7722 0.983542 21.7128 1.39903 20.6079 1.62224C19.8694 0.802363 18.8859 0.25661 17.8117 0.0705742C16.7375 -0.115462 15.6334 0.0687402 14.6725 0.594292C13.7115 1.11984 12.9482 1.95702 12.5022 2.97451C12.0562 3.99201 11.9527 5.13228 12.2079 6.21649C10.2512 6.11517 8.33723 5.59363 6.59029 4.68572C4.84334 3.77781 3.30252 2.50386 2.0679 0.946612C1.63487 1.72072 1.40733 2.59738 1.4079 3.48942C1.40637 4.31784 1.60496 5.13379 1.98601 5.86463C2.36705 6.59546 2.91872 7.21851 3.5919 7.67829C2.80948 7.6565 2.04377 7.44158 1.3599 7.0518V7.11322C1.36577 8.27394 1.7631 9.39695 2.48468 10.2923C3.20626 11.1877 4.20781 11.8004 5.3199 12.0269C4.89181 12.1602 4.44735 12.2305 3.9999 12.2357C3.69017 12.232 3.38121 12.2032 3.0759 12.1497C3.39259 13.1482 4.00545 14.0207 4.82919 14.646C5.65294 15.2713 6.64659 15.6182 7.6719 15.6384C5.94055 17.033 3.80296 17.7941 1.5999 17.8004C1.19878 17.8017 0.797985 17.7771 0.399902 17.7267C2.64922 19.2134 5.27048 20.0026 7.9479 19.9992C9.79553 20.0189 11.6285 19.6614 13.3396 18.9478C15.0508 18.2342 16.6059 17.1787 17.9141 15.8429C19.2224 14.5072 20.2575 12.9179 20.959 11.1681C21.6605 9.41824 22.0144 7.54283 21.9999 5.65142C21.9999 5.44259 21.9999 5.22147 21.9999 5.00036C22.9415 4.28151 23.7537 3.40027 24.3999 2.39613Z" fill="#FFB546"/>
</svg>
