<svg width="29" height="20" viewBox="0 0 29 20" fill="none" xmlns="http://www.w3.org/2000/svg">
<path d="M28.3935 7.04863C28.4564 5.198 28.0582 3.36122 27.236 1.70884C26.6781 1.03083 25.9039 0.573275 25.0483 0.415913C21.5092 0.0894815 17.9554 -0.0443119 14.4023 0.0151056C10.8621 -0.0470087 7.32111 0.0824673 3.79443 0.402984C3.09719 0.53191 2.45194 0.864354 1.93742 1.35975C0.792693 2.43288 0.6655 4.26884 0.538308 5.82035C0.353767 8.60992 0.353767 11.4089 0.538308 14.1985C0.575105 15.0718 0.703014 15.9386 0.919885 16.7844C1.07325 17.4374 1.38353 18.0415 1.82295 18.5427C2.34097 19.0644 3.00124 19.4157 3.71812 19.5512C6.46028 19.8953 9.22329 20.0379 11.9856 19.9779C16.4374 20.0425 20.3422 19.9779 24.9593 19.6159C25.6937 19.4887 26.3726 19.1369 26.9053 18.6074C27.2614 18.2453 27.5274 17.802 27.6812 17.3145C28.1361 15.8956 28.3595 14.4107 28.3426 12.9185C28.3935 12.1945 28.3935 7.82438 28.3935 7.04863ZM11.5277 13.6943V5.69105L19.0575 9.71206C16.9461 10.9016 14.1606 12.2462 11.5277 13.6943Z" fill="#FFB546"/>
</svg>
